Gemunu-latin-0.ufo
<glyph name="exclam" format="1">
  <advance width="197"/>
  <unicode hex="0021"/>
  <outline>
    <contour>
      <point x="120" y="176" type="line"/>
      <point x="132" y="480" type="line"/>
      <point x="132" y="645" type="line"/>
      <point x="80" y="645" type="line"/>
      <point x="80" y="480" type="line"/>
      <point x="92" y="176" type="line"/>
    </contour>
    <contour>
      <point x="131" y="0" type="line"/>
      <point x="131" y="65" type="line"/>
      <point x="81" y="65" type="line"/>
      <point x="81" y="0" type="line"/>
    </contour>
  </outline>
</glyph>
<glyph name="quotedbl" format="1">
  <advance width="231"/>
  <unicode hex="0022"/>
  <outline>
    <contour>
      <point x="38" y="506" type="line"/>
      <point x="38" y="675" type="line"/>
      <point x="88" y="675" type="line"/>
      <point x="88" y="603" type="line"/>
      <point x="68" y="506" type="line"/>
    </contour>
    <contour>
      <point x="131" y="506" type="line"/>
      <point x="131" y="675" type="line"/>
      <point x="181" y="675" type="line"/>
      <point x="181" y="603" type="line"/>
      <point x="161" y="506" type="line"/>
    </contour>
  </outline>
</glyph>
<glyph name="numbersign" format="1">
  <advance width="521"/>
  <unicode hex="0023"/>
  <outline>
    <contour>
      <point x="73" y="0" type="line"/>
      <point x="196" y="640" type="line"/>
      <point x="233" y="640" type="line"/>
      <point x="111" y="0" type="line"/>
    </contour>
    <contour>
      <point x="286" y="0" type="line"/>
      <point x="409" y="640" type="line"/>
      <point x="446" y="640" type="line"/>
      <point x="324" y="0" type="line"/>
    </contour>
    <contour>
      <point x="65" y="429" type="line"/>
      <point x="65" y="467" type="line"/>
      <point x="503" y="467" type="line"/>
      <point x="503" y="429" type="line"/>
    </contour>
    <contour>
      <point x="18" y="174" type="line"/>
      <point x="18" y="212" type="line"/>
      <point x="456" y="212" type="line"/>
      <point x="456" y="174" type="line"/>
    </contour>
  </outline>
</glyph>
<glyph name="dollar" format="1">
  <advance width="476"/>
  <unicode hex="0024"/>
  <outline>
    <contour>
      <point x="119" y="332" type="line" smooth="yes"/>
      <point x="111" y="332"/>
      <point x="107" y="336"/>
      <point x="107" y="344" type="curve" smooth="yes"/>
      <point x="107" y="545" type="line" smooth="yes"/>
      <point x="107" y="553"/>
      <point x="112" y="557"/>
      <point x="119" y="557" type="curve" smooth="yes"/>
      <point x="394" y="557" type="line"/>
      <point x="394" y="598" type="line"/>
      <point x="173" y="600" type="line" smooth="yes"/>
      <point x="98" y="601"/>
      <point x="60" y="564"/>
      <point x="60" y="494" type="curve" smooth="yes"/>
      <point x="60" y="383" type="line" smooth="yes"/>
      <point x="60" y="308"/>
      <point x="93" y="291"/>
      <point x="168" y="291" type="curve" smooth="yes"/>
      <point x="352" y="291" type="line" smooth="yes"/>
      <point x="359" y="291"/>
      <point x="364" y="287"/>
      <point x="364" y="279" type="curve" smooth="yes"/>
      <point x="364" y="72" type="line" smooth="yes"/>
      <point x="364" y="64"/>
      <point x="360" y="60"/>
      <point x="352" y="60" type="curve" smooth="yes"/>
      <point x="69" y="60" type="line"/>
      <point x="69" y="19" type="line"/>
      <point x="303" y="17" type="line" smooth="yes"/>
      <point x="378" y="16"/>
      <point x="411" y="45"/>
      <point x="411" y="120" type="curve" smooth="yes"/>
      <point x="411" y="236" type="line" smooth="yes"/>
      <point x="411" y="306"/>
      <point x="373" y="332"/>
      <point x="298" y="332" type="curve" smooth="yes"/>
    </contour>
    <contour>
      <point x="215" y="589" type="line"/>
      <point x="261" y="589" type="line"/>
      <point x="261" y="699" type="line"/>
      <point x="215" y="699" type="line"/>
    </contour>
    <contour>
      <point x="215" y="-80" type="line"/>
      <point x="261" y="-80" type="line"/>
      <point x="261" y="30" type="line"/>
      <point x="215" y="30" type="line"/>
    </contour>
  </outline>
</glyph>
<glyph name="ampersand" format="1">
  <advance width="559"/>
  <unicode hex="0026"/>
  <outline>
    <contour>
      <point x="325" y="-3" type="line" smooth="yes"/>
      <point x="401" y="-3"/>
      <point x="440" y="33"/>
      <point x="440" y="103" type="curve" smooth="yes"/>
      <point x="440" y="292" type="line" smooth="yes"/>
      <point x="440" y="300"/>
      <point x="445" y="304"/>
      <point x="452" y="304" type="curve" smooth="yes"/>
      <point x="524" y="304" type="line"/>
      <point x="524" y="347" type="line"/>
      <point x="501" y="347" type="line" smooth="yes"/>
      <point x="425" y="347"/>
      <point x="391" y="316"/>
      <point x="391" y="246" type="curve" smooth="yes"/>
      <point x="391" y="52" type="line" smooth="yes"/>
      <point x="391" y="44"/>
      <point x="386" y="40"/>
      <point x="379" y="40" type="curve" smooth="yes"/>
      <point x="141" y="40" type="line" smooth="yes"/>
      <point x="134" y="40"/>
      <point x="129" y="44"/>
      <point x="129" y="52" type="curve" smooth="yes"/>
      <point x="129" y="308" type="line" smooth="yes"/>
      <point x="129" y="316"/>
      <point x="133" y="320"/>
      <point x="141" y="320" type="curve" smooth="yes"/>
      <point x="297" y="320" type="line"/>
      <point x="297" y="361" type="line"/>
      <point x="146" y="361" type="line" smooth="yes"/>
      <point x="138" y="361"/>
      <point x="134" y="365"/>
      <point x="134" y="373" type="curve" smooth="yes"/>
      <point x="134" y="585" type="line" smooth="yes"/>
      <point x="134" y="593"/>
      <point x="138" y="597"/>
      <point x="146" y="597" type="curve" smooth="yes"/>
      <point x="374" y="597" type="line" smooth="yes"/>
      <point x="382" y="597"/>
      <point x="386" y="593"/>
      <point x="386" y="585" type="curve" smooth="yes"/>
      <point x="386" y="471" type="line"/>
      <point x="435" y="471" type="line"/>
      <point x="435" y="535" type="line" smooth="yes"/>
      <point x="435" y="610"/>
      <point x="400" y="638"/>
      <point x="325" y="638" type="curve" smooth="yes"/>
      <point x="195" y="638" type="line" smooth="yes"/>
      <point x="120" y="638"/>
      <point x="85" y="610"/>
      <point x="85" y="535" type="curve" smooth="yes"/>
      <point x="85" y="423" type="line" smooth="yes"/>
      <point x="85" y="353"/>
      <point x="125" y="330"/>
      <point x="200" y="330" type="curve"/>
      <point x="190" y="351" type="line"/>
      <point x="115" y="352"/>
      <point x="80" y="332"/>
      <point x="80" y="257" type="curve" smooth="yes"/>
      <point x="80" y="103" type="line" smooth="yes"/>
      <point x="80" y="33"/>
      <point x="120" y="-3"/>
      <point x="195" y="-3" type="curve" smooth="yes"/>
    </contour>
  </outline>
</glyph>
<glyph name="parenleft" format="1">
  <advance width="270"/>
  <unicode hex="0028"/>
  <outline>
    <contour>
      <point x="245" y="-170" type="line"/>
      <point x="245" y="-131" type="line"/>
      <point x="126" y="-131" type="line" smooth="yes"/>
      <point x="122" y="-131"/>
      <point x="119" y="-129"/>
      <point x="119" y="-124" type="curve" smooth="yes"/>
      <point x="119" y="634" type="line" smooth="yes"/>
      <point x="119" y="639"/>
      <point x="122" y="641"/>
      <point x="126" y="641" type="curve" smooth="yes"/>
      <point x="245" y="641" type="line"/>
      <point x="245" y="680" type="line"/>
      <point x="175" y="680" type="line" smooth="yes"/>
      <point x="105" y="680"/>
      <point x="70" y="655"/>
      <point x="70" y="585" type="curve" smooth="yes"/>
      <point x="70" y="-75" type="line" smooth="yes"/>
      <point x="70" y="-145"/>
      <point x="105" y="-170"/>
      <point x="175" y="-170" type="curve" smooth="yes"/>
    </contour>
  </outline>
</glyph>
<glyph name="asterisk" format="1">
  <advance width="348"/>
  <unicode hex="002A"/>
  <outline>
    <contour>
      <point x="143" y="446" type="line"/>
      <point x="166" y="491" type="line"/>
      <point x="151" y="502" type="line"/>
      <point x="115" y="466" type="line"/>
      <point x="81" y="419" type="line"/>
      <point x="109" y="399" type="line"/>
    </contour>
    <contour>
      <point x="268" y="421" type="line"/>
      <point x="234" y="468" type="line"/>
      <point x="198" y="503" type="line"/>
      <point x="183" y="493" type="line"/>
      <point x="206" y="447" type="line"/>
      <point x="240" y="400" type="line"/>
    </contour>
    <contour>
      <point x="252" y="526" type="line"/>
      <point x="308" y="544" type="line"/>
      <point x="297" y="576" type="line"/>
      <point x="242" y="558" type="line"/>
      <point x="197" y="535" type="line"/>
      <point x="202" y="518" type="line"/>
    </contour>
    <contour>
      <point x="183" y="545" type="line"/>
      <point x="191" y="595" type="line"/>
      <point x="191" y="653" type="line"/>
      <point x="157" y="653" type="line"/>
      <point x="157" y="595" type="line"/>
      <point x="165" y="545" type="line"/>
    </contour>
    <contour>
      <point x="145" y="518" type="line"/>
      <point x="151" y="535" type="line"/>
      <point x="106" y="558" type="line"/>
      <point x="50" y="576" type="line"/>
      <point x="40" y="544" type="line"/>
      <point x="95" y="526" type="line"/>
    </contour>
  </outline>
</glyph>
<glyph name="comma" format="1">
  <advance width="160"/>
  <unicode hex="002C"/>
  <outline>
    <contour>
      <point x="48" y="2" type="line"/>
      <point x="48" y="87" type="line"/>
      <point x="110" y="87" type="line"/>
      <point x="110" y="15" type="line" smooth="yes"/>
      <point x="110" y="-15"/>
      <point x="97" y="-54"/>
      <point x="69" y="-84" type="curve"/>
      <point x="48" y="-68" type="line"/>
      <point x="65" y="-42"/>
      <point x="72" y="-7"/>
      <point x="72" y="6" type="curve"/>
      <point x="75" y="2" type="line"/>
    </contour>
  </outline>
</glyph>
<glyph name="hyphen" format="1">
  <advance width="317"/>
  <unicode hex="002D"/>
  <outline>
    <contour>
      <point x="282" y="300" type="line"/>
      <point x="35" y="300" type="line"/>
      <point x="35" y="262" type="line"/>
      <point x="282" y="262" type="line"/>
    </contour>
  </outline>
</glyph>
<glyph name="period" format="1">
  <advance width="245"/>
  <unicode hex="002E"/>
  <outline>
    <contour>
      <point x="155" y="0" type="line"/>
      <point x="155" y="70" type="line"/>
      <point x="90" y="70" type="line"/>
      <point x="90" y="0" type="line"/>
    </contour>
  </outline>
</glyph>
<glyph name="slash" format="1">
  <advance width="395"/>
  <unicode hex="002F"/>
  <outline>
    <contour>
      <point x="342" y="675" type="line"/>
      <point x="20" y="-96" type="line"/>
      <point x="64" y="-96" type="line"/>
      <point x="385" y="675" type="line"/>
    </contour>
  </outline>
</glyph>
<glyph name="zero" format="1">
  <advance width="514"/>
  <unicode hex="0030"/>
  <outline>
    <contour>
      <point x="383" y="598" type="line" smooth="yes"/>
      <point x="387" y="598"/>
      <point x="390" y="596"/>
      <point x="390" y="591" type="curve" smooth="yes"/>
      <point x="390" y="44" type="line" smooth="yes"/>
      <point x="390" y="39"/>
      <point x="387" y="37"/>
      <point x="383" y="37" type="curve" smooth="yes"/>
      <point x="131" y="37" type="line" smooth="yes"/>
      <point x="127" y="37"/>
      <point x="124" y="39"/>
      <point x="124" y="44" type="curve" smooth="yes"/>
      <point x="124" y="591" type="line" smooth="yes"/>
      <point x="124" y="596"/>
      <point x="127" y="598"/>
      <point x="131" y="598" type="curve" smooth="yes"/>
    </contour>
    <contour>
      <point x="75" y="85" type="line" smooth="yes"/>
      <point x="75" y="15"/>
      <point x="105" y="-5"/>
      <point x="175" y="-5" type="curve" smooth="yes"/>
      <point x="339" y="-5" type="line" smooth="yes"/>
      <point x="409" y="-5"/>
      <point x="439" y="15"/>
      <point x="439" y="85" type="curve" smooth="yes"/>
      <point x="439" y="550" type="line" smooth="yes"/>
      <point x="439" y="620"/>
      <point x="409" y="640"/>
      <point x="339" y="640" type="curve" smooth="yes"/>
      <point x="175" y="640" type="line" smooth="yes"/>
      <point x="105" y="640"/>
      <point x="75" y="620"/>
      <point x="75" y="550" type="curve" smooth="yes"/>
    </contour>
  </outline>
</glyph>
<glyph name="one" format="1">
  <advance width="405"/>
  <unicode hex="0031"/>
  <outline>
    <contour>
      <point x="373" y="38" type="line"/>
      <point x="53" y="38" type="line"/>
      <point x="53" y="0" type="line"/>
      <point x="373" y="0" type="line"/>
    </contour>
    <contour>
      <point x="34" y="520" type="line"/>
      <point x="55" y="489" type="line"/>
      <point x="205" y="587" type="line"/>
      <point x="200" y="590" type="line"/>
      <point x="200" y="0" type="line"/>
      <point x="246" y="0" type="line"/>
      <point x="246" y="635" type="line"/>
      <point x="205" y="635" type="line"/>
    </contour>
  </outline>
</glyph>
<glyph name="two" format="1">
  <advance width="434"/>
  <unicode hex="0032"/>
  <outline>
    <contour>
      <point x="62" y="262"/>
      <point x="41" y="254"/>
      <point x="41" y="194" type="curve" smooth="yes"/>
      <point x="41" y="0" type="line"/>
      <point x="388" y="0" type="line"/>
      <point x="388" y="40" type="line"/>
      <point x="89" y="40" type="line"/>
      <point x="89" y="198" type="line" smooth="yes"/>
      <point x="89" y="222"/>
      <point x="90" y="227"/>
      <point x="107" y="235" type="curve" smooth="yes"/>
      <point x="318" y="336" type="line" smooth="yes"/>
      <point x="371" y="361"/>
      <point x="386" y="377"/>
      <point x="386" y="425" type="curve" smooth="yes"/>
      <point x="386" y="532" type="line" smooth="yes"/>
      <point x="386" y="602"/>
      <point x="347" y="639"/>
      <point x="272" y="638" type="curve" smooth="yes"/>
      <point x="54" y="635" type="line"/>
      <point x="54" y="595" type="line"/>
      <point x="326" y="595" type="line" smooth="yes"/>
      <point x="333" y="595"/>
      <point x="338" y="591"/>
      <point x="338" y="583" type="curve" smooth="yes"/>
      <point x="338" y="405" type="line" smooth="yes"/>
      <point x="338" y="395"/>
      <point x="334" y="391"/>
      <point x="325" y="387" type="curve" smooth="yes"/>
      <point x="115" y="287" type="line" smooth="yes"/>
    </contour>
  </outline>
</glyph>
<glyph name="three" format="1">
  <advance width="438"/>
  <unicode hex="0033"/>
  <outline>
    <contour>
      <point x="318" y="-4"/>
      <point x="358" y="33"/>
      <point x="358" y="103" type="curve" smooth="yes"/>
      <point x="358" y="247" type="line" smooth="yes"/>
      <point x="358" y="322"/>
      <point x="323" y="341"/>
      <point x="248" y="340" type="curve"/>
      <point x="238" y="320" type="line"/>
      <point x="313" y="320"/>
      <point x="353" y="343"/>
      <point x="353" y="413" type="curve" smooth="yes"/>
      <point x="353" y="535" type="line" smooth="yes"/>
      <point x="353" y="610"/>
      <point x="318" y="639"/>
      <point x="243" y="638" type="curve" smooth="yes"/>
      <point x="28" y="635" type="line"/>
      <point x="28" y="597" type="line"/>
      <point x="292" y="597" type="line" smooth="yes"/>
      <point x="300" y="597"/>
      <point x="304" y="593"/>
      <point x="304" y="585" type="curve" smooth="yes"/>
      <point x="304" y="362" type="line" smooth="yes"/>
      <point x="304" y="354"/>
      <point x="300" y="350"/>
      <point x="292" y="350" type="curve" smooth="yes"/>
      <point x="80" y="350" type="line"/>
      <point x="80" y="310" type="line"/>
      <point x="297" y="310" type="line" smooth="yes"/>
      <point x="305" y="310"/>
      <point x="309" y="306"/>
      <point x="309" y="298" type="curve" smooth="yes"/>
      <point x="309" y="52" type="line" smooth="yes"/>
      <point x="309" y="44"/>
      <point x="304" y="40"/>
      <point x="297" y="40" type="curve" smooth="yes"/>
      <point x="25" y="40" type="line"/>
      <point x="25" y="0" type="line"/>
      <point x="243" y="-3" type="line" smooth="yes"/>
    </contour>
  </outline>
</glyph>
<glyph name="four" format="1">
  <advance width="514"/>
  <unicode hex="0034"/>
  <outline>
    <contour>
      <point x="375" y="0" type="line"/>
      <point x="375" y="164" type="line"/>
      <point x="370" y="159" type="line"/>
      <point x="469" y="159" type="line"/>
      <point x="469" y="195" type="line"/>
      <point x="370" y="195" type="line"/>
      <point x="375" y="190" type="line"/>
      <point x="375" y="635" type="line"/>
      <point x="334" y="635" type="line" smooth="yes"/>
      <point x="266" y="635"/>
      <point x="258" y="617"/>
      <point x="229" y="565" type="curve" smooth="yes"/>
      <point x="22" y="190" type="line"/>
      <point x="22" y="159" type="line"/>
      <point x="335" y="159" type="line"/>
      <point x="329" y="164" type="line"/>
      <point x="329" y="0" type="line"/>
    </contour>
    <contour>
      <point x="284" y="588" type="line" smooth="yes"/>
      <point x="287" y="593"/>
      <point x="288" y="595"/>
      <point x="295" y="595" type="curve" smooth="yes"/>
      <point x="329" y="595" type="line"/>
      <point x="329" y="190" type="line"/>
      <point x="335" y="195" type="line"/>
      <point x="65" y="195" type="line"/>
      <point x="70" y="190" type="line"/>
    </contour>
  </outline>
</glyph>
<glyph name="five" format="1">
  <advance width="432"/>
  <unicode hex="0035"/>
  <outline>
    <contour>
      <point x="94" y="375" type="line"/>
      <point x="94" y="595" type="line"/>
      <point x="360" y="595" type="line"/>
      <point x="360" y="635" type="line"/>
      <point x="47" y="635" type="line"/>
      <point x="47" y="335" type="line"/>
      <point x="316" y="335" type="line" smooth="yes"/>
      <point x="323" y="335"/>
      <point x="328" y="331"/>
      <point x="328" y="323" type="curve" smooth="yes"/>
      <point x="328" y="52" type="line" smooth="yes"/>
      <point x="328" y="44"/>
      <point x="324" y="40"/>
      <point x="316" y="40" type="curve" smooth="yes"/>
      <point x="37" y="40" type="line"/>
      <point x="37" y="0" type="line"/>
      <point x="267" y="-3" type="line" smooth="yes"/>
      <point x="342" y="-4"/>
      <point x="377" y="25"/>
      <point x="377" y="100" type="curve" smooth="yes"/>
      <point x="377" y="279" type="line" smooth="yes"/>
      <point x="377" y="349"/>
      <point x="337" y="375"/>
      <point x="262" y="375" type="curve" smooth="yes"/>
    </contour>
  </outline>
</glyph>
<glyph name="six" format="1">
  <advance width="484"/>
  <unicode hex="0036"/>
  <outline>
    <contour>
      <point x="324" y="-2" type="line" smooth="yes"/>
      <point x="399" y="-2"/>
      <point x="434" y="25"/>
      <point x="434" y="100" type="curve" smooth="yes"/>
      <point x="434" y="283" type="line" smooth="yes"/>
      <point x="434" y="353"/>
      <point x="394" y="379"/>
      <point x="319" y="379" type="curve" smooth="yes"/>
      <point x="121" y="379" type="line"/>
      <point x="121" y="339" type="line"/>
      <point x="373" y="339" type="line" smooth="yes"/>
      <point x="380" y="339"/>
      <point x="385" y="335"/>
      <point x="385" y="327" type="curve" smooth="yes"/>
      <point x="385" y="52" type="line" smooth="yes"/>
      <point x="385" y="44"/>
      <point x="381" y="40"/>
      <point x="373" y="40" type="curve" smooth="yes"/>
      <point x="142" y="40" type="line" smooth="yes"/>
      <point x="133" y="40"/>
      <point x="129" y="44"/>
      <point x="129" y="52" type="curve" smooth="yes"/>
      <point x="129" y="583" type="line" smooth="yes"/>
      <point x="129" y="591"/>
      <point x="134" y="595"/>
      <point x="141" y="595" type="curve" smooth="yes"/>
      <point x="411" y="595" type="line"/>
      <point x="411" y="635" type="line"/>
      <point x="195" y="638" type="line" smooth="yes"/>
      <point x="120" y="639"/>
      <point x="80" y="602"/>
      <point x="80" y="532" type="curve" smooth="yes"/>
      <point x="80" y="90" type="line" smooth="yes"/>
      <point x="80" y="15"/>
      <point x="115" y="-2"/>
      <point x="190" y="-2" type="curve" smooth="yes"/>
    </contour>
  </outline>
</glyph>
<glyph name="seven" format="1">
  <advance width="394"/>
  <unicode hex="0037"/>
  <outline>
    <contour>
      <point x="123" y="-2" type="line"/>
      <point x="363" y="578" type="line"/>
      <point x="363" y="618"/>
      <point x="343" y="635"/>
      <point x="301" y="635" type="curve" smooth="yes"/>
      <point x="20" y="635" type="line"/>
      <point x="20" y="596" type="line"/>
      <point x="312" y="596" type="line" smooth="yes"/>
      <point x="318" y="596"/>
      <point x="320" y="593"/>
      <point x="317" y="586" type="curve" smooth="yes"/>
      <point x="75" y="-2" type="line"/>
    </contour>
  </outline>
</glyph>
<glyph name="eight" format="1">
  <advance width="530"/>
  <unicode hex="0038"/>
  <outline>
    <contour>
      <point x="335" y="-3" type="line" smooth="yes"/>
      <point x="411" y="-3"/>
      <point x="450" y="33"/>
      <point x="450" y="103" type="curve" smooth="yes"/>
      <point x="450" y="247" type="line" smooth="yes"/>
      <point x="450" y="322"/>
      <point x="415" y="341"/>
      <point x="340" y="340" type="curve"/>
      <point x="330" y="320" type="line"/>
      <point x="405" y="320"/>
      <point x="445" y="343"/>
      <point x="445" y="413" type="curve" smooth="yes"/>
      <point x="445" y="535" type="line" smooth="yes"/>
      <point x="445" y="610"/>
      <point x="410" y="638"/>
      <point x="335" y="638" type="curve" smooth="yes"/>
      <point x="195" y="638" type="line" smooth="yes"/>
      <point x="120" y="638"/>
      <point x="85" y="610"/>
      <point x="85" y="535" type="curve" smooth="yes"/>
      <point x="85" y="413" type="line" smooth="yes"/>
      <point x="85" y="343"/>
      <point x="125" y="320"/>
      <point x="200" y="320" type="curve"/>
      <point x="190" y="340" type="line"/>
      <point x="115" y="341"/>
      <point x="80" y="322"/>
      <point x="80" y="247" type="curve" smooth="yes"/>
      <point x="80" y="103" type="line" smooth="yes"/>
      <point x="80" y="33"/>
      <point x="120" y="-3"/>
      <point x="195" y="-3" type="curve" smooth="yes"/>
    </contour>
    <contour>
      <point x="134" y="40"/>
      <point x="129" y="44"/>
      <point x="129" y="52" type="curve" smooth="yes"/>
      <point x="129" y="298" type="line" smooth="yes"/>
      <point x="129" y="306"/>
      <point x="133" y="310"/>
      <point x="141" y="310" type="curve" smooth="yes"/>
      <point x="389" y="310" type="line" smooth="yes"/>
      <point x="397" y="310"/>
      <point x="401" y="306"/>
      <point x="401" y="298" type="curve" smooth="yes"/>
      <point x="401" y="52" type="line" smooth="yes"/>
      <point x="401" y="44"/>
      <point x="396" y="40"/>
      <point x="389" y="40" type="curve" smooth="yes"/>
      <point x="141" y="40" type="line" smooth="yes"/>
    </contour>
    <contour>
      <point x="138" y="350"/>
      <point x="134" y="354"/>
      <point x="134" y="362" type="curve" smooth="yes"/>
      <point x="134" y="585" type="line" smooth="yes"/>
      <point x="134" y="593"/>
      <point x="138" y="597"/>
      <point x="146" y="597" type="curve" smooth="yes"/>
      <point x="384" y="597" type="line" smooth="yes"/>
      <point x="392" y="597"/>
      <point x="396" y="593"/>
      <point x="396" y="585" type="curve" smooth="yes"/>
      <point x="396" y="362" type="line" smooth="yes"/>
      <point x="396" y="354"/>
      <point x="392" y="350"/>
      <point x="384" y="350" type="curve" smooth="yes"/>
      <point x="146" y="350" type="line" smooth="yes"/>
    </contour>
  </outline>
</glyph>
<glyph name="nine" format="1">
  <advance width="484"/>
  <unicode hex="0039"/>
  <outline>
    <contour>
      <point x="364" y="-4"/>
      <point x="404" y="33"/>
      <point x="404" y="103" type="curve" smooth="yes"/>
      <point x="404" y="545" type="line" smooth="yes"/>
      <point x="404" y="620"/>
      <point x="369" y="637"/>
      <point x="294" y="637" type="curve" smooth="yes"/>
      <point x="160" y="637" type="line" smooth="yes"/>
      <point x="85" y="637"/>
      <point x="50" y="610"/>
      <point x="50" y="535" type="curve" smooth="yes"/>
      <point x="50" y="347" type="line" smooth="yes"/>
      <point x="50" y="277"/>
      <point x="90" y="251"/>
      <point x="165" y="251" type="curve" smooth="yes"/>
      <point x="363" y="251" type="line"/>
      <point x="363" y="291" type="line"/>
      <point x="111" y="291" type="line" smooth="yes"/>
      <point x="104" y="291"/>
      <point x="99" y="295"/>
      <point x="99" y="303" type="curve" smooth="yes"/>
      <point x="99" y="583" type="line" smooth="yes"/>
      <point x="99" y="591"/>
      <point x="103" y="595"/>
      <point x="111" y="595" type="curve" smooth="yes"/>
      <point x="342" y="595" type="line" smooth="yes"/>
      <point x="351" y="595"/>
      <point x="355" y="591"/>
      <point x="355" y="583" type="curve" smooth="yes"/>
      <point x="355" y="52" type="line" smooth="yes"/>
      <point x="355" y="44"/>
      <point x="350" y="40"/>
      <point x="343" y="40" type="curve" smooth="yes"/>
      <point x="68" y="40" type="line"/>
      <point x="68" y="0" type="line"/>
      <point x="289" y="-3" type="line" smooth="yes"/>
    </contour>
  </outline>
</glyph>
<glyph name="colon" format="1">
  <advance width="205"/>
  <unicode hex="003A"/>
  <outline>
    <contour>
      <point x="135" y="30" type="line"/>
      <point x="135" y="117" type="line"/>
      <point x="70" y="117" type="line"/>
      <point x="70" y="30" type="line"/>
    </contour>
    <contour>
      <point x="135" y="294" type="line"/>
      <point x="135" y="381" type="line"/>
      <point x="70" y="381" type="line"/>
      <point x="70" y="294" type="line"/>
    </contour>
  </outline>
</glyph>
<glyph name="equal" format="1">
  <advance width="485"/>
  <unicode hex="003D"/>
  <outline>
    <contour>
      <point x="415" y="376" type="line"/>
      <point x="60" y="376" type="line"/>
      <point x="60" y="336" type="line"/>
      <point x="415" y="336" type="line"/>
    </contour>
    <contour>
      <point x="415" y="209" type="line"/>
      <point x="60" y="209" type="line"/>
      <point x="60" y="169" type="line"/>
      <point x="415" y="169" type="line"/>
    </contour>
  </outline>
</glyph>
<glyph name="greater" format="1">
  <advance width="468"/>
  <unicode hex="003E"/>
  <outline>
    <contour>
      <point x="408" y="316" type="line"/>
      <point x="70" y="489" type="line"/>
      <point x="70" y="443" type="line"/>
      <point x="366" y="294" type="line"/>
      <point x="366" y="309" type="line"/>
      <point x="70" y="159" type="line"/>
      <point x="70" y="114" type="line"/>
      <point x="408" y="288" type="line"/>
    </contour>
  </outline>
</glyph>
<glyph name="question" format="1">
  <advance width="362"/>
  <unicode hex="003F"/>
  <outline>
    <contour>
      <point x="153" y="140" type="line"/>
      <point x="153" y="219" type="line" smooth="yes"/>
      <point x="153" y="243"/>
      <point x="156" y="251"/>
      <point x="171" y="266" type="curve" smooth="yes"/>
      <point x="231" y="330" type="line" smooth="yes"/>
      <point x="272" y="374"/>
      <point x="300" y="391"/>
      <point x="300" y="429" type="curve" smooth="yes"/>
      <point x="300" y="540" type="line" smooth="yes"/>
      <point x="300" y="610"/>
      <point x="265" y="635"/>
      <point x="195" y="635" type="curve" smooth="yes"/>
      <point x="37" y="635" type="line"/>
      <point x="37" y="594" type="line"/>
      <point x="244" y="594" type="line" smooth="yes"/>
      <point x="248" y="594"/>
      <point x="251" y="592"/>
      <point x="251" y="587" type="curve" smooth="yes"/>
      <point x="251" y="417" type="line" smooth="yes"/>
      <point x="251" y="408"/>
      <point x="250" y="407"/>
      <point x="243" y="400" type="curve" smooth="yes"/>
      <point x="162" y="317" type="line" smooth="yes"/>
      <point x="120" y="273"/>
      <point x="105" y="265"/>
      <point x="105" y="221" type="curve" smooth="yes"/>
      <point x="105" y="140" type="line"/>
    </contour>
    <contour>
      <point x="154" y="0" type="line"/>
      <point x="154" y="65" type="line"/>
      <point x="104" y="65" type="line"/>
      <point x="104" y="0" type="line"/>
    </contour>
  </outline>
</glyph>
<glyph name="A" format="1">
  <advance width="509"/>
  <unicode hex="0041"/>
  <outline>
    <contour>
      <point x="495" y="0" type="line"/>
      <point x="328" y="635" type="line"/>
      <point x="273" y="635" type="line" smooth="yes"/>
      <point x="205" y="635"/>
      <point x="198" y="621"/>
      <point x="178" y="554" type="curve" smooth="yes"/>
      <point x="15" y="0" type="line"/>
      <point x="59" y="0" type="line"/>
      <point x="113" y="190" type="line"/>
      <point x="100" y="180" type="line"/>
      <point x="411" y="180" type="line"/>
      <point x="399" y="190" type="line"/>
      <point x="448" y="0" type="line"/>
    </contour>
    <contour>
      <point x="228" y="588" type="line" smooth="yes"/>
      <point x="229" y="592"/>
      <point x="231" y="595"/>
      <point x="236" y="595" type="curve" smooth="yes"/>
      <point x="294" y="595" type="line"/>
      <point x="393" y="210" type="line"/>
      <point x="401" y="220" type="line"/>
      <point x="112" y="220" type="line"/>
      <point x="119" y="210" type="line"/>
    </contour>
    <contour>
      <point x="495" y="0" type="move" name="ogonek"/>
    </contour>
    <contour>
      <point x="270" y="615" type="move" name="top"/>
    </contour>
  </outline>
</glyph>
<glyph name="B" format="1">
  <advance width="525"/>
  <unicode hex="0042"/>
  <outline>
    <contour>
      <point x="415" y="-4"/>
      <point x="455" y="33"/>
      <point x="455" y="103" type="curve" smooth="yes"/>
      <point x="455" y="241" type="line" smooth="yes"/>
      <point x="455" y="316"/>
      <point x="420" y="335"/>
      <point x="345" y="334" type="curve"/>
      <point x="325" y="314" type="line"/>
      <point x="400" y="314"/>
      <point x="440" y="337"/>
      <point x="440" y="407" type="curve" smooth="yes"/>
      <point x="440" y="535" type="line" smooth="yes"/>
      <point x="440" y="610"/>
      <point x="405" y="639"/>
      <point x="330" y="638" type="curve" smooth="yes"/>
      <point x="75" y="635" type="line"/>
      <point x="75" y="0" type="line"/>
      <point x="340" y="-3" type="line" smooth="yes"/>
    </contour>
    <contour>
      <point x="121" y="316" type="line"/>
      <point x="110" y="304" type="line"/>
      <point x="394" y="304" type="line" smooth="yes"/>
      <point x="402" y="304"/>
      <point x="406" y="300"/>
      <point x="406" y="292" type="curve" smooth="yes"/>
      <point x="406" y="52" type="line" smooth="yes"/>
      <point x="406" y="44"/>
      <point x="401" y="40"/>
      <point x="394" y="40" type="curve" smooth="yes"/>
      <point x="108" y="40" type="line"/>
      <point x="121" y="27" type="line"/>
    </contour>
    <contour>
      <point x="121" y="610" type="line"/>
      <point x="111" y="598" type="line"/>
      <point x="379" y="598" type="line" smooth="yes"/>
      <point x="387" y="598"/>
      <point x="391" y="594"/>
      <point x="391" y="586" type="curve" smooth="yes"/>
      <point x="391" y="356" type="line" smooth="yes"/>
      <point x="391" y="348"/>
      <point x="386" y="344"/>
      <point x="379" y="344" type="curve" smooth="yes"/>
      <point x="110" y="344" type="line"/>
      <point x="121" y="331" type="line"/>
    </contour>
  </outline>
</glyph>
<glyph name="C" format="1">
  <advance width="422"/>
  <unicode hex="0043"/>
  <outline>
    <contour>
      <point x="397" y="42" type="line"/>
      <point x="121" y="42" type="line" smooth="yes"/>
      <point x="117" y="42"/>
      <point x="114" y="44"/>
      <point x="114" y="49" type="curve" smooth="yes"/>
      <point x="114" y="586" type="line" smooth="yes"/>
      <point x="114" y="591"/>
      <point x="117" y="593"/>
      <point x="121" y="593" type="curve" smooth="yes"/>
      <point x="397" y="593" type="line"/>
      <point x="397" y="635" type="line"/>
      <point x="165" y="635" type="line" smooth="yes"/>
      <point x="95" y="635"/>
      <point x="65" y="615"/>
      <point x="65" y="545" type="curve" smooth="yes"/>
      <point x="65" y="90" type="line" smooth="yes"/>
      <point x="65" y="20"/>
      <point x="95" y="0"/>
      <point x="165" y="0" type="curve" smooth="yes"/>
      <point x="397" y="0" type="line"/>
    </contour>
    <contour>
      <point x="254" y="615" type="move" name="top"/>
    </contour>
    <contour>
      <point x="244" y="0" type="move" name="bottom"/>
    </contour>
  </outline>
</glyph>
<glyph name="D" format="1">
  <advance width="520"/>
  <unicode hex="0044"/>
  <outline>
    <contour>
      <point x="394" y="598" type="line" smooth="yes"/>
      <point x="402" y="598"/>
      <point x="406" y="594"/>
      <point x="406" y="586" type="curve" smooth="yes"/>
      <point x="406" y="49" type="line" smooth="yes"/>
      <point x="406" y="41"/>
      <point x="401" y="37"/>
      <point x="394" y="37" type="curve" smooth="yes"/>
      <point x="121" y="37" type="line"/>
      <point x="121" y="598" type="line"/>
    </contour>
    <contour>
      <point x="75" y="-1" type="line"/>
      <point x="340" y="-5" type="line" smooth="yes"/>
      <point x="415" y="-6"/>
      <point x="455" y="25"/>
      <point x="455" y="100" type="curve" smooth="yes"/>
      <point x="455" y="535" type="line" smooth="yes"/>
      <point x="455" y="610"/>
      <point x="420" y="641"/>
      <point x="345" y="640" type="curve" smooth="yes"/>
      <point x="75" y="635" type="line"/>
    </contour>
  </outline>
</glyph>
<glyph name="E" format="1">
  <advance width="448"/>
  <unicode hex="0045"/>
  <outline>
    <contour>
      <point x="413" y="0" type="line"/>
      <point x="413" y="40" type="line"/>
      <point x="111" y="40" type="line"/>
      <point x="121" y="30" type="line"/>
      <point x="121" y="314" type="line"/>
      <point x="111" y="304" type="line"/>
      <point x="392" y="304" type="line"/>
      <point x="392" y="344" type="line"/>
      <point x="111" y="344" type="line"/>
      <point x="121" y="334" type="line"/>
      <point x="121" y="605" type="line"/>
      <point x="111" y="595" type="line"/>
      <point x="408" y="595" type="line"/>
      <point x="408" y="635" type="line"/>
      <point x="75" y="635" type="line"/>
      <point x="75" y="0" type="line"/>
    </contour>
    <contour>
      <point x="413" y="0" type="move" name="ogonek"/>
    </contour>
    <contour>
      <point x="224" y="0" type="move" name="bottom"/>
    </contour>
    <contour>
      <point x="250" y="615" type="move" name="top"/>
    </contour>
  </outline>
</glyph>
<glyph name="F" format="1">
  <advance width="432"/>
  <unicode hex="0046"/>
  <outline>
    <contour>
      <point x="386" y="334" type="line"/>
      <point x="108" y="334" type="line"/>
      <point x="121" y="321" type="line"/>
      <point x="121" y="635" type="line"/>
      <point x="75" y="635" type="line"/>
      <point x="75" y="0" type="line"/>
      <point x="121" y="0" type="line"/>
      <point x="121" y="306" type="line"/>
      <point x="108" y="294" type="line"/>
      <point x="386" y="294" type="line"/>
    </contour>
    <contour>
      <point x="113" y="595" type="line"/>
      <point x="402" y="595" type="line"/>
      <point x="402" y="635" type="line"/>
      <point x="113" y="635" type="line"/>
    </contour>
  </outline>
</glyph>
<glyph name="G" format="1">
  <advance width="520"/>
  <unicode hex="0047"/>
  <outline>
    <contour>
      <point x="365" y="-5" type="line" smooth="yes"/>
      <point x="435" y="-5"/>
      <point x="465" y="15"/>
      <point x="465" y="85" type="curve" smooth="yes"/>
      <point x="465" y="317" type="line"/>
      <point x="276" y="317" type="line"/>
      <point x="276" y="277" type="line"/>
      <point x="425" y="277" type="line"/>
      <point x="416" y="285" type="line"/>
      <point x="416" y="44" type="line" smooth="yes"/>
      <point x="416" y="39"/>
      <point x="413" y="37"/>
      <point x="409" y="37" type="curve" smooth="yes"/>
      <point x="121" y="37" type="line" smooth="yes"/>
      <point x="117" y="37"/>
      <point x="114" y="39"/>
      <point x="114" y="44" type="curve" smooth="yes"/>
      <point x="114" y="591" type="line" smooth="yes"/>
      <point x="114" y="596"/>
      <point x="117" y="598"/>
      <point x="121" y="598" type="curve" smooth="yes"/>
      <point x="455" y="598" type="line"/>
      <point x="455" y="640" type="line"/>
      <point x="165" y="640" type="line" smooth="yes"/>
      <point x="95" y="640"/>
      <point x="65" y="620"/>
      <point x="65" y="550" type="curve" smooth="yes"/>
      <point x="65" y="85" type="line" smooth="yes"/>
      <point x="65" y="15"/>
      <point x="95" y="-5"/>
      <point x="165" y="-5" type="curve" smooth="yes"/>
    </contour>
  </outline>
</glyph>
<glyph name="H" format="1">
  <advance width="640"/>
  <unicode hex="0048"/>
  <outline>
    <contour>
      <point x="527" y="319" type="line"/>
      <point x="540" y="331" type="line"/>
      <point x="100" y="331" type="line"/>
      <point x="113" y="319" type="line"/>
      <point x="113" y="635" type="line"/>
      <point x="70" y="635" type="line"/>
      <point x="70" y="0" type="line"/>
      <point x="113" y="0" type="line"/>
      <point x="113" y="304" type="line"/>
      <point x="100" y="293" type="line"/>
      <point x="540" y="293" type="line"/>
      <point x="527" y="304" type="line"/>
      <point x="527" y="0" type="line"/>
      <point x="570" y="0" type="line"/>
      <point x="570" y="635" type="line"/>
      <point x="527" y="635" type="line"/>
    </contour>
  </outline>
</glyph>
<glyph name="L" format="1">
  <advance width="386"/>
  <unicode hex="004C"/>
  <outline>
    <contour>
      <point x="381" y="40" type="line"/>
      <point x="108" y="40" type="line"/>
      <point x="121" y="27" type="line"/>
      <point x="121" y="635" type="line"/>
      <point x="75" y="635" type="line"/>
      <point x="75" y="0" type="line"/>
      <point x="381" y="0" type="line"/>
    </contour>
    <contour>
      <point x="103" y="615" type="move" name="top"/>
    </contour>
    <contour>
      <point x="193" y="0" type="move" name="bottom"/>
    </contour>
    <contour>
      <point x="366" y="615" type="move" name="topright"/>
    </contour>
  </outline>
</glyph>
<glyph name="M" format="1">
  <advance width="624"/>
  <unicode hex="004D"/>
  <outline>
    <contour>
      <point x="543" y="635"/>
      <point x="514" y="635" type="curve" smooth="yes"/>
      <point x="500" y="635" type="line"/>
      <point x="303" y="255" type="line"/>
      <point x="324" y="255" type="line"/>
      <point x="151" y="599" type="line" smooth="yes"/>
      <point x="137" y="628"/>
      <point x="125" y="635"/>
      <point x="103" y="635" type="curve" smooth="yes"/>
      <point x="75" y="635" type="line"/>
      <point x="75" y="0" type="line"/>
      <point x="118" y="0" type="line"/>
      <point x="118" y="587" type="line"/>
      <point x="106" y="587" type="line"/>
      <point x="298" y="211" type="line"/>
      <point x="324" y="211" type="line"/>
      <point x="527" y="597" type="line"/>
      <point x="507" y="597" type="line"/>
      <point x="507" y="0" type="line"/>
      <point x="552" y="0" type="line"/>
      <point x="552" y="592" type="line" smooth="yes"/>
      <point x="552" y="622"/>
    </contour>
  </outline>
</glyph>
<glyph name="N" format="1">
  <advance width="555"/>
  <unicode hex="004E"/>
  <outline>
    <contour>
      <point x="439" y="59" type="line"/>
      <point x="456" y="73" type="line"/>
      <point x="105" y="635" type="line"/>
      <point x="74" y="635" type="line"/>
      <point x="74" y="0" type="line"/>
      <point x="116" y="0" type="line"/>
      <point x="116" y="576" type="line"/>
      <point x="99" y="562" type="line"/>
      <point x="450" y="0" type="line"/>
      <point x="481" y="0" type="line"/>
      <point x="481" y="635" type="line"/>
      <point x="439" y="635" type="line"/>
    </contour>
    <contour>
      <point x="279" y="615" type="move" name="top"/>
    </contour>
    <contour>
      <point x="278" y="0" type="move" name="bottom"/>
    </contour>
  </outline>
</glyph>
<glyph name="O" format="1">
  <advance width="535"/>
  <unicode hex="004F"/>
  <outline>
    <contour>
      <point x="414" y="598" type="line" smooth="yes"/>
      <point x="418" y="598"/>
      <point x="421" y="596"/>
      <point x="421" y="591" type="curve" smooth="yes"/>
      <point x="421" y="44" type="line" smooth="yes"/>
      <point x="421" y="39"/>
      <point x="418" y="37"/>
      <point x="414" y="37" type="curve" smooth="yes"/>
      <point x="121" y="37" type="line" smooth="yes"/>
      <point x="117" y="37"/>
      <point x="114" y="39"/>
      <point x="114" y="44" type="curve" smooth="yes"/>
      <point x="114" y="591" type="line" smooth="yes"/>
      <point x="114" y="596"/>
      <point x="117" y="598"/>
      <point x="121" y="598" type="curve" smooth="yes"/>
    </contour>
    <contour>
      <point x="65" y="85" type="line" smooth="yes"/>
      <point x="65" y="15"/>
      <point x="95" y="-5"/>
      <point x="165" y="-5" type="curve" smooth="yes"/>
      <point x="370" y="-5" type="line" smooth="yes"/>
      <point x="440" y="-5"/>
      <point x="470" y="15"/>
      <point x="470" y="85" type="curve" smooth="yes"/>
      <point x="470" y="550" type="line" smooth="yes"/>
      <point x="470" y="620"/>
      <point x="440" y="640"/>
      <point x="370" y="640" type="curve" smooth="yes"/>
      <point x="165" y="640" type="line" smooth="yes"/>
      <point x="95" y="640"/>
      <point x="65" y="620"/>
      <point x="65" y="550" type="curve" smooth="yes"/>
    </contour>
  </outline>
</glyph>
<glyph name="P" format="1">
  <advance width="489"/>
  <unicode hex="0050"/>
  <outline>
    <contour>
      <point x="122" y="0" type="line"/>
      <point x="121" y="276" type="line"/>
      <point x="103" y="264" type="line"/>
      <point x="340" y="264" type="line" smooth="yes"/>
      <point x="415" y="264"/>
      <point x="450" y="292"/>
      <point x="450" y="367" type="curve" smooth="yes"/>
      <point x="450" y="535" type="line" smooth="yes"/>
      <point x="450" y="610"/>
      <point x="415" y="639"/>
      <point x="340" y="638" type="curve" smooth="yes"/>
      <point x="75" y="635" type="line"/>
      <point x="75" y="0" type="line"/>
    </contour>
    <contour>
      <point x="121" y="610" type="line"/>
      <point x="111" y="598" type="line"/>
      <point x="389" y="598" type="line" smooth="yes"/>
      <point x="397" y="598"/>
      <point x="401" y="594"/>
      <point x="401" y="586" type="curve" smooth="yes"/>
      <point x="401" y="316" type="line" smooth="yes"/>
      <point x="401" y="308"/>
      <point x="396" y="304"/>
      <point x="389" y="304" type="curve" smooth="yes"/>
      <point x="110" y="304" type="line"/>
      <point x="121" y="291" type="line"/>
    </contour>
  </outline>
</glyph>
<glyph name="R" format="1">
  <advance width="511"/>
  <unicode hex="0052"/>
  <outline>
    <contour>
      <point x="122" y="0" type="line"/>
      <point x="121" y="288" type="line"/>
      <point x="103" y="276" type="line"/>
      <point x="310" y="276" type="line" smooth="yes"/>
      <point x="320" y="276"/>
      <point x="323" y="274"/>
      <point x="326" y="266" type="curve" smooth="yes"/>
      <point x="419" y="0" type="line"/>
      <point x="466" y="0" type="line"/>
      <point x="389" y="222" type="line" smooth="yes"/>
      <point x="375" y="262"/>
      <point x="365" y="280"/>
      <point x="341" y="287" type="curve"/>
      <point x="340" y="276" type="line"/>
      <point x="415" y="276"/>
      <point x="450" y="304"/>
      <point x="450" y="379" type="curve" smooth="yes"/>
      <point x="450" y="535" type="line" smooth="yes"/>
      <point x="450" y="610"/>
      <point x="415" y="639"/>
      <point x="340" y="638" type="curve" smooth="yes"/>
      <point x="75" y="635" type="line"/>
      <point x="75" y="0" type="line"/>
    </contour>
    <contour>
      <point x="121" y="610" type="line"/>
      <point x="111" y="598" type="line"/>
      <point x="389" y="598" type="line" smooth="yes"/>
      <point x="397" y="598"/>
      <point x="401" y="594"/>
      <point x="401" y="586" type="curve" smooth="yes"/>
      <point x="401" y="326" type="line" smooth="yes"/>
      <point x="401" y="318"/>
      <point x="396" y="314"/>
      <point x="389" y="314" type="curve" smooth="yes"/>
      <point x="110" y="314" type="line"/>
      <point x="121" y="301" type="line"/>
    </contour>
    <contour>
      <point x="255" y="615" type="move" name="top"/>
    </contour>
    <contour>
      <point x="256" y="0" type="move" name="bottom"/>
    </contour>
  </outline>
</glyph>
<glyph name="S" format="1">
  <advance width="476"/>
  <unicode hex="0053"/>
  <outline>
    <contour>
      <point x="111" y="340" type="line" smooth="yes"/>
      <point x="103" y="340"/>
      <point x="99" y="344"/>
      <point x="99" y="352" type="curve" smooth="yes"/>
      <point x="99" y="583" type="line" smooth="yes"/>
      <point x="99" y="591"/>
      <point x="104" y="595"/>
      <point x="111" y="595" type="curve" smooth="yes"/>
      <point x="405" y="595" type="line"/>
      <point x="405" y="635" type="line"/>
      <point x="165" y="638" type="line" smooth="yes"/>
      <point x="90" y="639"/>
      <point x="50" y="602"/>
      <point x="50" y="532" type="curve" smooth="yes"/>
      <point x="50" y="392" type="line" smooth="yes"/>
      <point x="50" y="317"/>
      <point x="85" y="298"/>
      <point x="160" y="298" type="curve" smooth="yes"/>
      <point x="365" y="298" type="line" smooth="yes"/>
      <point x="372" y="298"/>
      <point x="377" y="294"/>
      <point x="377" y="286" type="curve" smooth="yes"/>
      <point x="377" y="52" type="line" smooth="yes"/>
      <point x="377" y="44"/>
      <point x="373" y="40"/>
      <point x="365" y="40" type="curve" smooth="yes"/>
      <point x="61" y="40" type="line"/>
      <point x="61" y="0" type="line"/>
      <point x="316" y="-3" type="line" smooth="yes"/>
      <point x="391" y="-4"/>
      <point x="426" y="25"/>
      <point x="426" y="100" type="curve" smooth="yes"/>
      <point x="426" y="244" type="line" smooth="yes"/>
      <point x="426" y="314"/>
      <point x="386" y="340"/>
      <point x="311" y="340" type="curve" smooth="yes"/>
    </contour>
    <contour>
      <point x="242" y="615" type="move" name="top"/>
    </contour>
    <contour>
      <point x="237" y="-2" type="move" name="bottom"/>
    </contour>
  </outline>
</glyph>
<glyph name="T" format="1">
  <advance width="390"/>
  <unicode hex="0054"/>
  <outline>
    <contour>
      <point x="218" y="0" type="line"/>
      <point x="218" y="605" type="line"/>
      <point x="208" y="595" type="line"/>
      <point x="385" y="595" type="line"/>
      <point x="385" y="635" type="line"/>
      <point x="5" y="635" type="line"/>
      <point x="5" y="595" type="line"/>
      <point x="182" y="595" type="line"/>
      <point x="172" y="605" type="line"/>
      <point x="172" y="0" type="line"/>
    </contour>
    <contour>
      <point x="195" y="318" type="move" name="center"/>
    </contour>
    <contour>
      <point x="204" y="0" type="move" name="bottom"/>
    </contour>
    <contour>
      <point x="195" y="615" type="move" name="top"/>
    </contour>
  </outline>
</glyph>
<glyph name="V" format="1">
  <advance width="498"/>
  <unicode hex="0056"/>
  <outline>
    <contour>
      <point x="295" y="0"/>
      <point x="305" y="6"/>
      <point x="328" y="86" type="curve" smooth="yes"/>
      <point x="488" y="635" type="line"/>
      <point x="444" y="635" type="line"/>
      <point x="275" y="47" type="line" smooth="yes"/>
      <point x="274" y="42"/>
      <point x="272" y="40"/>
      <point x="268" y="40" type="curve" smooth="yes"/>
      <point x="219" y="40" type="line"/>
      <point x="58" y="635" type="line"/>
      <point x="12" y="635" type="line"/>
      <point x="185" y="0" type="line"/>
      <point x="232" y="0" type="line" smooth="yes"/>
    </contour>
  </outline>
</glyph>
<glyph name="W" format="1">
  <advance width="737"/>
  <unicode hex="0057"/>
  <outline>
    <contour>
      <point x="291" y="-5" type="line" smooth="yes"/>
      <point x="351" y="-5"/>
      <point x="379" y="25"/>
      <point x="381" y="85" type="curve"/>
      <point x="356" y="85" type="line"/>
      <point x="356" y="25"/>
      <point x="386" y="-5"/>
      <point x="446" y="-5" type="curve" smooth="yes"/>
      <point x="567" y="-5" type="line" smooth="yes"/>
      <point x="637" y="-5"/>
      <point x="667" y="16"/>
      <point x="667" y="86" type="curve" smooth="yes"/>
      <point x="667" y="635" type="line"/>
      <point x="618" y="635" type="line"/>
      <point x="618" y="44" type="line" smooth="yes"/>
      <point x="618" y="39"/>
      <point x="615" y="37"/>
      <point x="611" y="37" type="curve" smooth="yes"/>
      <point x="400" y="37" type="line" smooth="yes"/>
      <point x="396" y="37"/>
      <point x="393" y="38"/>
      <point x="393" y="44" type="curve" smooth="yes"/>
      <point x="393" y="635" type="line"/>
      <point x="344" y="635" type="line"/>
      <point x="344" y="44" type="line" smooth="yes"/>
      <point x="344" y="39"/>
      <point x="341" y="37"/>
      <point x="337" y="37" type="curve" smooth="yes"/>
      <point x="126" y="37" type="line" smooth="yes"/>
      <point x="122" y="37"/>
      <point x="119" y="38"/>
      <point x="119" y="44" type="curve" smooth="yes"/>
      <point x="119" y="635" type="line"/>
      <point x="70" y="635" type="line"/>
      <point x="70" y="84" type="line" smooth="yes"/>
      <point x="70" y="14"/>
      <point x="100" y="-5"/>
      <point x="174" y="-5" type="curve" smooth="yes"/>
    </contour>
  </outline>
</glyph>
<glyph name="X" format="1">
  <advance width="543"/>
  <unicode hex="0058"/>
  <outline>
    <contour>
      <point x="326" y="350" type="line" smooth="yes"/>
      <point x="324" y="345"/>
      <point x="322" y="343"/>
      <point x="317" y="343" type="curve" smooth="yes"/>
      <point x="228" y="343" type="line" smooth="yes"/>
      <point x="223" y="343"/>
      <point x="222" y="345"/>
      <point x="219" y="350" type="curve" smooth="yes"/>
      <point x="78" y="636" type="line"/>
      <point x="25" y="636" type="line"/>
      <point x="145" y="395" type="line" smooth="yes"/>
      <point x="175" y="335"/>
      <point x="183" y="315"/>
      <point x="253" y="315" type="curve" smooth="yes"/>
      <point x="287" y="315" type="line" smooth="yes"/>
      <point x="357" y="315"/>
      <point x="364" y="334"/>
      <point x="394" y="395" type="curve" smooth="yes"/>
      <point x="513" y="635" type="line"/>
      <point x="464" y="635" type="line"/>
    </contour>
    <contour>
      <point x="363" y="312"/>
      <point x="357" y="331"/>
      <point x="287" y="331" type="curve" smooth="yes"/>
      <point x="253" y="331" type="line" smooth="yes"/>
      <point x="183" y="331"/>
      <point x="175" y="310"/>
      <point x="144" y="251" type="curve" smooth="yes"/>
      <point x="15" y="1" type="line"/>
      <point x="65" y="1" type="line"/>
      <point x="216" y="296" type="line" smooth="yes"/>
      <point x="219" y="301"/>
      <point x="220" y="303"/>
      <point x="226" y="303" type="curve" smooth="yes"/>
      <point x="315" y="303" type="line" smooth="yes"/>
      <point x="320" y="303"/>
      <point x="322" y="301"/>
      <point x="324" y="296" type="curve" smooth="yes"/>
      <point x="475" y="0" type="line"/>
      <point x="528" y="0" type="line"/>
      <point x="395" y="251" type="line" smooth="yes"/>
    </contour>
  </outline>
</glyph>
<glyph name="Y" format="1">
  <advance width="508"/>
  <unicode hex="0059"/>
  <outline>
    <contour>
      <point x="300" y="282" type="line" smooth="yes"/>
      <point x="298" y="277"/>
      <point x="296" y="275"/>
      <point x="291" y="275" type="curve" smooth="yes"/>
      <point x="222" y="275" type="line" smooth="yes"/>
      <point x="217" y="275"/>
      <point x="215" y="277"/>
      <point x="213" y="282" type="curve" smooth="yes"/>
      <point x="66" y="636" type="line"/>
      <point x="15" y="636" type="line"/>
      <point x="149" y="313" type="line" smooth="yes"/>
      <point x="174" y="253"/>
      <point x="185" y="235"/>
      <point x="244" y="235" type="curve" smooth="yes"/>
      <point x="267" y="235" type="line" smooth="yes"/>
      <point x="327" y="235"/>
      <point x="335" y="253"/>
      <point x="360" y="313" type="curve" smooth="yes"/>
      <point x="493" y="635" type="line"/>
      <point x="444" y="635" type="line"/>
    </contour>
    <contour>
      <point x="278" y="0" type="line"/>
      <point x="278" y="262" type="line"/>
      <point x="232" y="262" type="line"/>
      <point x="232" y="0" type="line"/>
    </contour>
    <contour>
      <point x="254" y="615" type="move" name="top"/>
    </contour>
  </outline>
</glyph>
<glyph name="Z" format="1">
  <advance width="473"/>
  <unicode hex="005A"/>
  <outline>
    <contour>
      <point x="428" y="38" type="line"/>
      <point x="102" y="38" type="line" smooth="yes"/>
      <point x="96" y="38"/>
      <point x="94" y="43"/>
      <point x="98" y="50" type="curve" smooth="yes"/>
      <point x="430" y="578" type="line"/>
      <point x="430" y="618"/>
      <point x="409" y="635"/>
      <point x="367" y="635" type="curve" smooth="yes"/>
      <point x="63" y="635" type="line"/>
      <point x="63" y="597" type="line"/>
      <point x="378" y="597" type="line" smooth="yes"/>
      <point x="384" y="597"/>
      <point x="387" y="594"/>
      <point x="383" y="587" type="curve" smooth="yes"/>
      <point x="45" y="50" type="line"/>
      <point x="45" y="10"/>
      <point x="70" y="0"/>
      <point x="110" y="0" type="curve" smooth="yes"/>
      <point x="428" y="0" type="line"/>
    </contour>
    <contour>
      <point x="239" y="615" type="move" name="top"/>
    </contour>
  </outline>
</glyph>
<glyph name="backslash" format="1">
  <advance width="368"/>
  <unicode hex="005C"/>
  <outline>
    <contour>
      <point x="316" y="-96" type="line"/>
      <point x="363" y="-96" type="line"/>
      <point x="51" y="675" type="line"/>
      <point x="5" y="675" type="line"/>
    </contour>
  </outline>
</glyph>
<glyph name="asciicircum" format="1">
  <advance width="415"/>
  <unicode hex="005E"/>
  <outline>
    <contour>
      <point x="193" y="675" type="line"/>
      <point x="50" y="387" type="line"/>
      <point x="91" y="387" type="line"/>
      <point x="210" y="633" type="line"/>
      <point x="203" y="633" type="line"/>
      <point x="323" y="387" type="line"/>
      <point x="365" y="387" type="line"/>
      <point x="221" y="675" type="line"/>
    </contour>
  </outline>
</glyph>
<glyph name="underscore" format="1">
  <advance width="432"/>
  <unicode hex="005F"/>
  <outline>
    <contour>
      <point x="412" y="-47" type="line"/>
      <point x="20" y="-47" type="line"/>
      <point x="20" y="-83" type="line"/>
      <point x="412" y="-83" type="line"/>
    </contour>
  </outline>
</glyph>
<glyph name="grave" format="1">
  <advance width="252"/>
  <unicode hex="0060"/>
  <outline>
    <contour>
      <point x="47" y="678" type="line"/>
      <point x="104" y="679" type="line"/>
      <point x="173" y="554" type="line"/>
      <point x="134" y="554" type="line"/>
    </contour>
    <contour>
      <point x="147" y="490" type="move" name="_top"/>
    </contour>
  </outline>
</glyph>
<glyph name="a" format="1">
  <advance width="399"/>
  <unicode hex="0061"/>
  <outline>
    <contour>
      <point x="227" y="-5" type="line" smooth="yes"/>
      <point x="287" y="-5"/>
      <point x="307" y="15"/>
      <point x="307" y="75" type="curve"/>
      <point x="300" y="32" type="line"/>
      <point x="308" y="0" type="line"/>
      <point x="346" y="0" type="line"/>
      <point x="346" y="400" type="line" smooth="yes"/>
      <point x="346" y="470"/>
      <point x="316" y="490"/>
      <point x="246" y="490" type="curve" smooth="yes"/>
      <point x="58" y="490" type="line"/>
      <point x="58" y="453" type="line"/>
      <point x="293" y="453" type="line" smooth="yes"/>
      <point x="297" y="453"/>
      <point x="300" y="451"/>
      <point x="300" y="446" type="curve" smooth="yes"/>
      <point x="300" y="32" type="line"/>
      <point x="88" y="32" type="line" smooth="yes"/>
      <point x="84" y="32"/>
      <point x="81" y="34"/>
      <point x="81" y="39" type="curve" smooth="yes"/>
      <point x="81" y="232" type="line" smooth="yes"/>
      <point x="81" y="237"/>
      <point x="84" y="239"/>
      <point x="88" y="239" type="curve" smooth="yes"/>
      <point x="307" y="239" type="line"/>
      <point x="307" y="275" type="line"/>
      <point x="135" y="275" type="line" smooth="yes"/>
      <point x="65" y="275"/>
      <point x="35" y="255"/>
      <point x="35" y="185" type="curve" smooth="yes"/>
      <point x="35" y="85" type="line" smooth="yes"/>
      <point x="35" y="15"/>
      <point x="65" y="-5"/>
      <point x="135" y="-5" type="curve" smooth="yes"/>
    </contour>
    <contour>
      <point x="346" y="0" type="move" name="ogonek"/>
    </contour>
    <contour>
      <point x="197" y="490" type="move" name="top"/>
    </contour>
  </outline>
</glyph>
<glyph name="b" format="1">
  <advance width="545"/>
  <unicode hex="0062"/>
  <outline>
    <contour>
      <point x="111" y="675" type="line"/>
      <point x="70" y="675" type="line"/>
      <point x="70" y="0" type="line"/>
      <point x="108" y="0" type="line"/>
      <point x="111" y="105" type="line"/>
      <point x="90" y="105" type="line"/>
      <point x="99" y="19"/>
      <point x="136" y="-7"/>
      <point x="278" y="-7" type="curve" smooth="yes"/>
      <point x="462" y="-7"/>
      <point x="493" y="52"/>
      <point x="493" y="250" type="curve" smooth="yes"/>
      <point x="493" y="450"/>
      <point x="461" y="497"/>
      <point x="288" y="497" type="curve" smooth="yes"/>
      <point x="155" y="497"/>
      <point x="104" y="457"/>
      <point x="95" y="371" type="curve"/>
      <point x="111" y="371" type="line"/>
    </contour>
    <contour>
      <point x="111" y="422"/>
      <point x="156" y="462"/>
      <point x="283" y="462" type="curve" smooth="yes"/>
      <point x="414" y="462"/>
      <point x="450" y="449"/>
      <point x="450" y="245" type="curve" smooth="yes"/>
      <point x="450" y="68"/>
      <point x="426" y="28"/>
      <point x="283" y="28" type="curve" smooth="yes"/>
      <point x="147" y="28"/>
      <point x="111" y="47"/>
      <point x="111" y="145" type="curve" smooth="yes"/>
      <point x="111" y="342" type="line" smooth="yes"/>
    </contour>
  </outline>
</glyph>
<glyph name="c" format="1">
  <advance width="324"/>
  <unicode hex="0063"/>
  <outline>
    <contour>
      <point x="306" y="-5" type="line"/>
      <point x="306" y="32" type="line"/>
      <point x="103" y="32" type="line" smooth="yes"/>
      <point x="99" y="32"/>
      <point x="96" y="34"/>
      <point x="96" y="39" type="curve" smooth="yes"/>
      <point x="96" y="451" type="line" smooth="yes"/>
      <point x="96" y="456"/>
      <point x="99" y="458"/>
      <point x="103" y="458" type="curve" smooth="yes"/>
      <point x="306" y="458" type="line"/>
      <point x="306" y="495" type="line"/>
      <point x="150" y="495" type="line" smooth="yes"/>
      <point x="80" y="495"/>
      <point x="50" y="475"/>
      <point x="50" y="405" type="curve" smooth="yes"/>
      <point x="50" y="85" type="line" smooth="yes"/>
      <point x="50" y="15"/>
      <point x="80" y="-5"/>
      <point x="150" y="-5" type="curve" smooth="yes"/>
    </contour>
  </outline>
</glyph>
<glyph name="d" format="1">
  <advance width="420"/>
  <unicode hex="0064"/>
  <outline>
    <contour>
      <point x="315" y="675" type="line"/>
      <point x="315" y="491" type="line"/>
      <point x="150" y="493" type="line" smooth="yes"/>
      <point x="80" y="494"/>
      <point x="50" y="473"/>
      <point x="50" y="403" type="curve" smooth="yes"/>
      <point x="50" y="85" type="line" smooth="yes"/>
      <point x="50" y="15"/>
      <point x="80" y="-5"/>
      <point x="150" y="-5" type="curve" smooth="yes"/>
      <point x="242" y="-5" type="line" smooth="yes"/>
      <point x="302" y="-5"/>
      <point x="322" y="15"/>
      <point x="322" y="75" type="curve"/>
      <point x="315" y="32" type="line"/>
      <point x="323" y="0" type="line"/>
      <point x="360" y="0" type="line"/>
      <point x="360" y="675" type="line"/>
    </contour>
    <contour>
      <point x="315" y="39" type="line" smooth="yes"/>
      <point x="315" y="34"/>
      <point x="312" y="32"/>
      <point x="308" y="32" type="curve" smooth="yes"/>
      <point x="103" y="32" type="line" smooth="yes"/>
      <point x="99" y="32"/>
      <point x="96" y="34"/>
      <point x="96" y="39" type="curve" smooth="yes"/>
      <point x="96" y="450" type="line" smooth="yes"/>
      <point x="96" y="455"/>
      <point x="99" y="457"/>
      <point x="103" y="457" type="curve" smooth="yes"/>
      <point x="322" y="454" type="line"/>
      <point x="315" y="461" type="line"/>
    </contour>
    <contour>
      <point x="210" y="245" type="move" name="center"/>
    </contour>
    <contour>
      <point x="400" y="490" type="move" name="topright"/>
    </contour>
  </outline>
</glyph>
<glyph name="e" format="1">
  <advance width="514"/>
  <unicode hex="0065"/>
  <outline>
    <contour>
      <point x="336" y="-7"/>
      <point x="411" y="6"/>
      <point x="453" y="27" type="curve"/>
      <point x="441" y="57" type="line"/>
      <point x="399" y="40"/>
      <point x="329" y="28"/>
      <point x="272" y="28" type="curve" smooth="yes"/>
      <point x="113" y="28"/>
      <point x="95" y="68"/>
      <point x="95" y="245" type="curve" smooth="yes"/>
      <point x="95" y="417"/>
      <point x="121" y="462"/>
      <point x="262" y="462" type="curve" smooth="yes"/>
      <point x="404" y="462"/>
      <point x="422" y="418"/>
      <point x="422" y="271" type="curve" smooth="yes"/>
      <point x="422" y="242" type="line"/>
      <point x="86" y="242" type="line"/>
      <point x="86" y="208" type="line"/>
      <point x="465" y="208" type="line"/>
      <point x="465" y="271" type="line" smooth="yes"/>
      <point x="465" y="441"/>
      <point x="432" y="497"/>
      <point x="267" y="497" type="curve" smooth="yes"/>
      <point x="85" y="497"/>
      <point x="52" y="433"/>
      <point x="52" y="240" type="curve" smooth="yes"/>
      <point x="52" y="52"/>
      <point x="77" y="-7"/>
      <point x="267" y="-7" type="curve" smooth="yes"/>
    </contour>
  </outline>
</glyph>
<glyph name="f" format="1">
  <advance width="308"/>
  <unicode hex="0066"/>
  <outline>
    <contour>
      <point x="91" y="-2" type="line"/>
      <point x="132" y="-2" type="line"/>
      <point x="132" y="537" type="line" smooth="yes"/>
      <point x="132" y="626"/>
      <point x="164" y="646"/>
      <point x="271" y="646" type="curve" smooth="yes"/>
      <point x="292" y="646"/>
      <point x="310" y="645"/>
      <point x="339" y="642" type="curve"/>
      <point x="343" y="676" type="line"/>
      <point x="312" y="680"/>
      <point x="290" y="682"/>
      <point x="266" y="682" type="curve" smooth="yes"/>
      <point x="134" y="682"/>
      <point x="91" y="651"/>
      <point x="91" y="542" type="curve" smooth="yes"/>
    </contour>
    <contour>
      <point x="25" y="490" type="line"/>
      <point x="25" y="456" type="line"/>
      <point x="328" y="456" type="line"/>
      <point x="328" y="490" type="line"/>
    </contour>
  </outline>
</glyph>
<glyph name="g" format="1">
  <advance width="548"/>
  <unicode hex="0067"/>
  <outline>
    <contour>
      <point x="412" y="-197"/>
      <point x="475" y="-189"/>
      <point x="475" y="-59" type="curve" smooth="yes"/>
      <point x="475" y="490" type="line"/>
      <point x="437" y="490" type="line"/>
      <point x="434" y="368" type="line"/>
      <point x="456" y="368" type="line"/>
      <point x="451" y="468"/>
      <point x="417" y="497"/>
      <point x="267" y="497" type="curve" smooth="yes"/>
      <point x="84" y="497"/>
      <point x="52" y="435"/>
      <point x="52" y="240" type="curve" smooth="yes"/>
      <point x="52" y="43"/>
      <point x="81" y="-7"/>
      <point x="257" y="-7" type="curve" smooth="yes"/>
      <point x="398" y="-7"/>
      <point x="442" y="36"/>
      <point x="448" y="120" type="curve"/>
      <point x="434" y="120" type="line"/>
      <point x="434" y="-54" type="line" smooth="yes"/>
      <point x="434" y="-155"/>
      <point x="401" y="-162"/>
      <point x="274" y="-162" type="curve" smooth="yes"/>
      <point x="212" y="-162"/>
      <point x="143" y="-158"/>
      <point x="97" y="-152" type="curve"/>
      <point x="92" y="-189" type="line"/>
      <point x="134" y="-194"/>
      <point x="196" y="-197"/>
      <point x="257" y="-197" type="curve" smooth="yes"/>
    </contour>
    <contour>
      <point x="128" y="28"/>
      <point x="95" y="44"/>
      <point x="95" y="245" type="curve" smooth="yes"/>
      <point x="95" y="419"/>
      <point x="120" y="462"/>
      <point x="262" y="462" type="curve" smooth="yes"/>
      <point x="398" y="462"/>
      <point x="434" y="443"/>
      <point x="434" y="345" type="curve" smooth="yes"/>
      <point x="434" y="148" type="line" smooth="yes"/>
      <point x="434" y="68"/>
      <point x="392" y="28"/>
      <point x="262" y="28" type="curve" smooth="yes"/>
    </contour>
  </outline>
</glyph>
<glyph name="h" format="1">
  <advance width="423"/>
  <unicode hex="0068"/>
  <outline>
    <contour>
      <point x="178" y="495" type="line" smooth="yes"/>
      <point x="118" y="495"/>
      <point x="93" y="475"/>
      <point x="93" y="415" type="curve"/>
      <point x="105" y="458" type="line"/>
      <point x="105" y="675" type="line"/>
      <point x="60" y="675" type="line"/>
      <point x="60" y="0" type="line"/>
      <point x="105" y="0" type="line"/>
      <point x="105" y="451" type="line" smooth="yes"/>
      <point x="105" y="457"/>
      <point x="108" y="458"/>
      <point x="112" y="458" type="curve" smooth="yes"/>
      <point x="318" y="458" type="line" smooth="yes"/>
      <point x="322" y="458"/>
      <point x="325" y="456"/>
      <point x="325" y="451" type="curve" smooth="yes"/>
      <point x="325" y="0" type="line"/>
      <point x="370" y="0" type="line"/>
      <point x="370" y="405" type="line" smooth="yes"/>
      <point x="370" y="475"/>
      <point x="340" y="495"/>
      <point x="270" y="495" type="curve" smooth="yes"/>
    </contour>
  </outline>
</glyph>
<glyph name="i" format="1">
  <advance width="177"/>
  <unicode hex="0069"/>
  <outline>
    <contour>
      <point x="109" y="0" type="line"/>
      <point x="109" y="490" type="line"/>
      <point x="68" y="490" type="line"/>
      <point x="68" y="0" type="line"/>
    </contour>
    <contour>
      <point x="109" y="609" type="line"/>
      <point x="109" y="662" type="line"/>
      <point x="68" y="662" type="line"/>
      <point x="68" y="609" type="line"/>
    </contour>
  </outline>
</glyph>
<glyph name="j" format="1">
  <advance width="180"/>
  <unicode hex="006A"/>
  <outline>
    <contour>
      <point x="115" y="607" type="line"/>
      <point x="115" y="662" type="line"/>
      <point x="70" y="662" type="line"/>
      <point x="70" y="607" type="line"/>
    </contour>
    <contour>
      <point x="70" y="-156"/>
      <point x="67" y="-158"/>
      <point x="63" y="-158" type="curve" smooth="yes"/>
      <point x="-31" y="-158" type="line"/>
      <point x="-31" y="-195" type="line"/>
      <point x="15" y="-195" type="line" smooth="yes"/>
      <point x="85" y="-195"/>
      <point x="115" y="-175"/>
      <point x="115" y="-105" type="curve" smooth="yes"/>
      <point x="115" y="490" type="line"/>
      <point x="70" y="490" type="line"/>
      <point x="70" y="-151" type="line" smooth="yes"/>
    </contour>
  </outline>
</glyph>
<glyph name="k" format="1">
  <advance width="421"/>
  <unicode hex="006B"/>
  <outline>
    <contour>
      <point x="117" y="0" type="line"/>
      <point x="117" y="675" type="line"/>
      <point x="73" y="675" type="line"/>
      <point x="73" y="0" type="line"/>
    </contour>
    <contour>
      <point x="222" y="261" type="line" smooth="yes"/>
      <point x="292" y="261"/>
      <point x="302" y="275"/>
      <point x="325" y="341" type="curve" smooth="yes"/>
      <point x="377" y="490" type="line"/>
      <point x="334" y="490" type="line"/>
      <point x="264" y="294" type="line" smooth="yes"/>
      <point x="262" y="289"/>
      <point x="261" y="287"/>
      <point x="257" y="287" type="curve" smooth="yes"/>
      <point x="105" y="287" type="line"/>
      <point x="105" y="261" type="line"/>
    </contour>
    <contour>
      <point x="273" y="251" type="line" smooth="yes"/>
      <point x="277" y="251"/>
      <point x="278" y="249"/>
      <point x="280" y="244" type="curve" smooth="yes"/>
      <point x="370" y="0" type="line"/>
      <point x="416" y="0" type="line"/>
      <point x="344" y="197" type="line" smooth="yes"/>
      <point x="320" y="262"/>
      <point x="311" y="277"/>
      <point x="241" y="277" type="curve" smooth="yes"/>
      <point x="105" y="277" type="line"/>
      <point x="105" y="251" type="line"/>
    </contour>
  </outline>
</glyph>
<glyph name="l" format="1">
  <advance width="177"/>
  <unicode hex="006C"/>
  <outline>
    <contour>
      <point x="109" y="0" type="line"/>
      <point x="109" y="675" type="line"/>
      <point x="68" y="675" type="line"/>
      <point x="68" y="0" type="line"/>
    </contour>
  </outline>
</glyph>
<glyph name="m" format="1">
  <advance width="658"/>
  <unicode hex="006D"/>
  <outline>
    <contour>
      <point x="168" y="495" type="line" smooth="yes"/>
      <point x="108" y="495"/>
      <point x="83" y="475"/>
      <point x="83" y="415" type="curve"/>
      <point x="95" y="458" type="line"/>
      <point x="87" y="490" type="line"/>
      <point x="50" y="490" type="line"/>
      <point x="50" y="0" type="line"/>
      <point x="95" y="0" type="line"/>
      <point x="95" y="451" type="line" smooth="yes"/>
      <point x="95" y="457"/>
      <point x="98" y="458"/>
      <point x="102" y="458" type="curve" smooth="yes"/>
      <point x="298" y="458" type="line" smooth="yes"/>
      <point x="302" y="458"/>
      <point x="305" y="456"/>
      <point x="305" y="451" type="curve" smooth="yes"/>
      <point x="305" y="0" type="line"/>
      <point x="350" y="0" type="line"/>
      <point x="350" y="405" type="line" smooth="yes"/>
      <point x="350" y="475"/>
      <point x="320" y="495"/>
      <point x="250" y="495" type="curve" smooth="yes"/>
    </contour>
    <contour>
      <point x="423" y="495" type="line" smooth="yes"/>
      <point x="363" y="495"/>
      <point x="338" y="475"/>
      <point x="338" y="415" type="curve"/>
      <point x="350" y="405" type="line"/>
      <point x="350" y="451" type="line"/>
      <point x="350" y="457"/>
      <point x="353" y="458"/>
      <point x="357" y="458" type="curve" smooth="yes"/>
      <point x="553" y="458" type="line" smooth="yes"/>
      <point x="557" y="458"/>
      <point x="560" y="456"/>
      <point x="560" y="451" type="curve" smooth="yes"/>
      <point x="560" y="0" type="line"/>
      <point x="605" y="0" type="line"/>
      <point x="605" y="405" type="line" smooth="yes"/>
      <point x="605" y="475"/>
      <point x="575" y="495"/>
      <point x="505" y="495" type="curve" smooth="yes"/>
    </contour>
  </outline>
</glyph>
<glyph name="n" format="1">
  <advance width="423"/>
  <unicode hex="006E"/>
  <outline>
    <contour>
      <point x="178" y="495" type="line" smooth="yes"/>
      <point x="118" y="495"/>
      <point x="93" y="475"/>
      <point x="93" y="415" type="curve"/>
      <point x="105" y="458" type="line"/>
      <point x="97" y="490" type="line"/>
      <point x="60" y="490" type="line"/>
      <point x="60" y="0" type="line"/>
      <point x="105" y="0" type="line"/>
      <point x="105" y="451" type="line" smooth="yes"/>
      <point x="105" y="457"/>
      <point x="108" y="458"/>
      <point x="112" y="458" type="curve" smooth="yes"/>
      <point x="318" y="458" type="line" smooth="yes"/>
      <point x="322" y="458"/>
      <point x="325" y="456"/>
      <point x="325" y="451" type="curve" smooth="yes"/>
      <point x="325" y="0" type="line"/>
      <point x="370" y="0" type="line"/>
      <point x="370" y="405" type="line" smooth="yes"/>
      <point x="370" y="475"/>
      <point x="340" y="495"/>
      <point x="270" y="495" type="curve" smooth="yes"/>
    </contour>
    <contour>
      <point x="222" y="490" type="move" name="top"/>
    </contour>
    <contour>
      <point x="212" y="0" type="move" name="bottom"/>
    </contour>
  </outline>
</glyph>
<glyph name="o" format="1">
  <advance width="527"/>
  <unicode hex="006F"/>
  <outline>
    <contour>
      <point x="85" y="497"/>
      <point x="52" y="438"/>
      <point x="52" y="240" type="curve" smooth="yes"/>
      <point x="52" y="35"/>
      <point x="85" y="-7"/>
      <point x="258" y="-7" type="curve" smooth="yes"/>
      <point x="441" y="-7"/>
      <point x="475" y="52"/>
      <point x="475" y="250" type="curve" smooth="yes"/>
      <point x="475" y="453"/>
      <point x="441" y="497"/>
      <point x="268" y="497" type="curve" smooth="yes"/>
    </contour>
    <contour>
      <point x="394" y="462"/>
      <point x="432" y="449"/>
      <point x="432" y="245" type="curve" smooth="yes"/>
      <point x="432" y="62"/>
      <point x="402" y="28"/>
      <point x="263" y="28" type="curve" smooth="yes"/>
      <point x="132" y="28"/>
      <point x="95" y="47"/>
      <point x="95" y="245" type="curve" smooth="yes"/>
      <point x="95" y="422"/>
      <point x="121" y="462"/>
      <point x="263" y="462" type="curve" smooth="yes"/>
    </contour>
  </outline>
</glyph>
<glyph name="p" format="1">
  <advance width="545"/>
  <unicode hex="0070"/>
  <outline>
    <contour>
      <point x="108" y="490" type="line"/>
      <point x="70" y="490" type="line"/>
      <point x="70" y="-190" type="line"/>
      <point x="111" y="-190" type="line"/>
      <point x="111" y="105" type="line"/>
      <point x="91" y="105" type="line"/>
      <point x="100" y="19"/>
      <point x="136" y="-7"/>
      <point x="278" y="-7" type="curve" smooth="yes"/>
      <point x="462" y="-7"/>
      <point x="493" y="52"/>
      <point x="493" y="250" type="curve" smooth="yes"/>
      <point x="493" y="450"/>
      <point x="461" y="497"/>
      <point x="288" y="497" type="curve" smooth="yes"/>
      <point x="155" y="497"/>
      <point x="103" y="457"/>
      <point x="94" y="371" type="curve"/>
      <point x="111" y="371" type="line"/>
    </contour>
    <contour>
      <point x="111" y="422"/>
      <point x="156" y="462"/>
      <point x="283" y="462" type="curve" smooth="yes"/>
      <point x="414" y="462"/>
      <point x="450" y="449"/>
      <point x="450" y="245" type="curve" smooth="yes"/>
      <point x="450" y="68"/>
      <point x="426" y="28"/>
      <point x="283" y="28" type="curve" smooth="yes"/>
      <point x="147" y="28"/>
      <point x="111" y="47"/>
      <point x="111" y="145" type="curve" smooth="yes"/>
      <point x="111" y="342" type="line" smooth="yes"/>
    </contour>
  </outline>
</glyph>
<glyph name="q" format="1">
  <advance width="420"/>
  <unicode hex="0071"/>
  <outline>
    <contour>
      <point x="150" y="493" type="line" smooth="yes"/>
      <point x="80" y="494"/>
      <point x="50" y="473"/>
      <point x="50" y="403" type="curve" smooth="yes"/>
      <point x="50" y="85" type="line" smooth="yes"/>
      <point x="50" y="15"/>
      <point x="80" y="-5"/>
      <point x="150" y="-5" type="curve" smooth="yes"/>
      <point x="242" y="-5" type="line" smooth="yes"/>
      <point x="302" y="-5"/>
      <point x="322" y="15"/>
      <point x="322" y="75" type="curve"/>
      <point x="315" y="32" type="line"/>
      <point x="315" y="-190" type="line"/>
      <point x="360" y="-190" type="line"/>
      <point x="360" y="490" type="line"/>
    </contour>
    <contour>
      <point x="315" y="39" type="line" smooth="yes"/>
      <point x="315" y="34"/>
      <point x="312" y="32"/>
      <point x="308" y="32" type="curve" smooth="yes"/>
      <point x="103" y="32" type="line" smooth="yes"/>
      <point x="99" y="32"/>
      <point x="96" y="34"/>
      <point x="96" y="39" type="curve" smooth="yes"/>
      <point x="96" y="450" type="line" smooth="yes"/>
      <point x="96" y="455"/>
      <point x="99" y="457"/>
      <point x="103" y="457" type="curve" smooth="yes"/>
      <point x="322" y="454" type="line"/>
      <point x="315" y="461" type="line"/>
    </contour>
  </outline>
</glyph>
<glyph name="r" format="1">
  <advance width="302"/>
  <unicode hex="0072"/>
  <outline>
    <contour>
      <point x="111" y="0" type="line"/>
      <point x="111" y="343" type="line" smooth="yes"/>
      <point x="111" y="423"/>
      <point x="153" y="462"/>
      <point x="266" y="462" type="curve" smooth="yes"/>
      <point x="277" y="462"/>
      <point x="284" y="462"/>
      <point x="295" y="462" type="curve"/>
      <point x="297" y="496" type="line"/>
      <point x="288" y="497"/>
      <point x="280" y="497"/>
      <point x="271" y="497" type="curve" smooth="yes"/>
      <point x="153" y="497"/>
      <point x="105" y="456"/>
      <point x="93" y="375" type="curve"/>
      <point x="111" y="375" type="line"/>
      <point x="108" y="490" type="line"/>
      <point x="70" y="490" type="line"/>
      <point x="70" y="0" type="line"/>
    </contour>
  </outline>
</glyph>
<glyph name="s" format="1">
  <advance width="360"/>
  <unicode hex="0073"/>
  <outline>
    <contour>
      <point x="235" y="-5" type="line" smooth="yes"/>
      <point x="305" y="-5"/>
      <point x="335" y="15"/>
      <point x="335" y="85" type="curve" smooth="yes"/>
      <point x="335" y="178" type="line" smooth="yes"/>
      <point x="335" y="248"/>
      <point x="305" y="268"/>
      <point x="235" y="268" type="curve" smooth="yes"/>
      <point x="88" y="268" type="line" smooth="yes"/>
      <point x="84" y="268"/>
      <point x="81" y="270"/>
      <point x="81" y="275" type="curve" smooth="yes"/>
      <point x="81" y="451" type="line" smooth="yes"/>
      <point x="81" y="456"/>
      <point x="84" y="458"/>
      <point x="88" y="458" type="curve" smooth="yes"/>
      <point x="315" y="458" type="line"/>
      <point x="315" y="495" type="line"/>
      <point x="135" y="495" type="line" smooth="yes"/>
      <point x="65" y="495"/>
      <point x="35" y="475"/>
      <point x="35" y="405" type="curve" smooth="yes"/>
      <point x="35" y="322" type="line" smooth="yes"/>
      <point x="35" y="252"/>
      <point x="65" y="232"/>
      <point x="135" y="232" type="curve" smooth="yes"/>
      <point x="282" y="232" type="line" smooth="yes"/>
      <point x="286" y="232"/>
      <point x="289" y="230"/>
      <point x="289" y="225" type="curve" smooth="yes"/>
      <point x="289" y="39" type="line" smooth="yes"/>
      <point x="289" y="34"/>
      <point x="286" y="32"/>
      <point x="282" y="32" type="curve" smooth="yes"/>
      <point x="41" y="32" type="line"/>
      <point x="41" y="-5" type="line"/>
    </contour>
    <contour>
      <point x="184" y="490" type="move" name="top"/>
    </contour>
    <contour>
      <point x="180" y="0" type="move" name="bottom"/>
    </contour>
  </outline>
</glyph>
<glyph name="t" format="1">
  <advance width="254"/>
  <unicode hex="0074"/>
  <outline>
    <contour>
      <point x="254" y="490" type="line"/>
      <point x="124" y="490" type="line"/>
      <point x="134" y="480" type="line"/>
      <point x="134" y="615" type="line"/>
      <point x="89" y="615" type="line"/>
      <point x="89" y="480" type="line"/>
      <point x="99" y="490" type="line"/>
      <point x="24" y="490" type="line"/>
      <point x="24" y="454" type="line"/>
      <point x="99" y="454" type="line"/>
      <point x="89" y="464" type="line"/>
      <point x="89" y="90" type="line" smooth="yes"/>
      <point x="89" y="20"/>
      <point x="119" y="0"/>
      <point x="189" y="0" type="curve" smooth="yes"/>
      <point x="254" y="0" type="line"/>
      <point x="254" y="37" type="line"/>
      <point x="141" y="37" type="line" smooth="yes"/>
      <point x="137" y="37"/>
      <point x="134" y="39"/>
      <point x="134" y="44" type="curve" smooth="yes"/>
      <point x="134" y="464" type="line"/>
      <point x="124" y="454" type="line"/>
      <point x="254" y="454" type="line"/>
    </contour>
    <contour>
      <point x="127" y="245" type="move" name="center"/>
    </contour>
    <contour>
      <point x="166" y="0" type="move" name="bottom"/>
    </contour>
    <contour>
      <point x="234" y="490" type="move" name="topright"/>
    </contour>
  </outline>
</glyph>
<glyph name="u" format="1">
  <advance width="549"/>
  <unicode hex="0075"/>
  <outline>
    <contour>
      <point x="441" y="0" type="line"/>
      <point x="479" y="0" type="line"/>
      <point x="479" y="490" type="line"/>
      <point x="438" y="490" type="line"/>
      <point x="438" y="140" type="line" smooth="yes"/>
      <point x="438" y="68"/>
      <point x="399" y="28"/>
      <point x="270" y="28" type="curve" smooth="yes"/>
      <point x="142" y="28"/>
      <point x="107" y="45"/>
      <point x="107" y="149" type="curve" smooth="yes"/>
      <point x="107" y="490" type="line"/>
      <point x="66" y="490" type="line"/>
      <point x="66" y="144" type="line" smooth="yes"/>
      <point x="66" y="18"/>
      <point x="115" y="-7"/>
      <point x="265" y="-7" type="curve" smooth="yes"/>
      <point x="402" y="-7"/>
      <point x="442" y="34"/>
      <point x="452" y="107" type="curve"/>
      <point x="438" y="107" type="line"/>
    </contour>
  </outline>
</glyph>
<glyph name="v" format="1">
  <advance width="464"/>
  <unicode hex="0076"/>
  <outline>
    <contour>
      <point x="269" y="52" type="line" smooth="yes"/>
      <point x="262" y="32"/>
      <point x="252" y="27"/>
      <point x="232" y="27" type="curve" smooth="yes"/>
      <point x="212" y="27"/>
      <point x="202" y="33"/>
      <point x="195" y="51" type="curve" smooth="yes"/>
      <point x="36" y="495" type="line"/>
      <point x="-5" y="490" type="line"/>
      <point x="158" y="40" type="line" smooth="yes"/>
      <point x="170" y="6"/>
      <point x="187" y="-8"/>
      <point x="229" y="-8" type="curve" smooth="yes"/>
      <point x="273" y="-8"/>
      <point x="291" y="8"/>
      <point x="304" y="42" type="curve" smooth="yes"/>
      <point x="471" y="490" type="line"/>
      <point x="432" y="495" type="line"/>
    </contour>
  </outline>
</glyph>
<glyph name="w" format="1">
  <advance width="665"/>
  <unicode hex="0077"/>
  <outline>
    <contour>
      <point x="255" y="-5" type="line" smooth="yes"/>
      <point x="315" y="-5"/>
      <point x="343" y="25"/>
      <point x="345" y="85" type="curve"/>
      <point x="320" y="85" type="line"/>
      <point x="320" y="25"/>
      <point x="350" y="-5"/>
      <point x="410" y="-5" type="curve" smooth="yes"/>
      <point x="510" y="-5" type="line" smooth="yes"/>
      <point x="580" y="-5"/>
      <point x="610" y="15"/>
      <point x="610" y="85" type="curve" smooth="yes"/>
      <point x="610" y="490" type="line"/>
      <point x="565" y="490" type="line"/>
      <point x="565" y="39" type="line" smooth="yes"/>
      <point x="565" y="34"/>
      <point x="562" y="32"/>
      <point x="558" y="32" type="curve" smooth="yes"/>
      <point x="362" y="32" type="line" smooth="yes"/>
      <point x="358" y="32"/>
      <point x="355" y="33"/>
      <point x="355" y="39" type="curve" smooth="yes"/>
      <point x="355" y="490" type="line"/>
      <point x="310" y="490" type="line"/>
      <point x="310" y="39" type="line" smooth="yes"/>
      <point x="310" y="34"/>
      <point x="307" y="32"/>
      <point x="303" y="32" type="curve" smooth="yes"/>
      <point x="107" y="32" type="line" smooth="yes"/>
      <point x="103" y="32"/>
      <point x="100" y="33"/>
      <point x="100" y="39" type="curve" smooth="yes"/>
      <point x="100" y="490" type="line"/>
      <point x="55" y="490" type="line"/>
      <point x="55" y="75" type="line" smooth="yes"/>
      <point x="55" y="5"/>
      <point x="85" y="-5"/>
      <point x="155" y="-5" type="curve" smooth="yes"/>
    </contour>
  </outline>
</glyph>
<glyph name="x" format="1">
  <advance width="420"/>
  <unicode hex="0078"/>
  <outline>
    <contour>
      <point x="58" y="0" type="line"/>
      <point x="166" y="221" type="line" smooth="yes"/>
      <point x="168" y="226"/>
      <point x="169" y="228"/>
      <point x="173" y="228" type="curve" smooth="yes"/>
      <point x="244" y="228" type="line" smooth="yes"/>
      <point x="248" y="228"/>
      <point x="249" y="226"/>
      <point x="251" y="221" type="curve" smooth="yes"/>
      <point x="364" y="0" type="line"/>
      <point x="413" y="0" type="line"/>
      <point x="321" y="174" type="line" smooth="yes"/>
      <point x="287" y="238"/>
      <point x="286" y="254"/>
      <point x="217" y="254" type="curve"/>
      <point x="217" y="238" type="line"/>
      <point x="273" y="240"/>
      <point x="279" y="258"/>
      <point x="307" y="318" type="curve" smooth="yes"/>
      <point x="389" y="490" type="line"/>
      <point x="346" y="490" type="line"/>
      <point x="244" y="271" type="line" smooth="yes"/>
      <point x="242" y="266"/>
      <point x="241" y="264"/>
      <point x="237" y="264" type="curve" smooth="yes"/>
      <point x="185" y="264" type="line" smooth="yes"/>
      <point x="181" y="264"/>
      <point x="180" y="266"/>
      <point x="178" y="271" type="curve" smooth="yes"/>
      <point x="76" y="490" type="line"/>
      <point x="30" y="490" type="line"/>
      <point x="110" y="318" type="line" smooth="yes"/>
      <point x="138" y="258"/>
      <point x="146" y="240"/>
      <point x="202" y="238" type="curve"/>
      <point x="202" y="254" type="line"/>
      <point x="133" y="254"/>
      <point x="133" y="238"/>
      <point x="100" y="174" type="curve" smooth="yes"/>
      <point x="10" y="0" type="line"/>
    </contour>
  </outline>
</glyph>
<glyph name="y" format="1">
  <advance width="423"/>
  <unicode hex="0079"/>
  <outline>
    <contour>
      <point x="318" y="-156"/>
      <point x="315" y="-158"/>
      <point x="311" y="-158" type="curve" smooth="yes"/>
      <point x="63" y="-158" type="line"/>
      <point x="63" y="-195" type="line"/>
      <point x="263" y="-195" type="line" smooth="yes"/>
      <point x="333" y="-195"/>
      <point x="363" y="-175"/>
      <point x="363" y="-105" type="curve" smooth="yes"/>
      <point x="363" y="490" type="line"/>
      <point x="318" y="490" type="line"/>
      <point x="318" y="32" type="line"/>
      <point x="105" y="32" type="line" smooth="yes"/>
      <point x="101" y="32"/>
      <point x="98" y="34"/>
      <point x="98" y="39" type="curve" smooth="yes"/>
      <point x="98" y="490" type="line"/>
      <point x="53" y="490" type="line"/>
      <point x="53" y="85" type="line" smooth="yes"/>
      <point x="53" y="15"/>
      <point x="83" y="-5"/>
      <point x="153" y="-5" type="curve" smooth="yes"/>
      <point x="245" y="-5" type="line" smooth="yes"/>
      <point x="305" y="-5"/>
      <point x="325" y="15"/>
      <point x="325" y="75" type="curve"/>
      <point x="318" y="32" type="line"/>
      <point x="318" y="-151" type="line" smooth="yes"/>
    </contour>
  </outline>
</glyph>
<glyph name="z" format="1">
  <advance width="355"/>
  <unicode hex="007A"/>
  <outline>
    <contour>
      <point x="325" y="31" type="line"/>
      <point x="78" y="31" type="line" smooth="yes"/>
      <point x="72" y="31"/>
      <point x="70" y="36"/>
      <point x="74" y="43" type="curve" smooth="yes"/>
      <point x="323" y="438" type="line"/>
      <point x="323" y="478"/>
      <point x="299" y="495"/>
      <point x="257" y="495" type="curve" smooth="yes"/>
      <point x="45" y="495" type="line"/>
      <point x="45" y="459" type="line"/>
      <point x="274" y="459" type="line" smooth="yes"/>
      <point x="280" y="459"/>
      <point x="283" y="455"/>
      <point x="279" y="449" type="curve" smooth="yes"/>
      <point x="25" y="45" type="line"/>
      <point x="25" y="5"/>
      <point x="52" y="-5"/>
      <point x="92" y="-5" type="curve" smooth="yes"/>
      <point x="325" y="-5" type="line"/>
    </contour>
  </outline>
</glyph>
<glyph name="braceleft" format="1">
  <advance width="297"/>
  <unicode hex="007B"/>
  <outline>
    <contour>
      <point x="146" y="634" type="line" smooth="yes"/>
      <point x="146" y="639"/>
      <point x="149" y="641"/>
      <point x="153" y="641" type="curve" smooth="yes"/>
      <point x="272" y="641" type="line"/>
      <point x="272" y="680" type="line"/>
      <point x="202" y="680" type="line" smooth="yes"/>
      <point x="132" y="680"/>
      <point x="97" y="655"/>
      <point x="97" y="585" type="curve" smooth="yes"/>
      <point x="97" y="289" type="line" smooth="yes"/>
      <point x="97" y="283"/>
      <point x="94" y="280"/>
      <point x="88" y="280" type="curve" smooth="yes"/>
      <point x="60" y="280" type="line"/>
      <point x="60" y="231" type="line"/>
      <point x="88" y="231" type="line" smooth="yes"/>
      <point x="94" y="231"/>
      <point x="97" y="228"/>
      <point x="97" y="222" type="curve" smooth="yes"/>
      <point x="97" y="-75" type="line" smooth="yes"/>
      <point x="97" y="-145"/>
      <point x="132" y="-170"/>
      <point x="202" y="-170" type="curve" smooth="yes"/>
      <point x="272" y="-170" type="line"/>
      <point x="272" y="-131" type="line"/>
      <point x="153" y="-131" type="line" smooth="yes"/>
      <point x="149" y="-131"/>
      <point x="146" y="-129"/>
      <point x="146" y="-124" type="curve" smooth="yes"/>
      <point x="146" y="185" type="line" smooth="yes"/>
      <point x="146" y="241"/>
      <point x="123" y="258"/>
      <point x="78" y="258" type="curve"/>
      <point x="78" y="253" type="line"/>
      <point x="123" y="253"/>
      <point x="146" y="269"/>
      <point x="146" y="326" type="curve" smooth="yes"/>
    </contour>
  </outline>
</glyph>
<glyph name="bar" format="1">
  <advance width="260"/>
  <unicode hex="007C"/>
  <outline>
    <contour>
      <point x="150" y="-55" type="line"/>
      <point x="150" y="675" type="line"/>
      <point x="110" y="675" type="line"/>
      <point x="110" y="-55" type="line"/>
    </contour>
  </outline>
</glyph>
<glyph name="asciitilde" format="1">
  <advance width="402"/>
  <unicode hex="007E"/>
  <outline>
    <contour>
      <point x="87" y="237" type="line"/>
      <point x="87" y="274"/>
      <point x="100" y="287"/>
      <point x="122" y="287" type="curve" smooth="yes"/>
      <point x="160" y="287"/>
      <point x="234" y="237"/>
      <point x="290" y="237" type="curve" smooth="yes"/>
      <point x="335" y="237"/>
      <point x="357" y="258"/>
      <point x="357" y="328" type="curve"/>
      <point x="316" y="328" type="line"/>
      <point x="316" y="291"/>
      <point x="304" y="278"/>
      <point x="281" y="278" type="curve" smooth="yes"/>
      <point x="242" y="278"/>
      <point x="168" y="328"/>
      <point x="112" y="328" type="curve" smooth="yes"/>
      <point x="67" y="328"/>
      <point x="45" y="306"/>
      <point x="45" y="237" type="curve"/>
    </contour>
  </outline>
</glyph>
<glyph name="cent" format="1">
  <advance width="329"/>
  <unicode hex="00A2"/>
  <outline>
    <contour>
      <point x="311" y="60" type="line"/>
      <point x="311" y="97" type="line"/>
      <point x="103" y="97" type="line" smooth="yes"/>
      <point x="99" y="97"/>
      <point x="96" y="99"/>
      <point x="96" y="104" type="curve" smooth="yes"/>
      <point x="96" y="506" type="line" smooth="yes"/>
      <point x="96" y="511"/>
      <point x="99" y="513"/>
      <point x="103" y="513" type="curve" smooth="yes"/>
      <point x="311" y="513" type="line"/>
      <point x="311" y="550" type="line"/>
      <point x="150" y="550" type="line" smooth="yes"/>
      <point x="80" y="550"/>
      <point x="50" y="530"/>
      <point x="50" y="460" type="curve" smooth="yes"/>
      <point x="50" y="150" type="line" smooth="yes"/>
      <point x="50" y="80"/>
      <point x="80" y="60"/>
      <point x="150" y="60" type="curve" smooth="yes"/>
    </contour>
    <contour>
      <point x="169" y="540" type="line"/>
      <point x="212" y="540" type="line"/>
      <point x="212" y="625" type="line"/>
      <point x="169" y="625" type="line"/>
    </contour>
    <contour>
      <point x="169" y="-15" type="line"/>
      <point x="212" y="-15" type="line"/>
      <point x="212" y="70" type="line"/>
      <point x="169" y="70" type="line"/>
    </contour>
  </outline>
</glyph>
<glyph name="sterling" format="1">
  <advance width="422"/>
  <unicode hex="00A3"/>
  <outline>
    <contour>
      <point x="387" y="0" type="line"/>
      <point x="387" y="41" type="line"/>
      <point x="127" y="41" type="line"/>
      <point x="127" y="37" type="line"/>
      <point x="152" y="37"/>
      <point x="157" y="53"/>
      <point x="157" y="73" type="curve" smooth="yes"/>
      <point x="157" y="300" type="line"/>
      <point x="147" y="290" type="line"/>
      <point x="346" y="290" type="line"/>
      <point x="346" y="328" type="line"/>
      <point x="147" y="328" type="line"/>
      <point x="157" y="314" type="line"/>
      <point x="157" y="552" type="line" smooth="yes"/>
      <point x="157" y="557"/>
      <point x="160" y="559"/>
      <point x="164" y="559" type="curve" smooth="yes"/>
      <point x="382" y="559" type="line"/>
      <point x="382" y="600" type="line"/>
      <point x="210" y="600" type="line" smooth="yes"/>
      <point x="140" y="600"/>
      <point x="110" y="580"/>
      <point x="110" y="510" type="curve" smooth="yes"/>
      <point x="110" y="318" type="line"/>
      <point x="120" y="328" type="line"/>
      <point x="45" y="328" type="line"/>
      <point x="45" y="290" type="line"/>
      <point x="120" y="290" type="line"/>
      <point x="110" y="300" type="line"/>
      <point x="110" y="49" type="line" smooth="yes"/>
      <point x="110" y="43"/>
      <point x="108" y="41"/>
      <point x="102" y="41" type="curve" smooth="yes"/>
      <point x="45" y="41" type="line"/>
      <point x="45" y="0" type="line"/>
    </contour>
  </outline>
</glyph>
<glyph name="currency" format="1">
  <advance width="564"/>
  <unicode hex="00A4"/>
  <outline>
    <contour>
      <point x="386" y="441" type="line" smooth="yes"/>
      <point x="390" y="441"/>
      <point x="393" y="439"/>
      <point x="393" y="434" type="curve" smooth="yes"/>
      <point x="393" y="177" type="line" smooth="yes"/>
      <point x="393" y="172"/>
      <point x="390" y="170"/>
      <point x="386" y="170" type="curve" smooth="yes"/>
      <point x="184" y="170" type="line" smooth="yes"/>
      <point x="180" y="170"/>
      <point x="177" y="172"/>
      <point x="177" y="177" type="curve" smooth="yes"/>
      <point x="177" y="434" type="line" smooth="yes"/>
      <point x="177" y="439"/>
      <point x="180" y="441"/>
      <point x="184" y="441" type="curve" smooth="yes"/>
    </contour>
    <contour>
      <point x="131" y="218" type="line" smooth="yes"/>
      <point x="131" y="148"/>
      <point x="161" y="131"/>
      <point x="228" y="131" type="curve" smooth="yes"/>
      <point x="342" y="131" type="line" smooth="yes"/>
      <point x="409" y="131"/>
      <point x="439" y="148"/>
      <point x="439" y="218" type="curve" smooth="yes"/>
      <point x="439" y="393" type="line" smooth="yes"/>
      <point x="439" y="463"/>
      <point x="409" y="480"/>
      <point x="342" y="480" type="curve" smooth="yes"/>
      <point x="228" y="480" type="line" smooth="yes"/>
      <point x="161" y="480"/>
      <point x="131" y="463"/>
      <point x="131" y="393" type="curve" smooth="yes"/>
    </contour>
    <contour>
      <point x="395" y="468" type="line"/>
      <point x="424" y="439" type="line"/>
      <point x="509" y="524" type="line"/>
      <point x="480" y="553" type="line"/>
    </contour>
    <contour>
      <point x="55" y="89" type="line"/>
      <point x="84" y="60" type="line"/>
      <point x="169" y="145" type="line"/>
      <point x="140" y="174" type="line"/>
    </contour>
    <contour>
      <point x="424" y="174" type="line"/>
      <point x="395" y="145" type="line"/>
      <point x="480" y="60" type="line"/>
      <point x="509" y="89" type="line"/>
    </contour>
    <contour>
      <point x="88" y="550" type="line"/>
      <point x="59" y="521" type="line"/>
      <point x="140" y="439" type="line"/>
      <point x="169" y="468" type="line"/>
    </contour>
  </outline>
</glyph>
<glyph name="yen" format="1">
  <advance width="522"/>
  <unicode hex="00A5"/>
  <outline>
    <contour>
      <point x="302" y="272" type="line" smooth="yes"/>
      <point x="300" y="267"/>
      <point x="298" y="265"/>
      <point x="293" y="265" type="curve" smooth="yes"/>
      <point x="234" y="265" type="line" smooth="yes"/>
      <point x="229" y="265"/>
      <point x="227" y="267"/>
      <point x="225" y="272" type="curve" smooth="yes"/>
      <point x="86" y="601" type="line"/>
      <point x="35" y="601" type="line"/>
      <point x="163" y="303" type="line" smooth="yes"/>
      <point x="186" y="250"/>
      <point x="196" y="234"/>
      <point x="239" y="231" type="curve"/>
      <point x="239" y="0" type="line"/>
      <point x="285" y="0" type="line"/>
      <point x="285" y="231" type="line"/>
      <point x="329" y="234"/>
      <point x="337" y="250"/>
      <point x="360" y="303" type="curve" smooth="yes"/>
      <point x="487" y="600" type="line"/>
      <point x="438" y="600" type="line"/>
    </contour>
    <contour>
      <point x="248" y="130" type="line"/>
      <point x="248" y="166" type="line"/>
      <point x="103" y="166" type="line"/>
      <point x="103" y="130" type="line"/>
    </contour>
    <contour>
      <point x="248" y="229" type="line"/>
      <point x="248" y="265" type="line"/>
      <point x="103" y="265" type="line"/>
      <point x="103" y="229" type="line"/>
    </contour>
    <contour>
      <point x="422" y="130" type="line"/>
      <point x="422" y="166" type="line"/>
      <point x="277" y="166" type="line"/>
      <point x="277" y="130" type="line"/>
    </contour>
    <contour>
      <point x="422" y="229" type="line"/>
      <point x="422" y="265" type="line"/>
      <point x="277" y="265" type="line"/>
      <point x="277" y="229" type="line"/>
    </contour>
  </outline>
</glyph>
<glyph name="brokenbar" format="1">
  <advance width="280"/>
  <unicode hex="00A6"/>
  <outline>
    <contour>
      <point x="160" y="-55" type="line"/>
      <point x="160" y="225" type="line"/>
      <point x="120" y="225" type="line"/>
      <point x="120" y="-55" type="line"/>
    </contour>
    <contour>
      <point x="160" y="395" type="line"/>
      <point x="160" y="675" type="line"/>
      <point x="120" y="675" type="line"/>
      <point x="120" y="395" type="line"/>
    </contour>
  </outline>
</glyph>
<glyph name="section" format="1">
  <advance width="435"/>
  <unicode hex="00A7"/>
  <outline>
    <contour>
      <point x="346" y="-87"/>
      <point x="385" y="-50"/>
      <point x="385" y="20" type="curve" smooth="yes"/>
      <point x="385" y="239" type="line" smooth="yes"/>
      <point x="385" y="299"/>
      <point x="365" y="309"/>
      <point x="311" y="332" type="curve" smooth="yes"/>
      <point x="111" y="417" type="line" smooth="yes"/>
      <point x="102" y="421"/>
      <point x="98" y="425"/>
      <point x="98" y="435" type="curve" smooth="yes"/>
      <point x="98" y="583" type="line" smooth="yes"/>
      <point x="98" y="591"/>
      <point x="103" y="595"/>
      <point x="110" y="595" type="curve" smooth="yes"/>
      <point x="372" y="595" type="line"/>
      <point x="372" y="635" type="line"/>
      <point x="164" y="638" type="line" smooth="yes"/>
      <point x="89" y="639"/>
      <point x="50" y="602"/>
      <point x="50" y="532" type="curve" smooth="yes"/>
      <point x="50" y="313" type="line" smooth="yes"/>
      <point x="50" y="253"/>
      <point x="70" y="243"/>
      <point x="124" y="220" type="curve" smooth="yes"/>
      <point x="324" y="135" type="line" smooth="yes"/>
      <point x="333" y="131"/>
      <point x="337" y="127"/>
      <point x="337" y="117" type="curve" smooth="yes"/>
      <point x="337" y="-31" type="line" smooth="yes"/>
      <point x="337" y="-39"/>
      <point x="332" y="-43"/>
      <point x="325" y="-43" type="curve" smooth="yes"/>
      <point x="63" y="-43" type="line"/>
      <point x="63" y="-83" type="line"/>
      <point x="271" y="-86" type="line" smooth="yes"/>
    </contour>
    <contour>
      <point x="343" y="175" type="line"/>
      <point x="116" y="272" type="line" smooth="yes"/>
      <point x="99" y="279"/>
      <point x="98" y="285"/>
      <point x="98" y="309" type="curve" smooth="yes"/>
      <point x="98" y="380" type="line"/>
      <point x="93" y="377" type="line"/>
      <point x="319" y="280" type="line" smooth="yes"/>
      <point x="336" y="273"/>
      <point x="337" y="267"/>
      <point x="337" y="243" type="curve" smooth="yes"/>
      <point x="337" y="172" type="line"/>
    </contour>
  </outline>
</glyph>
<glyph name="dieresis" format="1">
  <advance width="322"/>
  <unicode hex="00A8"/>
  <outline>
    <contour>
      <point x="104" y="581" type="line"/>
      <point x="104" y="651" type="line"/>
      <point x="50" y="651" type="line"/>
      <point x="50" y="581" type="line"/>
    </contour>
    <contour>
      <point x="272" y="581" type="line"/>
      <point x="272" y="651" type="line"/>
      <point x="218" y="651" type="line"/>
      <point x="218" y="581" type="line"/>
    </contour>
    <contour>
      <point x="161" y="490" type="move" name="_top"/>
    </contour>
  </outline>
</glyph>
<glyph name="copyright" format="1">
  <advance width="509"/>
  <unicode hex="00A9"/>
  <outline>
    <contour>
      <point x="384" y="606" type="line" smooth="yes"/>
      <point x="388" y="606"/>
      <point x="391" y="604"/>
      <point x="391" y="599" type="curve" smooth="yes"/>
      <point x="391" y="227" type="line" smooth="yes"/>
      <point x="391" y="222"/>
      <point x="388" y="220"/>
      <point x="384" y="220" type="curve" smooth="yes"/>
      <point x="125" y="220" type="line" smooth="yes"/>
      <point x="121" y="220"/>
      <point x="118" y="222"/>
      <point x="118" y="227" type="curve" smooth="yes"/>
      <point x="118" y="599" type="line" smooth="yes"/>
      <point x="118" y="604"/>
      <point x="121" y="606"/>
      <point x="125" y="606" type="curve" smooth="yes"/>
    </contour>
    <contour>
      <point x="75" y="273" type="line" smooth="yes"/>
      <point x="75" y="206"/>
      <point x="102" y="186"/>
      <point x="172" y="186" type="curve" smooth="yes"/>
      <point x="337" y="186" type="line" smooth="yes"/>
      <point x="407" y="186"/>
      <point x="434" y="206"/>
      <point x="434" y="273" type="curve" smooth="yes"/>
      <point x="434" y="553" type="line" smooth="yes"/>
      <point x="434" y="620"/>
      <point x="407" y="640"/>
      <point x="337" y="640" type="curve" smooth="yes"/>
      <point x="172" y="640" type="line" smooth="yes"/>
      <point x="102" y="640"/>
      <point x="75" y="620"/>
      <point x="75" y="553" type="curve" smooth="yes"/>
    </contour>
    <contour>
      <point x="350" y="256" type="line"/>
      <point x="350" y="290" type="line"/>
      <point x="212" y="290" type="line" smooth="yes"/>
      <point x="208" y="290"/>
      <point x="205" y="292"/>
      <point x="205" y="297" type="curve" smooth="yes"/>
      <point x="205" y="529" type="line" smooth="yes"/>
      <point x="205" y="534"/>
      <point x="208" y="536"/>
      <point x="212" y="536" type="curve" smooth="yes"/>
      <point x="350" y="536" type="line"/>
      <point x="350" y="570" type="line"/>
      <point x="256" y="570" type="line" smooth="yes"/>
      <point x="190" y="570"/>
      <point x="162" y="551"/>
      <point x="162" y="484" type="curve" smooth="yes"/>
      <point x="162" y="342" type="line" smooth="yes"/>
      <point x="162" y="276"/>
      <point x="190" y="256"/>
      <point x="256" y="256" type="curve" smooth="yes"/>
    </contour>
  </outline>
</glyph>
<glyph name="registered" format="1">
  <advance width="519"/>
  <unicode hex="00AE"/>
  <outline>
    <contour>
      <point x="394" y="606" type="line" smooth="yes"/>
      <point x="398" y="606"/>
      <point x="401" y="604"/>
      <point x="401" y="599" type="curve" smooth="yes"/>
      <point x="401" y="227" type="line" smooth="yes"/>
      <point x="401" y="222"/>
      <point x="398" y="220"/>
      <point x="394" y="220" type="curve" smooth="yes"/>
      <point x="125" y="220" type="line" smooth="yes"/>
      <point x="121" y="220"/>
      <point x="118" y="222"/>
      <point x="118" y="227" type="curve" smooth="yes"/>
      <point x="118" y="599" type="line" smooth="yes"/>
      <point x="118" y="604"/>
      <point x="121" y="606"/>
      <point x="125" y="606" type="curve" smooth="yes"/>
    </contour>
    <contour>
      <point x="75" y="273" type="line" smooth="yes"/>
      <point x="75" y="206"/>
      <point x="102" y="186"/>
      <point x="172" y="186" type="curve" smooth="yes"/>
      <point x="347" y="186" type="line" smooth="yes"/>
      <point x="417" y="186"/>
      <point x="444" y="206"/>
      <point x="444" y="273" type="curve" smooth="yes"/>
      <point x="444" y="553" type="line" smooth="yes"/>
      <point x="444" y="620"/>
      <point x="417" y="640"/>
      <point x="347" y="640" type="curve" smooth="yes"/>
      <point x="172" y="640" type="line" smooth="yes"/>
      <point x="102" y="640"/>
      <point x="75" y="620"/>
      <point x="75" y="553" type="curve" smooth="yes"/>
    </contour>
    <contour>
      <point x="203" y="246" type="line"/>
      <point x="202" y="391" type="line"/>
      <point x="184" y="379" type="line"/>
      <point x="274" y="379" type="line" smooth="yes"/>
      <point x="284" y="379"/>
      <point x="288" y="376"/>
      <point x="290" y="369" type="curve" smooth="yes"/>
      <point x="330" y="246" type="line"/>
      <point x="371" y="246" type="line"/>
      <point x="346" y="322" type="line" smooth="yes"/>
      <point x="331" y="368"/>
      <point x="326" y="385"/>
      <point x="293" y="390" type="curve"/>
      <point x="293" y="379" type="line"/>
      <point x="337" y="379"/>
      <point x="367" y="407"/>
      <point x="367" y="468" type="curve" smooth="yes"/>
      <point x="367" y="486" type="line" smooth="yes"/>
      <point x="367" y="545"/>
      <point x="338" y="575"/>
      <point x="273" y="573" type="curve" smooth="yes"/>
      <point x="160" y="570" type="line"/>
      <point x="160" y="246" type="line"/>
    </contour>
    <contour>
      <point x="202" y="550" type="line"/>
      <point x="192" y="538" type="line"/>
      <point x="312" y="538" type="line" smooth="yes"/>
      <point x="320" y="538"/>
      <point x="324" y="534"/>
      <point x="324" y="526" type="curve" smooth="yes"/>
      <point x="324" y="426" type="line" smooth="yes"/>
      <point x="324" y="418"/>
      <point x="319" y="414"/>
      <point x="312" y="414" type="curve" smooth="yes"/>
      <point x="191" y="414" type="line"/>
      <point x="202" y="401" type="line"/>
    </contour>
  </outline>
</glyph>
<glyph name="degree" format="1">
  <advance width="276"/>
  <unicode hex="00B0"/>
  <outline>
    <contour>
      <point x="35" y="451" type="line" smooth="yes"/>
      <point x="35" y="405"/>
      <point x="57" y="382"/>
      <point x="112" y="382" type="curve" smooth="yes"/>
      <point x="163" y="382" type="line" smooth="yes"/>
      <point x="218" y="382"/>
      <point x="241" y="405"/>
      <point x="241" y="451" type="curve" smooth="yes"/>
      <point x="241" y="571" type="line" smooth="yes"/>
      <point x="241" y="618"/>
      <point x="218" y="640"/>
      <point x="163" y="640" type="curve" smooth="yes"/>
      <point x="112" y="640" type="line" smooth="yes"/>
      <point x="57" y="640"/>
      <point x="35" y="618"/>
      <point x="35" y="571" type="curve" smooth="yes"/>
    </contour>
    <contour>
      <point x="194" y="606" type="line" smooth="yes"/>
      <point x="198" y="606"/>
      <point x="201" y="604"/>
      <point x="201" y="599" type="curve" smooth="yes"/>
      <point x="201" y="423" type="line" smooth="yes"/>
      <point x="201" y="418"/>
      <point x="198" y="416"/>
      <point x="194" y="416" type="curve" smooth="yes"/>
      <point x="82" y="416" type="line" smooth="yes"/>
      <point x="78" y="416"/>
      <point x="75" y="418"/>
      <point x="75" y="423" type="curve" smooth="yes"/>
      <point x="75" y="599" type="line" smooth="yes"/>
      <point x="75" y="604"/>
      <point x="78" y="606"/>
      <point x="82" y="606" type="curve" smooth="yes"/>
    </contour>
  </outline>
</glyph>
<glyph name="twosuperior" format="1">
  <advance width="312"/>
  <unicode hex="00B2"/>
  <outline>
    <contour>
      <point x="53" y="411"/>
      <point x="41" y="407"/>
      <point x="41" y="370" type="curve" smooth="yes"/>
      <point x="41" y="249" type="line"/>
      <point x="266" y="249" type="line"/>
      <point x="266" y="281" type="line"/>
      <point x="81" y="281" type="line"/>
      <point x="81" y="368" type="line" smooth="yes"/>
      <point x="81" y="382"/>
      <point x="82" y="385"/>
      <point x="92" y="390" type="curve" smooth="yes"/>
      <point x="225" y="452" type="line" smooth="yes"/>
      <point x="257" y="467"/>
      <point x="266" y="477"/>
      <point x="266" y="506" type="curve" smooth="yes"/>
      <point x="266" y="573" type="line" smooth="yes"/>
      <point x="266" y="615"/>
      <point x="242" y="639"/>
      <point x="196" y="638" type="curve" smooth="yes"/>
      <point x="52" y="635" type="line"/>
      <point x="52" y="603" type="line"/>
      <point x="218" y="603" type="line" smooth="yes"/>
      <point x="223" y="603"/>
      <point x="226" y="601"/>
      <point x="226" y="596" type="curve" smooth="yes"/>
      <point x="226" y="499" type="line" smooth="yes"/>
      <point x="226" y="493"/>
      <point x="223" y="492"/>
      <point x="217" y="489" type="curve" smooth="yes"/>
      <point x="86" y="427" type="line" smooth="yes"/>
    </contour>
  </outline>
</glyph>
<glyph name="threesuperior" format="1">
  <advance width="332"/>
  <unicode hex="00B3"/>
  <outline>
    <contour>
      <point x="228" y="248"/>
      <point x="252" y="269"/>
      <point x="252" y="312" type="curve" smooth="yes"/>
      <point x="252" y="400" type="line" smooth="yes"/>
      <point x="252" y="445"/>
      <point x="230" y="457"/>
      <point x="185" y="456" type="curve"/>
      <point x="179" y="444" type="line"/>
      <point x="224" y="444"/>
      <point x="249" y="458"/>
      <point x="249" y="501" type="curve" smooth="yes"/>
      <point x="249" y="575" type="line" smooth="yes"/>
      <point x="249" y="621"/>
      <point x="228" y="639"/>
      <point x="182" y="638" type="curve" smooth="yes"/>
      <point x="28" y="635" type="line"/>
      <point x="28" y="603" type="line"/>
      <point x="201" y="603" type="line" smooth="yes"/>
      <point x="206" y="603"/>
      <point x="209" y="601"/>
      <point x="209" y="596" type="curve" smooth="yes"/>
      <point x="209" y="474" type="line" smooth="yes"/>
      <point x="209" y="470"/>
      <point x="206" y="467"/>
      <point x="201" y="467" type="curve" smooth="yes"/>
      <point x="59" y="467" type="line"/>
      <point x="59" y="435" type="line"/>
      <point x="205" y="435" type="line" smooth="yes"/>
      <point x="209" y="435"/>
      <point x="212" y="433"/>
      <point x="212" y="428" type="curve" smooth="yes"/>
      <point x="212" y="288" type="line" smooth="yes"/>
      <point x="212" y="284"/>
      <point x="209" y="281"/>
      <point x="205" y="281" type="curve" smooth="yes"/>
      <point x="25" y="281" type="line"/>
      <point x="25" y="249" type="line"/>
      <point x="182" y="248" type="line" smooth="yes"/>
    </contour>
  </outline>
</glyph>
<glyph name="acute" format="1">
  <advance width="250"/>
  <unicode hex="00B4"/>
  <outline>
    <contour>
      <point x="62" y="554" type="line"/>
      <point x="122" y="679" type="line"/>
      <point x="178" y="678" type="line"/>
      <point x="99" y="554" type="line"/>
    </contour>
    <contour>
      <point x="86" y="490" type="move" name="_top"/>
    </contour>
  </outline>
</glyph>
<glyph name="cedilla" format="1">
  <advance width="248"/>
  <unicode hex="00B8"/>
  <outline>
    <contour>
      <point x="162" y="-153" type="line" smooth="yes"/>
      <point x="162" y="-158"/>
      <point x="159" y="-160"/>
      <point x="155" y="-160" type="curve" smooth="yes"/>
      <point x="58" y="-160" type="line"/>
      <point x="58" y="-200" type="line"/>
      <point x="117" y="-200" type="line" smooth="yes"/>
      <point x="176" y="-200"/>
      <point x="206" y="-175"/>
      <point x="206" y="-120" type="curve" smooth="yes"/>
      <point x="206" y="-118" type="line" smooth="yes"/>
      <point x="206" y="-70"/>
      <point x="177" y="-54"/>
      <point x="126" y="-54" type="curve" smooth="yes"/>
      <point x="111" y="-54" type="line"/>
      <point x="123" y="4" type="line"/>
      <point x="93" y="8" type="line"/>
      <point x="71" y="-89" type="line"/>
      <point x="155" y="-89" type="line" smooth="yes"/>
      <point x="159" y="-89"/>
      <point x="162" y="-91"/>
      <point x="162" y="-96" type="curve" smooth="yes"/>
    </contour>
    <contour>
      <point x="124" y="0" type="move" name="_bottom"/>
    </contour>
  </outline>
</glyph>
<glyph name="onesuperior" format="1">
  <advance width="306"/>
  <unicode hex="00B9"/>
  <outline>
    <contour>
      <point x="274" y="281" type="line"/>
      <point x="44" y="281" type="line"/>
      <point x="44" y="249" type="line"/>
      <point x="274" y="249" type="line"/>
    </contour>
    <contour>
      <point x="34" y="556" type="line"/>
      <point x="53" y="528" type="line"/>
      <point x="157" y="596" type="line"/>
      <point x="151" y="599" type="line"/>
      <point x="151" y="249" type="line"/>
      <point x="191" y="249" type="line"/>
      <point x="191" y="635" type="line"/>
      <point x="152" y="635" type="line"/>
    </contour>
  </outline>
</glyph>
<glyph name="ordmasculine" format="1">
  <advance width="338"/>
  <unicode hex="00BA"/>
  <outline>
    <contour>
      <point x="244" y="633" type="line" smooth="yes"/>
      <point x="248" y="633"/>
      <point x="251" y="631"/>
      <point x="251" y="626" type="curve" smooth="yes"/>
      <point x="251" y="351" type="line" smooth="yes"/>
      <point x="251" y="346"/>
      <point x="248" y="344"/>
      <point x="244" y="344" type="curve" smooth="yes"/>
      <point x="94" y="344" type="line" smooth="yes"/>
      <point x="90" y="344"/>
      <point x="87" y="346"/>
      <point x="87" y="351" type="curve" smooth="yes"/>
      <point x="87" y="626" type="line" smooth="yes"/>
      <point x="87" y="631"/>
      <point x="90" y="633"/>
      <point x="94" y="633" type="curve" smooth="yes"/>
    </contour>
    <contour>
      <point x="45" y="400" type="line" smooth="yes"/>
      <point x="45" y="330"/>
      <point x="75" y="310"/>
      <point x="141" y="310" type="curve" smooth="yes"/>
      <point x="197" y="310" type="line" smooth="yes"/>
      <point x="263" y="310"/>
      <point x="293" y="330"/>
      <point x="293" y="400" type="curve" smooth="yes"/>
      <point x="293" y="577" type="line" smooth="yes"/>
      <point x="293" y="647"/>
      <point x="263" y="667"/>
      <point x="197" y="667" type="curve" smooth="yes"/>
      <point x="141" y="667" type="line" smooth="yes"/>
      <point x="75" y="667"/>
      <point x="45" y="647"/>
      <point x="45" y="577" type="curve" smooth="yes"/>
    </contour>
  </outline>
</glyph>
<glyph name="AE" format="1">
  <advance width="753"/>
  <unicode hex="00C6"/>
  <outline>
    <contour>
      <point x="51" y="0" type="line"/>
      <point x="142" y="210" type="line"/>
      <point x="128" y="200" type="line"/>
      <point x="390" y="200" type="line"/>
      <point x="380" y="210" type="line"/>
      <point x="380" y="0" type="line"/>
      <point x="713" y="0" type="line"/>
      <point x="713" y="40" type="line"/>
      <point x="416" y="40" type="line"/>
      <point x="426" y="30" type="line"/>
      <point x="426" y="310" type="line"/>
      <point x="416" y="300" type="line"/>
      <point x="692" y="300" type="line"/>
      <point x="692" y="340" type="line"/>
      <point x="416" y="340" type="line"/>
      <point x="426" y="329" type="line"/>
      <point x="426" y="605" type="line"/>
      <point x="416" y="595" type="line"/>
      <point x="708" y="595" type="line"/>
      <point x="708" y="635" type="line"/>
      <point x="350" y="635" type="line" smooth="yes"/>
      <point x="282" y="635"/>
      <point x="277" y="620"/>
      <point x="248" y="554" type="curve" smooth="yes"/>
      <point x="4" y="0" type="line"/>
    </contour>
    <contour>
      <point x="307" y="588" type="line" smooth="yes"/>
      <point x="309" y="593"/>
      <point x="311" y="595"/>
      <point x="316" y="595" type="curve" smooth="yes"/>
      <point x="390" y="595" type="line"/>
      <point x="380" y="605" type="line"/>
      <point x="380" y="230" type="line"/>
      <point x="390" y="240" type="line"/>
      <point x="145" y="240" type="line"/>
      <point x="151" y="230" type="line"/>
    </contour>
  </outline>
</glyph>
<glyph name="Oslash" format="1">
  <advance width="535"/>
  <unicode hex="00D8"/>
  <outline>
    <contour>
      <point x="427" y="680" type="line"/>
      <point x="71" y="-48" type="line"/>
      <point x="111" y="-48" type="line"/>
      <point x="467" y="680" type="line"/>
    </contour>
    <component base="O"/>
  </outline>
</glyph>
<glyph name="ae" format="1">
  <advance width="656"/>
  <unicode hex="00E6"/>
  <outline>
    <contour>
      <point x="601" y="-5" type="line"/>
      <point x="601" y="32" type="line"/>
      <point x="353" y="32" type="line" smooth="yes"/>
      <point x="349" y="32"/>
      <point x="346" y="34"/>
      <point x="346" y="39" type="curve" smooth="yes"/>
      <point x="346" y="451" type="line" smooth="yes"/>
      <point x="346" y="456"/>
      <point x="349" y="458"/>
      <point x="353" y="458" type="curve" smooth="yes"/>
      <point x="558" y="458" type="line" smooth="yes"/>
      <point x="562" y="458"/>
      <point x="565" y="456"/>
      <point x="565" y="451" type="curve" smooth="yes"/>
      <point x="565" y="255" type="line"/>
      <point x="339" y="255" type="line"/>
      <point x="339" y="219" type="line"/>
      <point x="611" y="219" type="line"/>
      <point x="611" y="405" type="line" smooth="yes"/>
      <point x="611" y="475"/>
      <point x="581" y="495"/>
      <point x="511" y="495" type="curve" smooth="yes"/>
      <point x="394" y="495" type="line" smooth="yes"/>
      <point x="336" y="495"/>
      <point x="318" y="481"/>
      <point x="312" y="436" type="curve"/>
      <point x="334" y="436" type="line"/>
      <point x="327" y="475"/>
      <point x="301" y="490"/>
      <point x="246" y="490" type="curve" smooth="yes"/>
      <point x="58" y="490" type="line"/>
      <point x="58" y="453" type="line"/>
      <point x="293" y="453" type="line" smooth="yes"/>
      <point x="297" y="453"/>
      <point x="300" y="451"/>
      <point x="300" y="446" type="curve" smooth="yes"/>
      <point x="300" y="65" type="line" smooth="yes"/>
      <point x="300" y="15"/>
      <point x="329" y="-5"/>
      <point x="389" y="-5" type="curve" smooth="yes"/>
    </contour>
    <contour>
      <point x="234" y="-5" type="line" smooth="yes"/>
      <point x="276" y="-5"/>
      <point x="300" y="5"/>
      <point x="307" y="32" type="curve"/>
      <point x="88" y="32" type="line" smooth="yes"/>
      <point x="84" y="32"/>
      <point x="81" y="34"/>
      <point x="81" y="39" type="curve" smooth="yes"/>
      <point x="81" y="212" type="line" smooth="yes"/>
      <point x="81" y="217"/>
      <point x="84" y="219"/>
      <point x="88" y="219" type="curve" smooth="yes"/>
      <point x="307" y="219" type="line"/>
      <point x="307" y="255" type="line"/>
      <point x="135" y="255" type="line" smooth="yes"/>
      <point x="65" y="255"/>
      <point x="35" y="235"/>
      <point x="35" y="165" type="curve" smooth="yes"/>
      <point x="35" y="85" type="line" smooth="yes"/>
      <point x="35" y="15"/>
      <point x="65" y="-5"/>
      <point x="135" y="-5" type="curve" smooth="yes"/>
    </contour>
  </outline>
</glyph>
<glyph name="eth" format="1">
  <advance width="422"/>
  <unicode hex="00F0"/>
  <outline>
    <contour>
      <point x="261" y="-5" type="line" smooth="yes"/>
      <point x="331" y="-5"/>
      <point x="361" y="15"/>
      <point x="361" y="85" type="curve" smooth="yes"/>
      <point x="361" y="582" type="line" smooth="yes"/>
      <point x="361" y="652"/>
      <point x="331" y="672"/>
      <point x="261" y="672" type="curve" smooth="yes"/>
      <point x="117" y="672" type="line"/>
      <point x="117" y="635" type="line"/>
      <point x="308" y="635" type="line" smooth="yes"/>
      <point x="312" y="635"/>
      <point x="315" y="633"/>
      <point x="315" y="628" type="curve" smooth="yes"/>
      <point x="315" y="469" type="line"/>
      <point x="326" y="480" type="line"/>
      <point x="150" y="480" type="line" smooth="yes"/>
      <point x="80" y="480"/>
      <point x="50" y="460"/>
      <point x="50" y="390" type="curve" smooth="yes"/>
      <point x="50" y="85" type="line" smooth="yes"/>
      <point x="50" y="15"/>
      <point x="80" y="-5"/>
      <point x="150" y="-5" type="curve" smooth="yes"/>
    </contour>
    <contour>
      <point x="99" y="32"/>
      <point x="96" y="34"/>
      <point x="96" y="39" type="curve" smooth="yes"/>
      <point x="96" y="436" type="line" smooth="yes"/>
      <point x="96" y="441"/>
      <point x="99" y="443"/>
      <point x="103" y="443" type="curve" smooth="yes"/>
      <point x="325" y="443" type="line"/>
      <point x="315" y="453" type="line"/>
      <point x="315" y="39" type="line" smooth="yes"/>
      <point x="315" y="34"/>
      <point x="312" y="32"/>
      <point x="308" y="32" type="curve" smooth="yes"/>
      <point x="103" y="32" type="line" smooth="yes"/>
    </contour>
    <contour>
      <point x="401" y="655" type="line"/>
      <point x="384" y="682" type="line"/>
      <point x="210" y="571" type="line"/>
      <point x="227" y="544" type="line"/>
    </contour>
  </outline>
</glyph>
<glyph name="divide" format="1">
  <advance width="470"/>
  <unicode hex="00F7"/>
  <outline>
    <contour>
      <point x="410" y="277" type="line"/>
      <point x="410" y="317" type="line"/>
      <point x="60" y="317" type="line"/>
      <point x="60" y="277" type="line"/>
    </contour>
    <contour>
      <point x="265" y="96" type="line"/>
      <point x="265" y="179" type="line"/>
      <point x="204" y="179" type="line"/>
      <point x="204" y="96" type="line"/>
    </contour>
    <contour>
      <point x="265" y="415" type="line"/>
      <point x="265" y="498" type="line"/>
      <point x="204" y="498" type="line"/>
      <point x="204" y="415" type="line"/>
    </contour>
  </outline>
</glyph>
<glyph name="oslash" format="1">
  <advance width="422"/>
  <unicode hex="00F8"/>
  <outline>
    <contour>
      <point x="334" y="545" type="line"/>
      <point x="50" y="-54" type="line"/>
      <point x="89" y="-54" type="line"/>
      <point x="373" y="545" type="line"/>
    </contour>
    <component base="o"/>
  </outline>
</glyph>
<glyph name="thorn" format="1">
  <advance width="420"/>
  <unicode hex="00FE"/>
  <outline>
    <contour>
      <point x="105" y="-190" type="line"/>
      <point x="105" y="0" type="line"/>
      <point x="270" y="-3" type="line" smooth="yes"/>
      <point x="340" y="-4"/>
      <point x="370" y="17"/>
      <point x="370" y="87" type="curve" smooth="yes"/>
      <point x="370" y="405" type="line" smooth="yes"/>
      <point x="370" y="475"/>
      <point x="340" y="495"/>
      <point x="270" y="495" type="curve" smooth="yes"/>
      <point x="178" y="495" type="line" smooth="yes"/>
      <point x="118" y="495"/>
      <point x="98" y="475"/>
      <point x="98" y="415" type="curve"/>
      <point x="105" y="458" type="line"/>
      <point x="105" y="675" type="line"/>
      <point x="60" y="675" type="line"/>
      <point x="60" y="-190" type="line"/>
    </contour>
    <contour>
      <point x="105" y="451" type="line" smooth="yes"/>
      <point x="105" y="456"/>
      <point x="108" y="458"/>
      <point x="112" y="458" type="curve" smooth="yes"/>
      <point x="317" y="458" type="line" smooth="yes"/>
      <point x="321" y="458"/>
      <point x="324" y="456"/>
      <point x="324" y="451" type="curve" smooth="yes"/>
      <point x="324" y="40" type="line" smooth="yes"/>
      <point x="324" y="35"/>
      <point x="321" y="33"/>
      <point x="317" y="33" type="curve" smooth="yes"/>
      <point x="98" y="36" type="line"/>
      <point x="105" y="29" type="line"/>
    </contour>
  </outline>
</glyph>
<glyph name="uni0123" format="1">
  <advance width="405"/>
  <unicode hex="0123"/>
  <outline>
    <contour>
      <point x="183" y="599" type="line"/>
      <point x="183" y="683" type="line"/>
      <point x="244" y="683" type="line"/>
      <point x="244" y="612" type="line" smooth="yes"/>
      <point x="244" y="582"/>
      <point x="234" y="558"/>
      <point x="212" y="530" type="curve"/>
      <point x="190" y="544" type="line"/>
      <point x="201" y="568"/>
      <point x="207" y="590"/>
      <point x="207" y="603" type="curve"/>
      <point x="210" y="599" type="line"/>
    </contour>
    <component base="g"/>
  </outline>
</glyph>
<glyph name="lslash" format="1">
  <advance width="185"/>
  <unicode hex="0142"/>
  <outline>
    <contour>
      <point x="183" y="388" type="line"/>
      <point x="-8" y="319" type="line"/>
      <point x="4" y="282" type="line"/>
      <point x="195" y="352" type="line"/>
    </contour>
    <component base="l"/>
  </outline>
</glyph>
<glyph name="OE" format="1">
  <advance width="773"/>
  <unicode hex="0152"/>
  <outline>
    <contour>
      <point x="733" y="0" type="line"/>
      <point x="733" y="40" type="line"/>
      <point x="434" y="40" type="line"/>
      <point x="444" y="30" type="line"/>
      <point x="444" y="313" type="line"/>
      <point x="433" y="304" type="line"/>
      <point x="712" y="304" type="line"/>
      <point x="712" y="344" type="line"/>
      <point x="434" y="344" type="line"/>
      <point x="444" y="334" type="line"/>
      <point x="444" y="605" type="line"/>
      <point x="434" y="595" type="line"/>
      <point x="728" y="595" type="line"/>
      <point x="728" y="635" type="line"/>
      <point x="152" y="637" type="line" smooth="yes"/>
      <point x="82" y="637"/>
      <point x="52" y="617"/>
      <point x="52" y="547" type="curve" smooth="yes"/>
      <point x="52" y="88" type="line" smooth="yes"/>
      <point x="52" y="18"/>
      <point x="82" y="-2"/>
      <point x="152" y="-2" type="curve" smooth="yes"/>
    </contour>
    <contour>
      <point x="408" y="40" type="line"/>
      <point x="108" y="40" type="line" smooth="yes"/>
      <point x="104" y="40"/>
      <point x="101" y="42"/>
      <point x="101" y="47" type="curve" smooth="yes"/>
      <point x="101" y="588" type="line" smooth="yes"/>
      <point x="101" y="593"/>
      <point x="104" y="595"/>
      <point x="108" y="595" type="curve" smooth="yes"/>
      <point x="409" y="595" type="line"/>
      <point x="398" y="605" type="line"/>
      <point x="398" y="30" type="line"/>
    </contour>
  </outline>
</glyph>
<glyph name="oe" format="1">
  <advance width="681"/>
  <unicode hex="0153"/>
  <outline>
    <contour>
      <point x="319" y="458" type="line" smooth="yes"/>
      <point x="323" y="458"/>
      <point x="326" y="456"/>
      <point x="326" y="451" type="curve" smooth="yes"/>
      <point x="326" y="39" type="line" smooth="yes"/>
      <point x="326" y="34"/>
      <point x="323" y="32"/>
      <point x="319" y="32" type="curve" smooth="yes"/>
      <point x="103" y="32" type="line" smooth="yes"/>
      <point x="99" y="32"/>
      <point x="96" y="34"/>
      <point x="96" y="39" type="curve" smooth="yes"/>
      <point x="96" y="451" type="line" smooth="yes"/>
      <point x="96" y="456"/>
      <point x="99" y="458"/>
      <point x="103" y="458" type="curve" smooth="yes"/>
    </contour>
    <contour>
      <point x="334" y="85" type="line"/>
      <point x="335" y="15"/>
      <point x="359" y="-5"/>
      <point x="429" y="-5" type="curve" smooth="yes"/>
      <point x="626" y="-5" type="line"/>
      <point x="626" y="32" type="line"/>
      <point x="378" y="32" type="line" smooth="yes"/>
      <point x="374" y="32"/>
      <point x="371" y="34"/>
      <point x="371" y="39" type="curve" smooth="yes"/>
      <point x="371" y="451" type="line" smooth="yes"/>
      <point x="371" y="456"/>
      <point x="374" y="458"/>
      <point x="378" y="458" type="curve" smooth="yes"/>
      <point x="583" y="458" type="line" smooth="yes"/>
      <point x="587" y="458"/>
      <point x="590" y="456"/>
      <point x="590" y="451" type="curve" smooth="yes"/>
      <point x="590" y="234" type="line"/>
      <point x="364" y="234" type="line"/>
      <point x="364" y="198" type="line"/>
      <point x="636" y="198" type="line"/>
      <point x="636" y="405" type="line" smooth="yes"/>
      <point x="636" y="475"/>
      <point x="606" y="495"/>
      <point x="536" y="495" type="curve" smooth="yes"/>
      <point x="423" y="495" type="line" smooth="yes"/>
      <point x="353" y="495"/>
      <point x="335" y="475"/>
      <point x="334" y="405" type="curve"/>
      <point x="364" y="405" type="line"/>
      <point x="364" y="475"/>
      <point x="340" y="495"/>
      <point x="270" y="495" type="curve" smooth="yes"/>
      <point x="150" y="495" type="line" smooth="yes"/>
      <point x="80" y="495"/>
      <point x="50" y="475"/>
      <point x="50" y="405" type="curve" smooth="yes"/>
      <point x="50" y="85" type="line" smooth="yes"/>
      <point x="50" y="15"/>
      <point x="80" y="-5"/>
      <point x="150" y="-5" type="curve" smooth="yes"/>
      <point x="270" y="-5" type="line" smooth="yes"/>
      <point x="340" y="-5"/>
      <point x="364" y="15"/>
      <point x="364" y="85" type="curve"/>
    </contour>
  </outline>
</glyph>
<glyph name="florin" format="1">
  <advance width="374"/>
  <unicode hex="0192"/>
  <outline>
    <contour>
      <point x="66" y="-190" type="line" smooth="yes"/>
      <point x="136" y="-190"/>
      <point x="161" y="-170"/>
      <point x="166" y="-100" type="curve" smooth="yes"/>
      <point x="203" y="376" type="line"/>
      <point x="193" y="366" type="line"/>
      <point x="312" y="366" type="line"/>
      <point x="312" y="402" type="line"/>
      <point x="194" y="402" type="line"/>
      <point x="204" y="392" type="line"/>
      <point x="223" y="636" type="line" smooth="yes"/>
      <point x="223" y="641"/>
      <point x="226" y="643"/>
      <point x="230" y="643" type="curve" smooth="yes"/>
      <point x="344" y="643" type="line"/>
      <point x="344" y="680" type="line"/>
      <point x="278" y="680" type="line" smooth="yes"/>
      <point x="208" y="680"/>
      <point x="183" y="660"/>
      <point x="178" y="590" type="curve" smooth="yes"/>
      <point x="163" y="392" type="line"/>
      <point x="173" y="402" type="line"/>
      <point x="92" y="402" type="line"/>
      <point x="92" y="366" type="line"/>
      <point x="172" y="366" type="line"/>
      <point x="162" y="376" type="line"/>
      <point x="121" y="-146" type="line" smooth="yes"/>
      <point x="121" y="-151"/>
      <point x="118" y="-153"/>
      <point x="114" y="-153" type="curve" smooth="yes"/>
      <point x="12" y="-153" type="line"/>
      <point x="12" y="-190" type="line"/>
    </contour>
  </outline>
</glyph>
<glyph name="circumflex" format="1">
  <advance width="311"/>
  <unicode hex="02C6"/>
  <outline>
    <contour>
      <point x="178" y="674" type="line"/>
      <point x="122" y="674" type="line"/>
      <point x="32" y="554" type="line"/>
      <point x="79" y="554" type="line"/>
      <point x="153" y="654" type="line"/>
      <point x="147" y="654" type="line"/>
      <point x="214" y="554" type="line"/>
      <point x="263" y="554" type="line"/>
    </contour>
    <contour>
      <point x="156" y="490" type="move" name="_top"/>
    </contour>
  </outline>
</glyph>
<glyph name="breve" format="1">
  <advance width="348"/>
  <unicode hex="02D8"/>
  <outline>
    <contour>
      <point x="70" y="668" type="line"/>
      <point x="70" y="589"/>
      <point x="95" y="562"/>
      <point x="177" y="562" type="curve" smooth="yes"/>
      <point x="251" y="562"/>
      <point x="278" y="588"/>
      <point x="278" y="668" type="curve"/>
      <point x="242" y="668" type="line"/>
      <point x="242" y="618"/>
      <point x="234" y="596"/>
      <point x="177" y="596" type="curve" smooth="yes"/>
      <point x="115" y="596"/>
      <point x="107" y="618"/>
      <point x="107" y="668" type="curve"/>
    </contour>
    <contour>
      <point x="169" y="490" type="move" name="_top"/>
    </contour>
  </outline>
</glyph>
<glyph name="ring" format="1">
  <advance width="297"/>
  <unicode hex="02DA"/>
  <outline>
    <contour>
      <point x="209" y="542"/>
      <point x="229" y="566"/>
      <point x="229" y="620" type="curve" smooth="yes"/>
      <point x="229" y="677"/>
      <point x="209" y="698"/>
      <point x="147" y="698" type="curve" smooth="yes"/>
      <point x="86" y="698"/>
      <point x="68" y="677"/>
      <point x="68" y="620" type="curve" smooth="yes"/>
      <point x="68" y="566"/>
      <point x="86" y="542"/>
      <point x="147" y="542" type="curve" smooth="yes"/>
    </contour>
    <contour>
      <point x="104" y="568"/>
      <point x="101" y="582"/>
      <point x="101" y="620" type="curve" smooth="yes"/>
      <point x="101" y="662"/>
      <point x="104" y="672"/>
      <point x="147" y="672" type="curve" smooth="yes"/>
      <point x="192" y="672"/>
      <point x="196" y="662"/>
      <point x="196" y="620" type="curve" smooth="yes"/>
      <point x="196" y="582"/>
      <point x="192" y="568"/>
      <point x="147" y="568" type="curve" smooth="yes"/>
    </contour>
    <contour>
      <point x="149" y="490" type="move" name="_top"/>
    </contour>
  </outline>
</glyph>
<glyph name="ogonek" format="1">
  <advance width="258"/>
  <unicode hex="02DB"/>
  <outline>
    <contour>
      <point x="220" y="-200" type="line"/>
      <point x="220" y="-160" type="line"/>
      <point x="134" y="-160" type="line" smooth="yes"/>
      <point x="130" y="-160"/>
      <point x="127" y="-158"/>
      <point x="127" y="-153" type="curve" smooth="yes"/>
      <point x="127" y="-87" type="line" smooth="yes"/>
      <point x="127" y="-78"/>
      <point x="127" y="-78"/>
      <point x="135" y="-70" type="curve" smooth="yes"/>
      <point x="200" y="0" type="line"/>
      <point x="166" y="6" type="line"/>
      <point x="108" y="-45" type="line" smooth="yes"/>
      <point x="89" y="-62"/>
      <point x="82" y="-80"/>
      <point x="82" y="-111" type="curve" smooth="yes"/>
      <point x="82" y="-131" type="line" smooth="yes"/>
      <point x="82" y="-184"/>
      <point x="113" y="-200"/>
      <point x="183" y="-200" type="curve" smooth="yes"/>
    </contour>
    <contour>
      <point x="200" y="0" type="move" name="_ogonek"/>
    </contour>
  </outline>
</glyph>
<glyph name="tilde" format="1">
  <advance width="330"/>
  <unicode hex="02DC"/>
  <outline>
    <contour>
      <point x="81" y="586" type="line"/>
      <point x="81" y="615"/>
      <point x="91" y="623"/>
      <point x="105" y="623" type="curve" smooth="yes"/>
      <point x="138" y="623"/>
      <point x="181" y="586"/>
      <point x="227" y="586" type="curve" smooth="yes"/>
      <point x="262" y="586"/>
      <point x="283" y="600"/>
      <point x="283" y="661" type="curve"/>
      <point x="245" y="661" type="line"/>
      <point x="245" y="632"/>
      <point x="238" y="624"/>
      <point x="218" y="624" type="curve" smooth="yes"/>
      <point x="181" y="624"/>
      <point x="143" y="661"/>
      <point x="95" y="661" type="curve" smooth="yes"/>
      <point x="60" y="661"/>
      <point x="43" y="642"/>
      <point x="43" y="586" type="curve"/>
    </contour>
    <contour>
      <point x="165" y="490" type="move" name="_top"/>
    </contour>
  </outline>
</glyph>
<glyph name="pi" format="1">
  <advance width="480"/>
  <unicode hex="03C0"/>
  <outline>
    <contour>
      <point x="131" y="0" type="line"/>
      <point x="131" y="464" type="line"/>
      <point x="121" y="454" type="line"/>
      <point x="359" y="454" type="line"/>
      <point x="349" y="464" type="line"/>
      <point x="349" y="0" type="line"/>
      <point x="394" y="0" type="line"/>
      <point x="394" y="464" type="line"/>
      <point x="384" y="454" type="line"/>
      <point x="459" y="454" type="line"/>
      <point x="459" y="490" type="line"/>
      <point x="21" y="490" type="line"/>
      <point x="21" y="454" type="line"/>
      <point x="96" y="454" type="line"/>
      <point x="86" y="464" type="line"/>
      <point x="86" y="0" type="line"/>
    </contour>
  </outline>
</glyph>
<glyph name="si_A" format="1">
  <advance width="542"/>
  <unicode hex="0D85"/>
  <note>
	si_A
  </note>
  <outline>
    <contour>
      <point x="322" y="32" type="line"/>
      <point x="81" y="32" type="line" smooth="yes"/>
      <point x="64" y="32"/>
      <point x="59" y="37"/>
      <point x="59" y="59" type="curve" smooth="yes"/>
      <point x="59" y="287" type="line" smooth="yes"/>
      <point x="59" y="312"/>
      <point x="65" y="321"/>
      <point x="88" y="321" type="curve" smooth="yes"/>
      <point x="264" y="321" type="line"/>
      <point x="264" y="431" type="line" smooth="yes"/>
      <point x="264" y="474"/>
      <point x="239" y="497"/>
      <point x="192" y="497" type="curve" smooth="yes"/>
      <point x="22" y="497" type="line"/>
      <point x="22" y="466" type="line"/>
      <point x="182" y="466" type="line" smooth="yes"/>
      <point x="207" y="466"/>
      <point x="227" y="461"/>
      <point x="227" y="423" type="curve" smooth="yes"/>
      <point x="227" y="353" type="line"/>
      <point x="77" y="353" type="line" smooth="yes"/>
      <point x="41" y="353"/>
      <point x="22" y="334"/>
      <point x="22" y="297" type="curve" smooth="yes"/>
      <point x="22" y="51" type="line" smooth="yes"/>
      <point x="22" y="14"/>
      <point x="33" y="0"/>
      <point x="70" y="0" type="curve" smooth="yes"/>
      <point x="322" y="0" type="line"/>
      <point x="322" y="-140" type="line"/>
      <point x="359" y="-140" type="line"/>
      <point x="359" y="0" type="line"/>
      <point x="488" y="0" type="line"/>
      <point x="488" y="32" type="line"/>
      <point x="359" y="32" type="line"/>
      <point x="359" y="199" type="line"/>
      <point x="440" y="199" type="line" smooth="yes"/>
      <point x="473" y="199"/>
      <point x="490" y="218"/>
      <point x="490" y="252" type="curve" smooth="yes"/>
      <point x="490" y="350" type="line" smooth="yes"/>
      <point x="490" y="404"/>
      <point x="444" y="442"/>
      <point x="444" y="456" type="curve" smooth="yes"/>
      <point x="444" y="459"/>
      <point x="446" y="466"/>
      <point x="457" y="466" type="curve" smooth="yes"/>
      <point x="493" y="466" type="line"/>
      <point x="493" y="497" type="line"/>
      <point x="384" y="497" type="line" smooth="yes"/>
      <point x="346" y="497"/>
      <point x="322" y="472"/>
      <point x="322" y="429" type="curve" smooth="yes"/>
    </contour>
    <contour>
      <point x="359" y="231" type="line"/>
      <point x="359" y="427" type="line" smooth="yes"/>
      <point x="359" y="463"/>
      <point x="380" y="466"/>
      <point x="407" y="466" type="curve"/>
      <point x="406" y="464"/>
      <point x="405" y="461"/>
      <point x="405" y="458" type="curve" smooth="yes"/>
      <point x="405" y="428"/>
      <point x="453" y="394"/>
      <point x="453" y="350" type="curve" smooth="yes"/>
      <point x="453" y="259" type="line" smooth="yes"/>
      <point x="453" y="237"/>
      <point x="447" y="231"/>
      <point x="428" y="231" type="curve" smooth="yes"/>
    </contour>
  </outline>
</glyph>
<glyph name="si_Aae" format="1">
  <advance width="786"/>
  <unicode hex="0D88"/>
  <note>
	si_Aae
  </note>
  <outline>
    <contour>
      <point x="563" y="497" type="line"/>
      <point x="563" y="465" type="line"/>
      <point x="691" y="465" type="line"/>
      <point x="563" y="358" type="line"/>
      <point x="563" y="329" type="line"/>
      <point x="690" y="329" type="line"/>
      <point x="591" y="245" type="line" smooth="yes"/>
      <point x="566" y="223"/>
      <point x="563" y="202"/>
      <point x="563" y="175" type="curve" smooth="yes"/>
      <point x="563" y="36" type="line" smooth="yes"/>
      <point x="563" y="12"/>
      <point x="573" y="0"/>
      <point x="593" y="0" type="curve" smooth="yes"/>
      <point x="745" y="0" type="line"/>
      <point x="745" y="32" type="line"/>
      <point x="617" y="32" type="line" smooth="yes"/>
      <point x="600" y="32"/>
      <point x="600" y="34"/>
      <point x="600" y="51" type="curve" smooth="yes"/>
      <point x="600" y="169" type="line" smooth="yes"/>
      <point x="600" y="200"/>
      <point x="604" y="207"/>
      <point x="626" y="227" type="curve" smooth="yes"/>
      <point x="745" y="330" type="line"/>
      <point x="745" y="361" type="line"/>
      <point x="619" y="361" type="line"/>
      <point x="745" y="466" type="line"/>
      <point x="745" y="497" type="line"/>
    </contour>
    <contour>
      <point x="322" y="32" type="line"/>
      <point x="81" y="32" type="line" smooth="yes"/>
      <point x="64" y="32"/>
      <point x="59" y="37"/>
      <point x="59" y="59" type="curve" smooth="yes"/>
      <point x="59" y="287" type="line" smooth="yes"/>
      <point x="59" y="312"/>
      <point x="65" y="321"/>
      <point x="88" y="321" type="curve" smooth="yes"/>
      <point x="264" y="321" type="line"/>
      <point x="264" y="431" type="line" smooth="yes"/>
      <point x="264" y="474"/>
      <point x="239" y="497"/>
      <point x="192" y="497" type="curve" smooth="yes"/>
      <point x="22" y="497" type="line"/>
      <point x="22" y="466" type="line"/>
      <point x="182" y="466" type="line" smooth="yes"/>
      <point x="207" y="466"/>
      <point x="227" y="461"/>
      <point x="227" y="423" type="curve" smooth="yes"/>
      <point x="227" y="353" type="line"/>
      <point x="77" y="353" type="line" smooth="yes"/>
      <point x="41" y="353"/>
      <point x="22" y="334"/>
      <point x="22" y="297" type="curve" smooth="yes"/>
      <point x="22" y="51" type="line" smooth="yes"/>
      <point x="22" y="14"/>
      <point x="33" y="0"/>
      <point x="70" y="0" type="curve" smooth="yes"/>
      <point x="322" y="0" type="line"/>
      <point x="322" y="-140" type="line"/>
      <point x="359" y="-140" type="line"/>
      <point x="359" y="0" type="line"/>
      <point x="488" y="0" type="line"/>
      <point x="488" y="32" type="line"/>
      <point x="359" y="32" type="line"/>
      <point x="359" y="199" type="line"/>
      <point x="440" y="199" type="line" smooth="yes"/>
      <point x="473" y="199"/>
      <point x="490" y="218"/>
      <point x="490" y="252" type="curve" smooth="yes"/>
      <point x="490" y="350" type="line" smooth="yes"/>
      <point x="490" y="404"/>
      <point x="444" y="442"/>
      <point x="444" y="456" type="curve" smooth="yes"/>
      <point x="444" y="459"/>
      <point x="446" y="466"/>
      <point x="457" y="466" type="curve" smooth="yes"/>
      <point x="493" y="466" type="line"/>
      <point x="493" y="497" type="line"/>
      <point x="384" y="497" type="line" smooth="yes"/>
      <point x="346" y="497"/>
      <point x="322" y="472"/>
      <point x="322" y="429" type="curve" smooth="yes"/>
    </contour>
    <contour>
      <point x="359" y="231" type="line"/>
      <point x="359" y="427" type="line" smooth="yes"/>
      <point x="359" y="463"/>
      <point x="380" y="466"/>
      <point x="407" y="466" type="curve"/>
      <point x="406" y="464"/>
      <point x="405" y="461"/>
      <point x="405" y="458" type="curve" smooth="yes"/>
      <point x="405" y="428"/>
      <point x="453" y="394"/>
      <point x="453" y="350" type="curve" smooth="yes"/>
      <point x="453" y="259" type="line" smooth="yes"/>
      <point x="453" y="237"/>
      <point x="447" y="231"/>
      <point x="428" y="231" type="curve" smooth="yes"/>
    </contour>
  </outline>
</glyph>
<glyph name="si_I" format="1">
  <advance width="519"/>
  <unicode hex="0D89"/>
  <note>
	si_I
  </note>
  <outline>
    <contour>
      <point x="256" y="346" type="line"/>
      <point x="219" y="346" type="line"/>
      <point x="219" y="217" type="line" smooth="yes"/>
      <point x="219" y="200"/>
      <point x="216" y="188"/>
      <point x="197" y="188" type="curve" smooth="yes"/>
      <point x="91" y="188" type="line" smooth="yes"/>
      <point x="62" y="188"/>
      <point x="59" y="198"/>
      <point x="59" y="218" type="curve" smooth="yes"/>
      <point x="59" y="437" type="line" smooth="yes"/>
      <point x="59" y="457"/>
      <point x="70" y="465"/>
      <point x="94" y="465" type="curve" smooth="yes"/>
      <point x="395" y="465" type="line" smooth="yes"/>
      <point x="416" y="465"/>
      <point x="427" y="459"/>
      <point x="427" y="437" type="curve" smooth="yes"/>
      <point x="427" y="75" type="line" smooth="yes"/>
      <point x="427" y="39"/>
      <point x="409" y="32"/>
      <point x="365" y="32" type="curve" smooth="yes"/>
      <point x="47" y="32" type="line"/>
      <point x="47" y="0" type="line"/>
      <point x="377" y="0" type="line" smooth="yes"/>
      <point x="403" y="0"/>
      <point x="410" y="-15"/>
      <point x="410" y="-30" type="curve" smooth="yes"/>
      <point x="410" y="-102" type="line" smooth="yes"/>
      <point x="410" y="-123"/>
      <point x="401" y="-127"/>
      <point x="381" y="-127" type="curve" smooth="yes"/>
      <point x="46" y="-127" type="line"/>
      <point x="46" y="-159" type="line"/>
      <point x="391" y="-159" type="line" smooth="yes"/>
      <point x="430" y="-159"/>
      <point x="447" y="-142"/>
      <point x="447" y="-99" type="curve" smooth="yes"/>
      <point x="447" y="-32" type="line" smooth="yes"/>
      <point x="447" y="-8"/>
      <point x="446" y="6"/>
      <point x="432" y="15" type="curve"/>
      <point x="457" y="22"/>
      <point x="464" y="42"/>
      <point x="464" y="74" type="curve" smooth="yes"/>
      <point x="464" y="442" type="line" smooth="yes"/>
      <point x="464" y="475"/>
      <point x="447" y="497"/>
      <point x="403" y="497" type="curve" smooth="yes"/>
      <point x="83" y="497" type="line" smooth="yes"/>
      <point x="44" y="497"/>
      <point x="22" y="476"/>
      <point x="22" y="442" type="curve" smooth="yes"/>
      <point x="22" y="210" type="line" smooth="yes"/>
      <point x="22" y="173"/>
      <point x="41" y="156"/>
      <point x="78" y="156" type="curve" smooth="yes"/>
      <point x="203" y="156" type="line" smooth="yes"/>
      <point x="236" y="156"/>
      <point x="256" y="172"/>
      <point x="256" y="206" type="curve" smooth="yes"/>
    </contour>
  </outline>
</glyph>
<glyph name="si_Ii" format="1">
  <advance width="451"/>
  <unicode hex="0D8A"/>
  <note>
	si_Ii
  </note>
  <outline>
    <contour>
      <point x="22" y="430" type="line" smooth="yes"/>
      <point x="22" y="459"/>
      <point x="37" y="476"/>
      <point x="63" y="498" type="curve" smooth="yes"/>
      <point x="264" y="663" type="line"/>
      <point x="316" y="663" type="line"/>
      <point x="117" y="497" type="line"/>
      <point x="333" y="497" type="line" smooth="yes"/>
      <point x="376" y="497"/>
      <point x="394" y="474"/>
      <point x="394" y="438" type="curve" smooth="yes"/>
      <point x="394" y="61" type="line" smooth="yes"/>
      <point x="394" y="32"/>
      <point x="390" y="0"/>
      <point x="339" y="0" type="curve" smooth="yes"/>
      <point x="68" y="0" type="line" smooth="yes"/>
      <point x="38" y="0"/>
      <point x="22" y="12"/>
      <point x="22" y="48" type="curve" smooth="yes"/>
    </contour>
    <contour>
      <point x="59" y="71" type="line" smooth="yes"/>
      <point x="59" y="37"/>
      <point x="62" y="32"/>
      <point x="95" y="32" type="curve" smooth="yes"/>
      <point x="332" y="32" type="line" smooth="yes"/>
      <point x="351" y="32"/>
      <point x="359" y="34"/>
      <point x="359" y="64" type="curve" smooth="yes"/>
      <point x="359" y="424" type="line" smooth="yes"/>
      <point x="359" y="456"/>
      <point x="347" y="465"/>
      <point x="321" y="465" type="curve" smooth="yes"/>
      <point x="99" y="465" type="line" smooth="yes"/>
      <point x="75" y="465"/>
      <point x="59" y="450"/>
      <point x="59" y="417" type="curve" smooth="yes"/>
    </contour>
    <contour>
      <point x="22" y="663" type="line"/>
      <point x="22" y="569" type="line"/>
      <point x="124" y="569" type="line"/>
      <point x="124" y="663" type="line"/>
    </contour>
    <contour>
      <point x="306" y="612" type="line"/>
      <point x="306" y="518" type="line"/>
      <point x="408" y="518" type="line"/>
      <point x="408" y="612" type="line"/>
    </contour>
    <contour>
      <point x="51" y="641" type="line"/>
      <point x="95" y="641" type="line"/>
      <point x="95" y="590" type="line"/>
      <point x="51" y="590" type="line"/>
    </contour>
    <contour>
      <point x="335" y="590" type="line"/>
      <point x="379" y="590" type="line"/>
      <point x="379" y="539" type="line"/>
      <point x="335" y="539" type="line"/>
    </contour>
  </outline>
</glyph>
<glyph name="si_U" format="1">
  <advance width="521"/>
  <unicode hex="0D8B"/>
  <note>
	si_U
  </note>
  <outline>
    <contour>
      <point x="93" y="497" type="line"/>
      <point x="93" y="465" type="line"/>
      <point x="392" y="465" type="line" smooth="yes"/>
      <point x="420" y="465"/>
      <point x="425" y="449"/>
      <point x="425" y="433" type="curve" smooth="yes"/>
      <point x="425" y="353" type="line"/>
      <point x="96" y="353" type="line" smooth="yes"/>
      <point x="47" y="353"/>
      <point x="22" y="329"/>
      <point x="22" y="281" type="curve" smooth="yes"/>
      <point x="22" y="-86" type="line" smooth="yes"/>
      <point x="22" y="-123"/>
      <point x="34" y="-153"/>
      <point x="76" y="-153" type="curve" smooth="yes"/>
      <point x="406" y="-153" type="line" smooth="yes"/>
      <point x="445" y="-153"/>
      <point x="465" y="-138"/>
      <point x="465" y="-92" type="curve" smooth="yes"/>
      <point x="465" y="98" type="line"/>
      <point x="428" y="98" type="line"/>
      <point x="428" y="-92" type="line" smooth="yes"/>
      <point x="428" y="-105"/>
      <point x="424" y="-121"/>
      <point x="400" y="-121" type="curve" smooth="yes"/>
      <point x="93" y="-121" type="line" smooth="yes"/>
      <point x="65" y="-121"/>
      <point x="59" y="-111"/>
      <point x="59" y="-73" type="curve" smooth="yes"/>
      <point x="59" y="279" type="line" smooth="yes"/>
      <point x="59" y="313"/>
      <point x="72" y="321"/>
      <point x="107" y="321" type="curve" smooth="yes"/>
      <point x="462" y="321" type="line"/>
      <point x="462" y="438" type="line" smooth="yes"/>
      <point x="462" y="478"/>
      <point x="438" y="497"/>
      <point x="397" y="497" type="curve" smooth="yes"/>
    </contour>
  </outline>
</glyph>
<glyph name="si_Uu" format="1">
  <advance width="897"/>
  <unicode hex="0D8C"/>
  <note>
	si_Uu
  </note>
  <outline>
    <contour>
      <point x="572" y="497" type="line"/>
      <point x="609" y="497" type="line"/>
      <point x="609" y="318" type="line" smooth="yes"/>
      <point x="609" y="301"/>
      <point x="610" y="296"/>
      <point x="618" y="296" type="curve" smooth="yes"/>
      <point x="682" y="296" type="line" smooth="yes"/>
      <point x="692" y="296"/>
      <point x="692" y="304"/>
      <point x="692" y="320" type="curve" smooth="yes"/>
      <point x="692" y="457" type="line" smooth="yes"/>
      <point x="692" y="485"/>
      <point x="706" y="497"/>
      <point x="729" y="497" type="curve" smooth="yes"/>
      <point x="815" y="497" type="line" smooth="yes"/>
      <point x="841" y="497"/>
      <point x="857" y="478"/>
      <point x="857" y="456" type="curve" smooth="yes"/>
      <point x="857" y="46" type="line" smooth="yes"/>
      <point x="857" y="17"/>
      <point x="838" y="0"/>
      <point x="809" y="0" type="curve" smooth="yes"/>
      <point x="612" y="0" type="line" smooth="yes"/>
      <point x="588" y="0"/>
      <point x="572" y="16"/>
      <point x="572" y="47" type="curve" smooth="yes"/>
      <point x="572" y="147" type="line"/>
      <point x="609" y="147" type="line"/>
      <point x="609" y="49" type="line" smooth="yes"/>
      <point x="609" y="35"/>
      <point x="610" y="32"/>
      <point x="624" y="32" type="curve" smooth="yes"/>
      <point x="811" y="32" type="line" smooth="yes"/>
      <point x="821" y="32"/>
      <point x="823" y="38"/>
      <point x="823" y="49" type="curve" smooth="yes"/>
      <point x="823" y="451" type="line" smooth="yes"/>
      <point x="823" y="460"/>
      <point x="820" y="465"/>
      <point x="814" y="465" type="curve" smooth="yes"/>
      <point x="738" y="465" type="line" smooth="yes"/>
      <point x="731" y="465"/>
      <point x="728" y="460"/>
      <point x="728" y="449" type="curve" smooth="yes"/>
      <point x="728" y="299" type="line" smooth="yes"/>
      <point x="728" y="271"/>
      <point x="712" y="264"/>
      <point x="686" y="264" type="curve" smooth="yes"/>
      <point x="605" y="264" type="line" smooth="yes"/>
      <point x="585" y="264"/>
      <point x="572" y="274"/>
      <point x="572" y="297" type="curve" smooth="yes"/>
    </contour>
    <contour>
      <point x="93" y="497" type="line"/>
      <point x="93" y="465" type="line"/>
      <point x="392" y="465" type="line" smooth="yes"/>
      <point x="420" y="465"/>
      <point x="425" y="449"/>
      <point x="425" y="433" type="curve" smooth="yes"/>
      <point x="425" y="353" type="line"/>
      <point x="96" y="353" type="line" smooth="yes"/>
      <point x="47" y="353"/>
      <point x="22" y="329"/>
      <point x="22" y="281" type="curve" smooth="yes"/>
      <point x="22" y="-86" type="line" smooth="yes"/>
      <point x="22" y="-123"/>
      <point x="34" y="-153"/>
      <point x="76" y="-153" type="curve" smooth="yes"/>
      <point x="406" y="-153" type="line" smooth="yes"/>
      <point x="445" y="-153"/>
      <point x="465" y="-138"/>
      <point x="465" y="-92" type="curve" smooth="yes"/>
      <point x="465" y="98" type="line"/>
      <point x="428" y="98" type="line"/>
      <point x="428" y="-92" type="line" smooth="yes"/>
      <point x="428" y="-105"/>
      <point x="424" y="-121"/>
      <point x="400" y="-121" type="curve" smooth="yes"/>
      <point x="93" y="-121" type="line" smooth="yes"/>
      <point x="65" y="-121"/>
      <point x="59" y="-111"/>
      <point x="59" y="-73" type="curve" smooth="yes"/>
      <point x="59" y="279" type="line" smooth="yes"/>
      <point x="59" y="313"/>
      <point x="72" y="321"/>
      <point x="107" y="321" type="curve" smooth="yes"/>
      <point x="462" y="321" type="line"/>
      <point x="462" y="438" type="line" smooth="yes"/>
      <point x="462" y="478"/>
      <point x="438" y="497"/>
      <point x="397" y="497" type="curve" smooth="yes"/>
    </contour>
  </outline>
</glyph>
<glyph name="si_vocalicR" format="1">
  <advance width="908"/>
  <unicode hex="0D8D"/>
  <note>
	si_vocalicR
  </note>
  <outline>
    <contour>
      <point x="257" y="11"/>
      <point x="232" y="0"/>
      <point x="214" y="0" type="curve" smooth="yes"/>
      <point x="72" y="0" type="line" smooth="yes"/>
      <point x="35" y="0"/>
      <point x="22" y="16"/>
      <point x="22" y="54" type="curve" smooth="yes"/>
      <point x="22" y="298" type="line" smooth="yes"/>
      <point x="22" y="335"/>
      <point x="41" y="353"/>
      <point x="78" y="353" type="curve" smooth="yes"/>
      <point x="206" y="353" type="line"/>
      <point x="206" y="435" type="line" smooth="yes"/>
      <point x="206" y="458"/>
      <point x="193" y="465"/>
      <point x="170" y="465" type="curve" smooth="yes"/>
      <point x="23" y="465" type="line"/>
      <point x="23" y="497" type="line"/>
      <point x="180" y="497" type="line" smooth="yes"/>
      <point x="221" y="497"/>
      <point x="242" y="478"/>
      <point x="242" y="440" type="curve" smooth="yes"/>
      <point x="242" y="321" type="line"/>
      <point x="82" y="321" type="line" smooth="yes"/>
      <point x="69" y="321"/>
      <point x="59" y="313"/>
      <point x="59" y="300" type="curve" smooth="yes"/>
      <point x="59" y="56" type="line" smooth="yes"/>
      <point x="59" y="40"/>
      <point x="66" y="32"/>
      <point x="79" y="32" type="curve" smooth="yes"/>
      <point x="200" y="32" type="line" smooth="yes"/>
      <point x="235" y="32"/>
      <point x="248" y="62"/>
      <point x="248" y="93" type="curve" smooth="yes"/>
      <point x="248" y="165" type="line"/>
      <point x="265" y="165" type="line"/>
      <point x="285" y="165" type="line"/>
      <point x="285" y="93" type="line" smooth="yes"/>
      <point x="285" y="62"/>
      <point x="298" y="32"/>
      <point x="333" y="32" type="curve" smooth="yes"/>
      <point x="454" y="32" type="line" smooth="yes"/>
      <point x="466" y="32"/>
      <point x="473" y="40"/>
      <point x="473" y="56" type="curve" smooth="yes"/>
      <point x="473" y="300" type="line" smooth="yes"/>
      <point x="473" y="313"/>
      <point x="463" y="321"/>
      <point x="450" y="321" type="curve" smooth="yes"/>
      <point x="290" y="321" type="line"/>
      <point x="290" y="440" type="line" smooth="yes"/>
      <point x="290" y="478"/>
      <point x="311" y="497"/>
      <point x="352" y="497" type="curve" smooth="yes"/>
      <point x="509" y="497" type="line"/>
      <point x="509" y="465" type="line"/>
      <point x="362" y="465" type="line" smooth="yes"/>
      <point x="339" y="465"/>
      <point x="326" y="458"/>
      <point x="326" y="435" type="curve" smooth="yes"/>
      <point x="326" y="353" type="line"/>
      <point x="454" y="353" type="line" smooth="yes"/>
      <point x="491" y="353"/>
      <point x="510" y="335"/>
      <point x="510" y="298" type="curve" smooth="yes"/>
      <point x="510" y="54" type="line" smooth="yes"/>
      <point x="510" y="16"/>
      <point x="497" y="0"/>
      <point x="460" y="0" type="curve" smooth="yes"/>
      <point x="319" y="0" type="line" smooth="yes"/>
      <point x="301" y="0"/>
      <point x="274" y="11"/>
      <point x="266" y="35" type="curve"/>
    </contour>
    <contour>
      <point x="587" y="497" type="line"/>
      <point x="587" y="465" type="line"/>
      <point x="801" y="465" type="line" smooth="yes"/>
      <point x="821" y="465"/>
      <point x="826" y="459"/>
      <point x="826" y="439" type="curve" smooth="yes"/>
      <point x="826" y="323" type="line"/>
      <point x="630" y="323" type="line" smooth="yes"/>
      <point x="607" y="323"/>
      <point x="587" y="310"/>
      <point x="587" y="280" type="curve" smooth="yes"/>
      <point x="587" y="42" type="line" smooth="yes"/>
      <point x="587" y="14"/>
      <point x="599" y="0"/>
      <point x="624" y="0" type="curve" smooth="yes"/>
      <point x="777" y="0" type="line" smooth="yes"/>
      <point x="801" y="0"/>
      <point x="820" y="15"/>
      <point x="830" y="39" type="curve"/>
      <point x="839" y="0" type="line"/>
      <point x="863" y="0" type="line"/>
      <point x="863" y="450" type="line" smooth="yes"/>
      <point x="863" y="481"/>
      <point x="847" y="497"/>
      <point x="814" y="497" type="curve" smooth="yes"/>
    </contour>
    <contour>
      <point x="826" y="291" type="line"/>
      <point x="826" y="139" type="line" smooth="yes"/>
      <point x="826" y="66"/>
      <point x="805" y="32"/>
      <point x="753" y="32" type="curve" smooth="yes"/>
      <point x="642" y="32" type="line" smooth="yes"/>
      <point x="627" y="32"/>
      <point x="624" y="36"/>
      <point x="624" y="51" type="curve"/>
      <point x="624" y="269" type="line"/>
      <point x="624" y="288"/>
      <point x="629" y="291"/>
      <point x="642" y="291" type="curve" smooth="yes"/>
    </contour>
  </outline>
</glyph>
<glyph name="si_vocalicRr" format="1">
  <advance width="1243"/>
  <unicode hex="0D8E"/>
  <note>
	si_vocalicRr
  </note>
  <outline>
    <contour>
      <point x="257" y="11"/>
      <point x="232" y="0"/>
      <point x="214" y="0" type="curve" smooth="yes"/>
      <point x="72" y="0" type="line" smooth="yes"/>
      <point x="35" y="0"/>
      <point x="22" y="16"/>
      <point x="22" y="54" type="curve" smooth="yes"/>
      <point x="22" y="298" type="line" smooth="yes"/>
      <point x="22" y="335"/>
      <point x="41" y="353"/>
      <point x="78" y="353" type="curve" smooth="yes"/>
      <point x="206" y="353" type="line"/>
      <point x="206" y="435" type="line" smooth="yes"/>
      <point x="206" y="458"/>
      <point x="193" y="465"/>
      <point x="170" y="465" type="curve" smooth="yes"/>
      <point x="23" y="465" type="line"/>
      <point x="23" y="497" type="line"/>
      <point x="180" y="497" type="line" smooth="yes"/>
      <point x="221" y="497"/>
      <point x="242" y="478"/>
      <point x="242" y="440" type="curve" smooth="yes"/>
      <point x="242" y="321" type="line"/>
      <point x="82" y="321" type="line" smooth="yes"/>
      <point x="69" y="321"/>
      <point x="59" y="313"/>
      <point x="59" y="300" type="curve" smooth="yes"/>
      <point x="59" y="56" type="line" smooth="yes"/>
      <point x="59" y="40"/>
      <point x="66" y="32"/>
      <point x="79" y="32" type="curve" smooth="yes"/>
      <point x="200" y="32" type="line" smooth="yes"/>
      <point x="235" y="32"/>
      <point x="248" y="62"/>
      <point x="248" y="93" type="curve" smooth="yes"/>
      <point x="248" y="165" type="line"/>
      <point x="265" y="165" type="line"/>
      <point x="285" y="165" type="line"/>
      <point x="285" y="93" type="line" smooth="yes"/>
      <point x="285" y="62"/>
      <point x="298" y="32"/>
      <point x="333" y="32" type="curve" smooth="yes"/>
      <point x="454" y="32" type="line" smooth="yes"/>
      <point x="466" y="32"/>
      <point x="473" y="40"/>
      <point x="473" y="56" type="curve" smooth="yes"/>
      <point x="473" y="300" type="line" smooth="yes"/>
      <point x="473" y="313"/>
      <point x="463" y="321"/>
      <point x="450" y="321" type="curve" smooth="yes"/>
      <point x="290" y="321" type="line"/>
      <point x="290" y="440" type="line" smooth="yes"/>
      <point x="290" y="478"/>
      <point x="311" y="497"/>
      <point x="352" y="497" type="curve" smooth="yes"/>
      <point x="509" y="497" type="line"/>
      <point x="509" y="465" type="line"/>
      <point x="362" y="465" type="line" smooth="yes"/>
      <point x="339" y="465"/>
      <point x="326" y="458"/>
      <point x="326" y="435" type="curve" smooth="yes"/>
      <point x="326" y="353" type="line"/>
      <point x="454" y="353" type="line" smooth="yes"/>
      <point x="491" y="353"/>
      <point x="510" y="335"/>
      <point x="510" y="298" type="curve" smooth="yes"/>
      <point x="510" y="54" type="line" smooth="yes"/>
      <point x="510" y="16"/>
      <point x="497" y="0"/>
      <point x="460" y="0" type="curve" smooth="yes"/>
      <point x="319" y="0" type="line" smooth="yes"/>
      <point x="301" y="0"/>
      <point x="274" y="11"/>
      <point x="266" y="35" type="curve"/>
    </contour>
    <contour>
      <point x="911" y="496" type="line"/>
      <point x="911" y="464" type="line"/>
      <point x="1125" y="464" type="line" smooth="yes"/>
      <point x="1145" y="464"/>
      <point x="1150" y="458"/>
      <point x="1150" y="438" type="curve" smooth="yes"/>
      <point x="1150" y="322" type="line"/>
      <point x="954" y="322" type="line" smooth="yes"/>
      <point x="931" y="322"/>
      <point x="911" y="309"/>
      <point x="911" y="279" type="curve" smooth="yes"/>
      <point x="911" y="41" type="line" smooth="yes"/>
      <point x="911" y="13"/>
      <point x="923" y="-1"/>
      <point x="948" y="-1" type="curve" smooth="yes"/>
      <point x="1101" y="-1" type="line" smooth="yes"/>
      <point x="1125" y="-1"/>
      <point x="1144" y="14"/>
      <point x="1154" y="38" type="curve"/>
      <point x="1163" y="-1" type="line"/>
      <point x="1187" y="-1" type="line"/>
      <point x="1187" y="449" type="line" smooth="yes"/>
      <point x="1187" y="480"/>
      <point x="1171" y="496"/>
      <point x="1138" y="496" type="curve" smooth="yes"/>
    </contour>
    <contour>
      <point x="1150" y="290" type="line"/>
      <point x="1150" y="138" type="line" smooth="yes"/>
      <point x="1150" y="65"/>
      <point x="1129" y="31"/>
      <point x="1077" y="31" type="curve" smooth="yes"/>
      <point x="966" y="31" type="line" smooth="yes"/>
      <point x="951" y="31"/>
      <point x="948" y="35"/>
      <point x="948" y="50" type="curve"/>
      <point x="948" y="268" type="line"/>
      <point x="948" y="287"/>
      <point x="953" y="290"/>
      <point x="966" y="290" type="curve" smooth="yes"/>
    </contour>
    <contour>
      <point x="583" y="496" type="line"/>
      <point x="583" y="464" type="line"/>
      <point x="797" y="464" type="line" smooth="yes"/>
      <point x="817" y="464"/>
      <point x="822" y="458"/>
      <point x="822" y="438" type="curve" smooth="yes"/>
      <point x="822" y="322" type="line"/>
      <point x="626" y="322" type="line" smooth="yes"/>
      <point x="603" y="322"/>
      <point x="583" y="309"/>
      <point x="583" y="279" type="curve" smooth="yes"/>
      <point x="583" y="41" type="line" smooth="yes"/>
      <point x="583" y="13"/>
      <point x="595" y="-1"/>
      <point x="620" y="-1" type="curve" smooth="yes"/>
      <point x="773" y="-1" type="line" smooth="yes"/>
      <point x="797" y="-1"/>
      <point x="816" y="14"/>
      <point x="826" y="38" type="curve"/>
      <point x="835" y="-1" type="line"/>
      <point x="859" y="-1" type="line"/>
      <point x="859" y="449" type="line" smooth="yes"/>
      <point x="859" y="480"/>
      <point x="843" y="496"/>
      <point x="810" y="496" type="curve" smooth="yes"/>
    </contour>
    <contour>
      <point x="822" y="290" type="line"/>
      <point x="822" y="138" type="line" smooth="yes"/>
      <point x="822" y="65"/>
      <point x="801" y="31"/>
      <point x="749" y="31" type="curve" smooth="yes"/>
      <point x="638" y="31" type="line" smooth="yes"/>
      <point x="623" y="31"/>
      <point x="620" y="35"/>
      <point x="620" y="50" type="curve"/>
      <point x="620" y="268" type="line"/>
      <point x="620" y="287"/>
      <point x="625" y="290"/>
      <point x="638" y="290" type="curve" smooth="yes"/>
    </contour>
  </outline>
</glyph>
<glyph name="si_vocalicLL" format="1">
  <advance width="1203"/>
  <unicode hex="0D90"/>
  <note>
	si_vocalicLL
  </note>
  <outline>
    <contour>
      <point x="785" y="497" type="line"/>
      <point x="822" y="497" type="line"/>
      <point x="822" y="318" type="line" smooth="yes"/>
      <point x="822" y="301"/>
      <point x="823" y="296"/>
      <point x="831" y="296" type="curve" smooth="yes"/>
      <point x="895" y="296" type="line" smooth="yes"/>
      <point x="905" y="296"/>
      <point x="905" y="304"/>
      <point x="905" y="320" type="curve" smooth="yes"/>
      <point x="905" y="457" type="line" smooth="yes"/>
      <point x="905" y="486"/>
      <point x="919" y="497"/>
      <point x="942" y="497" type="curve" smooth="yes"/>
      <point x="1028" y="497" type="line" smooth="yes"/>
      <point x="1054" y="497"/>
      <point x="1070" y="479"/>
      <point x="1070" y="456" type="curve" smooth="yes"/>
      <point x="1070" y="46" type="line" smooth="yes"/>
      <point x="1070" y="17"/>
      <point x="1051" y="0"/>
      <point x="1022" y="0" type="curve" smooth="yes"/>
      <point x="825" y="0" type="line" smooth="yes"/>
      <point x="801" y="0"/>
      <point x="785" y="17"/>
      <point x="785" y="47" type="curve" smooth="yes"/>
      <point x="785" y="147" type="line"/>
      <point x="822" y="147" type="line"/>
      <point x="822" y="49" type="line" smooth="yes"/>
      <point x="822" y="35"/>
      <point x="823" y="32"/>
      <point x="837" y="32" type="curve" smooth="yes"/>
      <point x="1024" y="32" type="line" smooth="yes"/>
      <point x="1034" y="32"/>
      <point x="1036" y="38"/>
      <point x="1036" y="49" type="curve" smooth="yes"/>
      <point x="1036" y="451" type="line" smooth="yes"/>
      <point x="1036" y="461"/>
      <point x="1033" y="465"/>
      <point x="1027" y="465" type="curve" smooth="yes"/>
      <point x="951" y="465" type="line" smooth="yes"/>
      <point x="944" y="465"/>
      <point x="941" y="460"/>
      <point x="941" y="449" type="curve" smooth="yes"/>
      <point x="941" y="299" type="line" smooth="yes"/>
      <point x="941" y="272"/>
      <point x="925" y="264"/>
      <point x="899" y="264" type="curve" smooth="yes"/>
      <point x="818" y="264" type="line" smooth="yes"/>
      <point x="798" y="264"/>
      <point x="785" y="274"/>
      <point x="785" y="297" type="curve" smooth="yes"/>
    </contour>
  </outline>
</glyph>
<glyph name="si_E" format="1">
  <advance width="534"/>
  <unicode hex="0D91"/>
  <note>
	si_E
  </note>
  <outline>
    <contour>
      <point x="187" y="632" type="line"/>
      <point x="201" y="632" type="line" smooth="yes"/>
      <point x="221" y="632"/>
      <point x="244" y="631"/>
      <point x="262" y="622" type="curve" smooth="yes"/>
      <point x="399" y="550" type="line" smooth="yes"/>
      <point x="422" y="538"/>
      <point x="445" y="528"/>
      <point x="445" y="494" type="curve" smooth="yes"/>
      <point x="445" y="488" type="line"/>
      <point x="213" y="488" type="line" smooth="yes"/>
      <point x="193" y="488"/>
      <point x="187" y="490"/>
      <point x="187" y="511" type="curve" smooth="yes"/>
    </contour>
    <contour>
      <point x="482" y="494" type="line" smooth="yes"/>
      <point x="482" y="546"/>
      <point x="448" y="565"/>
      <point x="412" y="581" type="curve"/>
      <point x="412" y="581"/>
      <point x="288" y="645"/>
      <point x="288" y="645" type="curve"/>
      <point x="252" y="663"/>
      <point x="234" y="664"/>
      <point x="203" y="664" type="curve" smooth="yes"/>
      <point x="80" y="664" type="line"/>
      <point x="80" y="632" type="line"/>
      <point x="150" y="632" type="line"/>
      <point x="150" y="504" type="line" smooth="yes"/>
      <point x="150" y="467"/>
      <point x="163" y="456"/>
      <point x="196" y="456" type="curve" smooth="yes"/>
      <point x="445" y="456" type="line"/>
      <point x="445" y="60" type="line" smooth="yes"/>
      <point x="445" y="41"/>
      <point x="439" y="32"/>
      <point x="423" y="32" type="curve" smooth="yes"/>
      <point x="100" y="32" type="line" smooth="yes"/>
      <point x="79" y="32"/>
      <point x="76" y="40"/>
      <point x="76" y="56" type="curve" smooth="yes"/>
      <point x="76" y="173" type="line" smooth="yes"/>
      <point x="76" y="216"/>
      <point x="97" y="239"/>
      <point x="161" y="239" type="curve" smooth="yes"/>
      <point x="282" y="239" type="line"/>
      <point x="282" y="346" type="line" smooth="yes"/>
      <point x="282" y="384"/>
      <point x="263" y="407"/>
      <point x="222" y="407" type="curve" smooth="yes"/>
      <point x="41" y="407" type="line"/>
      <point x="41" y="375" type="line"/>
      <point x="213" y="375" type="line" smooth="yes"/>
      <point x="233" y="375"/>
      <point x="245" y="368"/>
      <point x="245" y="342" type="curve" smooth="yes"/>
      <point x="245" y="271" type="line"/>
      <point x="4" y="271" type="line"/>
      <point x="4" y="239" type="line"/>
      <point x="68" y="239" type="line"/>
      <point x="55" y="232"/>
      <point x="38" y="219"/>
      <point x="38" y="179" type="curve" smooth="yes"/>
      <point x="38" y="44" type="line" smooth="yes"/>
      <point x="38" y="13"/>
      <point x="56" y="0"/>
      <point x="86" y="0" type="curve" smooth="yes"/>
      <point x="436" y="0" type="line" smooth="yes"/>
      <point x="465" y="0"/>
      <point x="482" y="20"/>
      <point x="482" y="51" type="curve" smooth="yes"/>
    </contour>
  </outline>
</glyph>
<glyph name="si_Ai" format="1">
  <advance width="912"/>
  <unicode hex="0D93"/>
  <note>
	si_Ai
  </note>
  <outline>
    <contour>
      <point x="326" y="497" type="line"/>
      <point x="326" y="465" type="line"/>
      <point x="90" y="465" type="line" smooth="yes"/>
      <point x="65" y="465"/>
      <point x="59" y="454"/>
      <point x="59" y="435" type="curve" smooth="yes"/>
      <point x="59" y="56" type="line" smooth="yes"/>
      <point x="59" y="38"/>
      <point x="66" y="32"/>
      <point x="79" y="32" type="curve" smooth="yes"/>
      <point x="269" y="32" type="line" smooth="yes"/>
      <point x="284" y="32"/>
      <point x="294" y="40"/>
      <point x="294" y="56" type="curve" smooth="yes"/>
      <point x="294" y="260" type="line" smooth="yes"/>
      <point x="294" y="283"/>
      <point x="287" y="291"/>
      <point x="264" y="291" type="curve" smooth="yes"/>
      <point x="168" y="291" type="line"/>
      <point x="168" y="323" type="line"/>
      <point x="278" y="323" type="line" smooth="yes"/>
      <point x="314" y="323"/>
      <point x="331" y="306"/>
      <point x="331" y="273" type="curve" smooth="yes"/>
      <point x="331" y="49" type="line" smooth="yes"/>
      <point x="331" y="19"/>
      <point x="314" y="0"/>
      <point x="280" y="0" type="curve" smooth="yes"/>
      <point x="68" y="0" type="line" smooth="yes"/>
      <point x="36" y="0"/>
      <point x="22" y="18"/>
      <point x="22" y="46" type="curve" smooth="yes"/>
      <point x="22" y="445" type="line" smooth="yes"/>
      <point x="22" y="477"/>
      <point x="42" y="497"/>
      <point x="75" y="497" type="curve" smooth="yes"/>
    </contour>
    <contour>
      <point x="579" y="632" type="line"/>
      <point x="593" y="632" type="line" smooth="yes"/>
      <point x="613" y="632"/>
      <point x="636" y="631"/>
      <point x="654" y="622" type="curve" smooth="yes"/>
      <point x="791" y="550" type="line" smooth="yes"/>
      <point x="814" y="538"/>
      <point x="837" y="528"/>
      <point x="837" y="494" type="curve" smooth="yes"/>
      <point x="837" y="488" type="line"/>
      <point x="605" y="488" type="line" smooth="yes"/>
      <point x="585" y="488"/>
      <point x="579" y="490"/>
      <point x="579" y="511" type="curve" smooth="yes"/>
    </contour>
    <contour>
      <point x="874" y="494" type="line" smooth="yes"/>
      <point x="874" y="546"/>
      <point x="840" y="565"/>
      <point x="804" y="581" type="curve"/>
      <point x="804" y="581"/>
      <point x="680" y="645"/>
      <point x="680" y="645" type="curve"/>
      <point x="644" y="663"/>
      <point x="626" y="664"/>
      <point x="595" y="664" type="curve" smooth="yes"/>
      <point x="472" y="664" type="line"/>
      <point x="472" y="632" type="line"/>
      <point x="542" y="632" type="line"/>
      <point x="542" y="504" type="line" smooth="yes"/>
      <point x="542" y="467"/>
      <point x="555" y="456"/>
      <point x="588" y="456" type="curve" smooth="yes"/>
      <point x="837" y="456" type="line"/>
      <point x="837" y="60" type="line" smooth="yes"/>
      <point x="837" y="41"/>
      <point x="831" y="32"/>
      <point x="815" y="32" type="curve" smooth="yes"/>
      <point x="492" y="32" type="line" smooth="yes"/>
      <point x="471" y="32"/>
      <point x="468" y="40"/>
      <point x="468" y="56" type="curve" smooth="yes"/>
      <point x="468" y="173" type="line" smooth="yes"/>
      <point x="468" y="216"/>
      <point x="489" y="239"/>
      <point x="553" y="239" type="curve" smooth="yes"/>
      <point x="674" y="239" type="line"/>
      <point x="674" y="346" type="line" smooth="yes"/>
      <point x="674" y="384"/>
      <point x="655" y="407"/>
      <point x="614" y="407" type="curve" smooth="yes"/>
      <point x="433" y="407" type="line"/>
      <point x="433" y="375" type="line"/>
      <point x="605" y="375" type="line" smooth="yes"/>
      <point x="625" y="375"/>
      <point x="637" y="368"/>
      <point x="637" y="342" type="curve" smooth="yes"/>
      <point x="637" y="271" type="line"/>
      <point x="396" y="271" type="line"/>
      <point x="396" y="239" type="line"/>
      <point x="460" y="239" type="line"/>
      <point x="447" y="232"/>
      <point x="430" y="219"/>
      <point x="430" y="179" type="curve" smooth="yes"/>
      <point x="430" y="44" type="line" smooth="yes"/>
      <point x="430" y="13"/>
      <point x="448" y="0"/>
      <point x="478" y="0" type="curve" smooth="yes"/>
      <point x="828" y="0" type="line" smooth="yes"/>
      <point x="857" y="0"/>
      <point x="874" y="20"/>
      <point x="874" y="51" type="curve" smooth="yes"/>
    </contour>
  </outline>
</glyph>
<glyph name="si_Os" format="1">
  <advance width="515"/>
  <unicode hex="0D94"/>
  <note>
	si_Os
  </note>
  <outline>
    <contour>
      <point x="282" y="252" type="line" smooth="yes"/>
      <point x="308" y="252"/>
      <point x="321" y="263"/>
      <point x="321" y="287" type="curve" smooth="yes"/>
      <point x="321" y="459" type="line"/>
      <point x="284" y="459" type="line"/>
      <point x="284" y="301" type="line" smooth="yes"/>
      <point x="284" y="289"/>
      <point x="280" y="284"/>
      <point x="269" y="284" type="curve" smooth="yes"/>
      <point x="210" y="284" type="line" smooth="yes"/>
      <point x="200" y="284"/>
      <point x="196" y="289"/>
      <point x="196" y="301" type="curve" smooth="yes"/>
      <point x="196" y="424" type="line" smooth="yes"/>
      <point x="196" y="450"/>
      <point x="181" y="459"/>
      <point x="155" y="459" type="curve" smooth="yes"/>
      <point x="81" y="459" type="line" smooth="yes"/>
      <point x="40" y="459"/>
      <point x="22" y="433"/>
      <point x="22" y="394" type="curve" smooth="yes"/>
      <point x="22" y="48" type="line" smooth="yes"/>
      <point x="22" y="15"/>
      <point x="38" y="0"/>
      <point x="69" y="0" type="curve" smooth="yes"/>
      <point x="194" y="0" type="line" smooth="yes"/>
      <point x="217" y="0"/>
      <point x="237" y="10"/>
      <point x="241" y="28" type="curve"/>
      <point x="246" y="8"/>
      <point x="264" y="0"/>
      <point x="290" y="0" type="curve" smooth="yes"/>
      <point x="413" y="0" type="line" smooth="yes"/>
      <point x="446" y="0"/>
      <point x="460" y="20"/>
      <point x="460" y="50" type="curve" smooth="yes"/>
      <point x="460" y="560" type="line" smooth="yes"/>
      <point x="460" y="609"/>
      <point x="429" y="626"/>
      <point x="387" y="626" type="curve" smooth="yes"/>
      <point x="22" y="626" type="line"/>
      <point x="22" y="594" type="line"/>
      <point x="379" y="594" type="line" smooth="yes"/>
      <point x="409" y="594"/>
      <point x="423" y="583"/>
      <point x="423" y="552" type="curve" smooth="yes"/>
      <point x="423" y="62" type="line" smooth="yes"/>
      <point x="423" y="42"/>
      <point x="418" y="32"/>
      <point x="395" y="32" type="curve" smooth="yes"/>
      <point x="301" y="32" type="line" smooth="yes"/>
      <point x="276" y="32"/>
      <point x="259" y="40"/>
      <point x="259" y="78" type="curve" smooth="yes"/>
      <point x="259" y="176" type="line"/>
      <point x="222" y="176" type="line"/>
      <point x="222" y="78" type="line" smooth="yes"/>
      <point x="222" y="39"/>
      <point x="206" y="32"/>
      <point x="182" y="32" type="curve" smooth="yes"/>
      <point x="86" y="32" type="line" smooth="yes"/>
      <point x="63" y="32"/>
      <point x="59" y="39"/>
      <point x="59" y="63" type="curve" smooth="yes"/>
      <point x="59" y="390" type="line" smooth="yes"/>
      <point x="59" y="415"/>
      <point x="69" y="427"/>
      <point x="88" y="427" type="curve" smooth="yes"/>
      <point x="146" y="427" type="line" smooth="yes"/>
      <point x="155" y="427"/>
      <point x="159" y="422"/>
      <point x="159" y="413" type="curve" smooth="yes"/>
      <point x="159" y="282" type="line" smooth="yes"/>
      <point x="159" y="260"/>
      <point x="172" y="252"/>
      <point x="194" y="252" type="curve" smooth="yes"/>
    </contour>
  </outline>
</glyph>
<glyph name="si_Oo" format="1">
  <advance width="515"/>
  <unicode hex="0D95"/>
  <note>
	si_Oo
  </note>
  <outline>
    <contour>
      <point x="460" y="400" type="line"/>
      <point x="460" y="469" type="line" smooth="yes"/>
      <point x="460" y="526"/>
      <point x="446" y="550"/>
      <point x="391" y="550" type="curve" smooth="yes"/>
      <point x="168" y="550" type="line" smooth="yes"/>
      <point x="97" y="550"/>
      <point x="87" y="574"/>
      <point x="87" y="616" type="curve" smooth="yes"/>
      <point x="87" y="634"/>
      <point x="88" y="641"/>
      <point x="103" y="641" type="curve" smooth="yes"/>
      <point x="458" y="641" type="line"/>
      <point x="458" y="673" type="line"/>
      <point x="99" y="673" type="line" smooth="yes"/>
      <point x="66" y="673"/>
      <point x="50" y="659"/>
      <point x="50" y="632" type="curve" smooth="yes"/>
      <point x="50" y="604" type="line" smooth="yes"/>
      <point x="50" y="583"/>
      <point x="53" y="557"/>
      <point x="82" y="550" type="curve"/>
      <point x="14" y="550" type="line"/>
      <point x="14" y="518" type="line"/>
      <point x="387" y="518" type="line" smooth="yes"/>
      <point x="406" y="518"/>
      <point x="423" y="514"/>
      <point x="423" y="484" type="curve" smooth="yes"/>
      <point x="423" y="400" type="line"/>
    </contour>
    <contour>
      <point x="423" y="415" type="line"/>
      <point x="423" y="62" type="line" smooth="yes"/>
      <point x="423" y="42"/>
      <point x="418" y="32"/>
      <point x="395" y="32" type="curve" smooth="yes"/>
      <point x="301" y="32" type="line" smooth="yes"/>
      <point x="276" y="32"/>
      <point x="259" y="40"/>
      <point x="259" y="78" type="curve" smooth="yes"/>
      <point x="259" y="150" type="line"/>
      <point x="222" y="150" type="line"/>
      <point x="222" y="78" type="line" smooth="yes"/>
      <point x="222" y="39"/>
      <point x="206" y="32"/>
      <point x="182" y="32" type="curve" smooth="yes"/>
      <point x="86" y="32" type="line" smooth="yes"/>
      <point x="63" y="32"/>
      <point x="59" y="39"/>
      <point x="59" y="63" type="curve" smooth="yes"/>
      <point x="59" y="361" type="line" smooth="yes"/>
      <point x="59" y="383"/>
      <point x="67" y="394"/>
      <point x="86" y="394" type="curve" smooth="yes"/>
      <point x="147" y="394" type="line" smooth="yes"/>
      <point x="156" y="394"/>
      <point x="159" y="389"/>
      <point x="159" y="382" type="curve" smooth="yes"/>
      <point x="159" y="250" type="line" smooth="yes"/>
      <point x="159" y="228"/>
      <point x="172" y="220"/>
      <point x="194" y="220" type="curve" smooth="yes"/>
      <point x="282" y="220" type="line" smooth="yes"/>
      <point x="308" y="220"/>
      <point x="321" y="231"/>
      <point x="321" y="255" type="curve" smooth="yes"/>
      <point x="321" y="427" type="line"/>
      <point x="284" y="427" type="line"/>
      <point x="284" y="269" type="line" smooth="yes"/>
      <point x="284" y="257"/>
      <point x="280" y="252"/>
      <point x="269" y="252" type="curve" smooth="yes"/>
      <point x="210" y="252" type="line" smooth="yes"/>
      <point x="200" y="252"/>
      <point x="196" y="257"/>
      <point x="196" y="269" type="curve" smooth="yes"/>
      <point x="196" y="392" type="line" smooth="yes"/>
      <point x="196" y="418"/>
      <point x="181" y="427"/>
      <point x="155" y="427" type="curve" smooth="yes"/>
      <point x="81" y="427" type="line" smooth="yes"/>
      <point x="40" y="427"/>
      <point x="22" y="401"/>
      <point x="22" y="362" type="curve" smooth="yes"/>
      <point x="22" y="48" type="line" smooth="yes"/>
      <point x="22" y="15"/>
      <point x="38" y="0"/>
      <point x="69" y="0" type="curve" smooth="yes"/>
      <point x="194" y="0" type="line" smooth="yes"/>
      <point x="217" y="0"/>
      <point x="237" y="10"/>
      <point x="241" y="28" type="curve"/>
      <point x="246" y="8"/>
      <point x="264" y="0"/>
      <point x="290" y="0" type="curve" smooth="yes"/>
      <point x="413" y="0" type="line" smooth="yes"/>
      <point x="446" y="0"/>
      <point x="460" y="20"/>
      <point x="460" y="50" type="curve" smooth="yes"/>
      <point x="460" y="415" type="line"/>
    </contour>
  </outline>
</glyph>
<glyph name="si_Au" format="1">
  <advance width="867"/>
  <unicode hex="0D96"/>
  <note>
	si_Au
  </note>
  <outline>
    <contour>
      <point x="543" y="497" type="line"/>
      <point x="580" y="497" type="line"/>
      <point x="580" y="319" type="line" smooth="yes"/>
      <point x="580" y="301"/>
      <point x="581" y="297"/>
      <point x="589" y="297" type="curve" smooth="yes"/>
      <point x="653" y="297" type="line" smooth="yes"/>
      <point x="663" y="297"/>
      <point x="663" y="305"/>
      <point x="663" y="321" type="curve" smooth="yes"/>
      <point x="663" y="457" type="line" smooth="yes"/>
      <point x="663" y="485"/>
      <point x="677" y="497"/>
      <point x="700" y="497" type="curve" smooth="yes"/>
      <point x="786" y="497" type="line" smooth="yes"/>
      <point x="812" y="497"/>
      <point x="828" y="478"/>
      <point x="828" y="456" type="curve" smooth="yes"/>
      <point x="828" y="47" type="line" smooth="yes"/>
      <point x="828" y="18"/>
      <point x="809" y="1"/>
      <point x="780" y="1" type="curve" smooth="yes"/>
      <point x="583" y="1" type="line" smooth="yes"/>
      <point x="559" y="1"/>
      <point x="543" y="17"/>
      <point x="543" y="48" type="curve" smooth="yes"/>
      <point x="543" y="148" type="line"/>
      <point x="580" y="148" type="line"/>
      <point x="580" y="50" type="line" smooth="yes"/>
      <point x="580" y="36"/>
      <point x="581" y="33"/>
      <point x="595" y="33" type="curve" smooth="yes"/>
      <point x="782" y="33" type="line" smooth="yes"/>
      <point x="792" y="33"/>
      <point x="794" y="39"/>
      <point x="794" y="50" type="curve" smooth="yes"/>
      <point x="794" y="451" type="line" smooth="yes"/>
      <point x="794" y="460"/>
      <point x="791" y="465"/>
      <point x="785" y="465" type="curve" smooth="yes"/>
      <point x="709" y="465" type="line" smooth="yes"/>
      <point x="702" y="465"/>
      <point x="699" y="460"/>
      <point x="699" y="449" type="curve" smooth="yes"/>
      <point x="699" y="299" type="line" smooth="yes"/>
      <point x="699" y="272"/>
      <point x="683" y="264"/>
      <point x="657" y="264" type="curve" smooth="yes"/>
      <point x="576" y="264" type="line" smooth="yes"/>
      <point x="556" y="264"/>
      <point x="543" y="274"/>
      <point x="543" y="297" type="curve" smooth="yes"/>
    </contour>
    <contour>
      <point x="282" y="252" type="line" smooth="yes"/>
      <point x="308" y="252"/>
      <point x="321" y="263"/>
      <point x="321" y="287" type="curve" smooth="yes"/>
      <point x="321" y="459" type="line"/>
      <point x="284" y="459" type="line"/>
      <point x="284" y="301" type="line" smooth="yes"/>
      <point x="284" y="289"/>
      <point x="280" y="284"/>
      <point x="269" y="284" type="curve" smooth="yes"/>
      <point x="210" y="284" type="line" smooth="yes"/>
      <point x="200" y="284"/>
      <point x="196" y="289"/>
      <point x="196" y="301" type="curve" smooth="yes"/>
      <point x="196" y="424" type="line" smooth="yes"/>
      <point x="196" y="450"/>
      <point x="181" y="459"/>
      <point x="155" y="459" type="curve" smooth="yes"/>
      <point x="81" y="459" type="line" smooth="yes"/>
      <point x="40" y="459"/>
      <point x="22" y="433"/>
      <point x="22" y="394" type="curve" smooth="yes"/>
      <point x="22" y="48" type="line" smooth="yes"/>
      <point x="22" y="15"/>
      <point x="38" y="0"/>
      <point x="69" y="0" type="curve" smooth="yes"/>
      <point x="194" y="0" type="line" smooth="yes"/>
      <point x="217" y="0"/>
      <point x="237" y="10"/>
      <point x="241" y="28" type="curve"/>
      <point x="246" y="8"/>
      <point x="264" y="0"/>
      <point x="290" y="0" type="curve" smooth="yes"/>
      <point x="413" y="0" type="line" smooth="yes"/>
      <point x="446" y="0"/>
      <point x="460" y="20"/>
      <point x="460" y="50" type="curve" smooth="yes"/>
      <point x="460" y="560" type="line" smooth="yes"/>
      <point x="460" y="609"/>
      <point x="429" y="626"/>
      <point x="387" y="626" type="curve" smooth="yes"/>
      <point x="22" y="626" type="line"/>
      <point x="22" y="594" type="line"/>
      <point x="379" y="594" type="line" smooth="yes"/>
      <point x="409" y="594"/>
      <point x="423" y="583"/>
      <point x="423" y="552" type="curve" smooth="yes"/>
      <point x="423" y="62" type="line" smooth="yes"/>
      <point x="423" y="42"/>
      <point x="418" y="32"/>
      <point x="395" y="32" type="curve" smooth="yes"/>
      <point x="301" y="32" type="line" smooth="yes"/>
      <point x="276" y="32"/>
      <point x="259" y="40"/>
      <point x="259" y="78" type="curve" smooth="yes"/>
      <point x="259" y="176" type="line"/>
      <point x="222" y="176" type="line"/>
      <point x="222" y="78" type="line" smooth="yes"/>
      <point x="222" y="39"/>
      <point x="206" y="32"/>
      <point x="182" y="32" type="curve" smooth="yes"/>
      <point x="86" y="32" type="line" smooth="yes"/>
      <point x="63" y="32"/>
      <point x="59" y="39"/>
      <point x="59" y="63" type="curve" smooth="yes"/>
      <point x="59" y="390" type="line" smooth="yes"/>
      <point x="59" y="415"/>
      <point x="69" y="427"/>
      <point x="88" y="427" type="curve" smooth="yes"/>
      <point x="146" y="427" type="line" smooth="yes"/>
      <point x="155" y="427"/>
      <point x="159" y="422"/>
      <point x="159" y="413" type="curve" smooth="yes"/>
      <point x="159" y="282" type="line" smooth="yes"/>
      <point x="159" y="260"/>
      <point x="172" y="252"/>
      <point x="194" y="252" type="curve" smooth="yes"/>
    </contour>
  </outline>
</glyph>
<glyph name="si_Ha" format="1">
  <advance width="590"/>
  <unicode hex="0DC4"/>
  <note>
	si_Ha
  </note>
  <outline>
    <contour>
      <point x="59" y="292" type="line" smooth="yes"/>
      <point x="59" y="304"/>
      <point x="61" y="311"/>
      <point x="64" y="315" type="curve" smooth="yes"/>
      <point x="68" y="319"/>
      <point x="75" y="321"/>
      <point x="86" y="321" type="curve" smooth="yes"/>
      <point x="186" y="321" type="line"/>
      <point x="186" y="431" type="line" smooth="yes"/>
      <point x="186" y="475"/>
      <point x="164" y="497"/>
      <point x="120" y="497" type="curve" smooth="yes"/>
      <point x="22" y="497" type="line"/>
      <point x="22" y="466" type="line"/>
      <point x="110" y="466" type="line" smooth="yes"/>
      <point x="123" y="466"/>
      <point x="133" y="463"/>
      <point x="139" y="458" type="curve" smooth="yes"/>
      <point x="146" y="452"/>
      <point x="149" y="441"/>
      <point x="149" y="426" type="curve" smooth="yes"/>
      <point x="149" y="353" type="line"/>
      <point x="77" y="353" type="line" smooth="yes"/>
      <point x="40" y="353"/>
      <point x="22" y="335"/>
      <point x="22" y="298" type="curve" smooth="yes"/>
      <point x="22" y="51" type="line" smooth="yes"/>
      <point x="22" y="14"/>
      <point x="33" y="0"/>
      <point x="70" y="0" type="curve" smooth="yes"/>
      <point x="257" y="0" type="line" smooth="yes"/>
      <point x="281" y="0"/>
      <point x="298" y="4"/>
      <point x="308" y="13" type="curve" smooth="yes"/>
      <point x="318" y="21"/>
      <point x="324" y="37"/>
      <point x="324" y="60" type="curve" smooth="yes"/>
      <point x="324" y="242" type="line" smooth="yes"/>
      <point x="324" y="271"/>
      <point x="311" y="285"/>
      <point x="287" y="285" type="curve" smooth="yes"/>
      <point x="263" y="285" type="line"/>
      <point x="291" y="440" type="line" smooth="yes"/>
      <point x="292" y="448"/>
      <point x="296" y="454"/>
      <point x="302" y="458" type="curve" smooth="yes"/>
      <point x="308" y="463"/>
      <point x="314" y="465"/>
      <point x="321" y="465" type="curve" smooth="yes"/>
      <point x="465" y="465" type="line" smooth="yes"/>
      <point x="477" y="465"/>
      <point x="486" y="463"/>
      <point x="491" y="458" type="curve" smooth="yes"/>
      <point x="496" y="453"/>
      <point x="499" y="444"/>
      <point x="499" y="433" type="curve" smooth="yes"/>
      <point x="499" y="61" type="line" smooth="yes"/>
      <point x="499" y="40"/>
      <point x="494" y="32"/>
      <point x="474" y="32" type="curve" smooth="yes"/>
      <point x="388" y="32" type="line"/>
      <point x="388" y="0" type="line"/>
      <point x="473" y="0" type="line" smooth="yes"/>
      <point x="497" y="0"/>
      <point x="514" y="5"/>
      <point x="523" y="14" type="curve" smooth="yes"/>
      <point x="531" y="23"/>
      <point x="536" y="40"/>
      <point x="536" y="64" type="curve" smooth="yes"/>
      <point x="536" y="434" type="line" smooth="yes"/>
      <point x="536" y="457"/>
      <point x="530" y="473"/>
      <point x="520" y="483" type="curve" smooth="yes"/>
      <point x="509" y="492"/>
      <point x="492" y="497"/>
      <point x="469" y="497" type="curve" smooth="yes"/>
      <point x="328" y="497" type="line" smooth="yes"/>
      <point x="286" y="497"/>
      <point x="262" y="480"/>
      <point x="256" y="446" type="curve" smooth="yes"/>
      <point x="222" y="253" type="line"/>
      <point x="271" y="253" type="line" smooth="yes"/>
      <point x="281" y="253"/>
      <point x="287" y="246"/>
      <point x="287" y="232" type="curve" smooth="yes"/>
      <point x="287" y="59" type="line" smooth="yes"/>
      <point x="287" y="40"/>
      <point x="279" y="32"/>
      <point x="260" y="32" type="curve" smooth="yes"/>
      <point x="77" y="32" type="line" smooth="yes"/>
      <point x="65" y="32"/>
      <point x="59" y="39"/>
      <point x="59" y="54" type="curve" smooth="yes"/>
    </contour>
  </outline>
</glyph>
<glyph name="si_MatraAa" format="1">
  <advance width="232"/>
  <unicode hex="0DCF"/>
  <note>
	si_MatraAa
  </note>
  <outline>
    <contour>
      <point x="21" y="497" type="line"/>
      <point x="21" y="466" type="line"/>
      <point x="139" y="466" type="line" smooth="yes"/>
      <point x="151" y="466"/>
      <point x="155" y="460"/>
      <point x="155" y="449" type="curve" smooth="yes"/>
      <point x="155" y="51" type="line" smooth="yes"/>
      <point x="155" y="38"/>
      <point x="152" y="32"/>
      <point x="139" y="32" type="curve" smooth="yes"/>
      <point x="21" y="32" type="line"/>
      <point x="21" y="0" type="line"/>
      <point x="151" y="0" type="line" smooth="yes"/>
      <point x="178" y="0"/>
      <point x="192" y="13"/>
      <point x="192" y="38" type="curve" smooth="yes"/>
      <point x="192" y="455" type="line" smooth="yes"/>
      <point x="192" y="482"/>
      <point x="181" y="497"/>
      <point x="151" y="497" type="curve" smooth="yes"/>
    </contour>
  </outline>
</glyph>
